<?xml version="1.0" encoding="UTF-8" standalone="no"?><svg xmlns="http://www.w3.org/2000/svg" xmlns:xlink="http://www.w3.org/1999/xlink" contentScriptType="application/ecmascript" contentStyleType="text/css" height="1306px" preserveAspectRatio="none" style="width:3317px;height:1306px;" version="1.1" viewBox="0 0 3317 1306" width="3317px" zoomAndPan="magnify"><defs><filter height="300%" id="f1mzsf92gu4uj0" width="300%" x="-1" y="-1"><feGaussianBlur result="blurOut" stdDeviation="2.0"/><feColorMatrix in="blurOut" result="blurOut2" type="matrix" values="0 0 0 0 0 0 0 0 0 0 0 0 0 0 0 0 0 0 .4 0"/><feOffset dx="4.0" dy="4.0" in="blurOut2" result="blurOut3"/><feBlend in="SourceGraphic" in2="blurOut3" mode="normal"/></filter></defs><g><text fill="#333333" font-family="sans-serif" font-size="18" lengthAdjust="spacingAndGlyphs" textLength="303" x="1510.5" y="19.2419">Artifacts produced during a session</text><!--MD5=[a8673bbddc03fb1d703ee82adeb963f2]
cluster Write paths — session produces artifacts--><polygon fill="#F9FAFB" filter="url(#f1mzsf92gu4uj0)" points="164,584.3858,453,584.3858,460,609.4538,2379,609.4538,2379,909.5958,164,909.5958,164,584.3858" style="stroke: #000000; stroke-width: 1.5;"/><line style="stroke: #000000; stroke-width: 1.5;" x1="164" x2="460" y1="609.4538" y2="609.4538"/><text fill="#333333" font-family="sans-serif" font-size="14" font-weight="bold" lengthAdjust="spacingAndGlyphs" textLength="283" x="168" y="601.3518">Write paths — session produces artifacts</text><!--MD5=[88b3a7686a776a0f8c6a4d048b5b910a]
cluster REC--><polygon fill="#ECFCCB" filter="url(#f1mzsf92gu4uj0)" points="196,638.3858,328,638.3858,335,663.4538,2109,663.4538,2109,877.5958,196,877.5958,196,638.3858" style="stroke: #D1D5DB; stroke-width: 1.5;"/><line style="stroke: #D1D5DB; stroke-width: 1.5;" x1="196" x2="335" y1="663.4538" y2="663.4538"/><text fill="#333333" font-family="sans-serif" font-size="14" font-weight="bold" lengthAdjust="spacingAndGlyphs" textLength="126" x="200" y="655.3518">RECORDINGS_DIR/</text><!--MD5=[8143803cd0ab3beaf27f79f93c872e02]
cluster VDIR--><polygon fill="#ECFCCB" filter="url(#f1mzsf92gu4uj0)" points="1323,701.9258,1464,701.9258,1471,726.9938,1553,726.9938,1553,836.0558,1323,836.0558,1323,701.9258" style="stroke: #D1D5DB; stroke-width: 1.5;"/><line style="stroke: #D1D5DB; stroke-width: 1.5;" x1="1323" x2="1471" y1="726.9938" y2="726.9938"/><text fill="#333333" font-family="sans-serif" font-size="14" font-weight="bold" lengthAdjust="spacingAndGlyphs" textLength="135" x="1327" y="718.8918">videos/&lt;log-stem&gt;/</text><!--MD5=[622825b33ffe506c3df99d52073256af]
cluster DLDIR--><polygon fill="#ECFCCB" filter="url(#f1mzsf92gu4uj0)" points="1577,701.9258,1764,701.9258,1771,726.9938,1799,726.9938,1799,836.0558,1577,836.0558,1577,701.9258" style="stroke: #D1D5DB; stroke-width: 1.5;"/><line style="stroke: #D1D5DB; stroke-width: 1.5;" x1="1577" x2="1771" y1="726.9938" y2="726.9938"/><text fill="#333333" font-family="sans-serif" font-size="14" font-weight="bold" lengthAdjust="spacingAndGlyphs" textLength="181" x="1581" y="718.8918">downloads/&lt;instance_id&gt;/</text><!--MD5=[d9578a25ccc073773e9099a1302a5f26]
cluster ARTDIR--><polygon fill="#ECFCCB" filter="url(#f1mzsf92gu4uj0)" points="1823,692.3858,2000,692.3858,2007,717.4538,2077,717.4538,2077,845.5958,1823,845.5958,1823,692.3858" style="stroke: #D1D5DB; stroke-width: 1.5;"/><line style="stroke: #D1D5DB; stroke-width: 1.5;" x1="1823" x2="2007" y1="717.4538" y2="717.4538"/><text fill="#333333" font-family="sans-serif" font-size="14" font-weight="bold" lengthAdjust="spacingAndGlyphs" textLength="171" x="1827" y="709.3518">artifacts/macros/&lt;slug&gt;/</text><!--MD5=[a5cdf40b4bbbf0139c791b3353f01695]
cluster GOLD--><polygon fill="#ECFCCB" filter="url(#f1mzsf92gu4uj0)" points="2141,701.9258,2249,701.9258,2256,726.9938,2355,726.9938,2355,836.0558,2141,836.0558,2141,701.9258" style="stroke: #D1D5DB; stroke-width: 1.5;"/><line style="stroke: #D1D5DB; stroke-width: 1.5;" x1="2141" x2="2256" y1="726.9938" y2="726.9938"/><text fill="#333333" font-family="sans-serif" font-size="14" font-weight="bold" lengthAdjust="spacingAndGlyphs" textLength="102" x="2145" y="718.8918">GOLDENS_DIR/</text><!--MD5=[f9e44ddc8a41ccffd118be5855ac8c9f]
cluster Read-back paths — disk drives a session--><polygon fill="#FEF9C3" filter="url(#f1mzsf92gu4uj0)" points="1345,48.0158,1630,48.0158,1637,73.0838,1954,73.0838,1954,284.1558,1345,284.1558,1345,48.0158" style="stroke: #000000; stroke-width: 1.5;"/><line style="stroke: #000000; stroke-width: 1.5;" x1="1345" x2="1637" y1="73.0838" y2="73.0838"/><text fill="#333333" font-family="sans-serif" font-size="14" font-weight="bold" lengthAdjust="spacingAndGlyphs" textLength="279" x="1349" y="64.9818">Read-back paths — disk drives a session</text><!--MD5=[a690b5af31e5254f8938abb01b24e267]
cluster MAC--><polygon fill="#ECFCCB" filter="url(#f1mzsf92gu4uj0)" points="1377,102.0158,1479,102.0158,1486,127.0838,1646,127.0838,1646,252.1558,1377,252.1558,1377,102.0158" style="stroke: #D1D5DB; stroke-width: 1.5;"/><line style="stroke: #D1D5DB; stroke-width: 1.5;" x1="1377" x2="1486" y1="127.0838" y2="127.0838"/><text fill="#333333" font-family="sans-serif" font-size="14" font-weight="bold" lengthAdjust="spacingAndGlyphs" textLength="96" x="1381" y="118.9818">MACROS_DIR/</text><!--MD5=[5637b4202bf01a7db20c3cec304f835d]
cluster SCN--><polygon fill="#ECFCCB" filter="url(#f1mzsf92gu4uj0)" points="1678,110.0158,1799,110.0158,1806,135.0838,1930,135.0838,1930,244.1558,1678,244.1558,1678,110.0158" style="stroke: #D1D5DB; stroke-width: 1.5;"/><line style="stroke: #D1D5DB; stroke-width: 1.5;" x1="1678" x2="1806" y1="135.0838" y2="135.0838"/><text fill="#333333" font-family="sans-serif" font-size="14" font-weight="bold" lengthAdjust="spacingAndGlyphs" textLength="115" x="1682" y="126.9818">SCENARIOS_DIR/</text><!--MD5=[ca83f63a4332f70cfed4dec39f5f12e4]
cluster Derived artifacts (post-hoc)--><polygon fill="#F3F4F6" filter="url(#f1mzsf92gu4uj0)" points="1322,942.5958,1517,942.5958,1524,967.6638,1832,967.6638,1832,1294.5158,1322,1294.5158,1322,942.5958" style="stroke: #000000; stroke-width: 1.5;"/><line style="stroke: #000000; stroke-width: 1.5;" x1="1322" x2="1524" y1="967.6638" y2="967.6638"/><text fill="#333333" font-family="sans-serif" font-size="14" font-weight="bold" lengthAdjust="spacingAndGlyphs" textLength="189" x="1326" y="959.5618">Derived artifacts (post-hoc)</text><!--MD5=[02d3b555280073e8125ada4d34abaa6d]
entity JSONL--><polygon fill="#FEF3C7" filter="url(#f1mzsf92gu4uj0)" points="239,761.9258,239,820.0617,455,820.0617,455,771.9258,445,761.9258,239,761.9258" style="stroke: #D1D5DB; stroke-width: 1.5;"/><path d="M445,761.9258 L445,771.9258 L455,771.9258 " fill="#FEF3C7" style="stroke: #D1D5DB; stroke-width: 1.5;"/><text fill="#333333" font-family="sans-serif" font-size="14" lengthAdjust="spacingAndGlyphs" textLength="196" x="249" y="786.8918">&lt;ts&gt;-&lt;kind&gt;-&lt;id&gt;[-label].jsonl</text><text fill="#333333" font-family="sans-serif" font-size="14" lengthAdjust="spacingAndGlyphs" textLength="155" x="249" y="805.9597">append-only action log</text><!--MD5=[8d438533cbacff6e8cb796869821086a]
entity FAILPNG--><polygon fill="#FEF3C7" filter="url(#f1mzsf92gu4uj0)" points="1074,761.9258,1074,820.0617,1304,820.0617,1304,771.9258,1294,761.9258,1074,761.9258" style="stroke: #D1D5DB; stroke-width: 1.5;"/><path d="M1294,761.9258 L1294,771.9258 L1304,771.9258 " fill="#FEF3C7" style="stroke: #D1D5DB; stroke-width: 1.5;"/><text fill="#333333" font-family="sans-serif" font-size="14" lengthAdjust="spacingAndGlyphs" textLength="119" x="1084" y="786.8918">&lt;id&gt;-fail-&lt;ts&gt;.png</text><text fill="#333333" font-family="sans-serif" font-size="14" lengthAdjust="spacingAndGlyphs" textLength="210" x="1084" y="805.9597">(diagnostic_bundle screenshot)</text><!--MD5=[9d11b12c9156580d0d4567a2a97b1787]
entity FAILHTML--><polygon fill="#FEF3C7" filter="url(#f1mzsf92gu4uj0)" points="489.5,761.9258,489.5,820.0617,720.5,820.0617,720.5,771.9258,710.5,761.9258,489.5,761.9258" style="stroke: #D1D5DB; stroke-width: 1.5;"/><path d="M710.5,761.9258 L710.5,771.9258 L720.5,771.9258 " fill="#FEF3C7" style="stroke: #D1D5DB; stroke-width: 1.5;"/><text fill="#333333" font-family="sans-serif" font-size="14" lengthAdjust="spacingAndGlyphs" textLength="123" x="499.5" y="786.8918">&lt;id&gt;-fail-&lt;ts&gt;.html</text><text fill="#333333" font-family="sans-serif" font-size="14" lengthAdjust="spacingAndGlyphs" textLength="211" x="499.5" y="805.9597">(diagnostic_bundle HTML body)</text><!--MD5=[79486f8f65364b3c5d3b2147b8c60f88]
entity TRACEZIP--><polygon fill="#FEF3C7" filter="url(#f1mzsf92gu4uj0)" points="755.5,752.3858,755.5,829.5896,1038.5,829.5896,1038.5,762.3858,1028.5,752.3858,755.5,752.3858" style="stroke: #D1D5DB; stroke-width: 1.5;"/><path d="M1028.5,752.3858 L1028.5,762.3858 L1038.5,762.3858 " fill="#FEF3C7" style="stroke: #D1D5DB; stroke-width: 1.5;"/><text fill="#333333" font-family="sans-serif" font-size="14" lengthAdjust="spacingAndGlyphs" textLength="99" x="765.5" y="777.3518">&lt;log&gt;.trace.zip</text><text fill="#333333" font-family="sans-serif" font-size="14" lengthAdjust="spacingAndGlyphs" textLength="94" x="765.5" y="796.4197">(if trace=True;</text><text fill="#333333" font-family="sans-serif" font-size="14" lengthAdjust="spacingAndGlyphs" textLength="263" x="765.5" y="815.4876">show with `npx playwright show-trace`)</text><!--MD5=[ec0255c908d45e8ef8c9c32ce86dc824]
entity WEBM--><polygon fill="#FEF3C7" filter="url(#f1mzsf92gu4uj0)" points="1339,761.9258,1339,820.0617,1537,820.0617,1537,771.9258,1527,761.9258,1339,761.9258" style="stroke: #D1D5DB; stroke-width: 1.5;"/><path d="M1527,761.9258 L1527,771.9258 L1537,771.9258 " fill="#FEF3C7" style="stroke: #D1D5DB; stroke-width: 1.5;"/><text fill="#333333" font-family="sans-serif" font-size="14" lengthAdjust="spacingAndGlyphs" textLength="94" x="1349" y="786.8918">&lt;hash&gt;.webm</text><text fill="#333333" font-family="sans-serif" font-size="14" lengthAdjust="spacingAndGlyphs" textLength="178" x="1349" y="805.9597">(only if record_video=True)</text><!--MD5=[9d2c3ea66b6e1bef3b83cb5fc491aae6]
entity DLFILES--><polygon fill="#FEF3C7" filter="url(#f1mzsf92gu4uj0)" points="1593,761.9258,1593,820.0617,1783,820.0617,1783,771.9258,1773,761.9258,1593,761.9258" style="stroke: #D1D5DB; stroke-width: 1.5;"/><path d="M1773,761.9258 L1773,771.9258 L1783,771.9258 " fill="#FEF3C7" style="stroke: #D1D5DB; stroke-width: 1.5;"/><text fill="#333333" font-family="sans-serif" font-size="14" lengthAdjust="spacingAndGlyphs" textLength="107" x="1603" y="786.8918">###-&lt;filename&gt;</text><text fill="#333333" font-family="sans-serif" font-size="14" lengthAdjust="spacingAndGlyphs" textLength="170" x="1603" y="805.9597">(per page.on('download'))</text><!--MD5=[d8d718e625570913c324dc29ecb5530c]
entity ARTRUN--><polygon fill="#FEF3C7" filter="url(#f1mzsf92gu4uj0)" points="1838.5,752.3858,1838.5,829.5896,2061.5,829.5896,2061.5,762.3858,2051.5,752.3858,1838.5,752.3858" style="stroke: #D1D5DB; stroke-width: 1.5;"/><path d="M2051.5,752.3858 L2051.5,762.3858 L2061.5,762.3858 " fill="#FEF3C7" style="stroke: #D1D5DB; stroke-width: 1.5;"/><text fill="#333333" font-family="sans-serif" font-size="14" lengthAdjust="spacingAndGlyphs" textLength="203" x="1848.5" y="777.3518">artifact.json + runs/run_####/</text><text fill="#333333" font-family="sans-serif" font-size="14" lengthAdjust="spacingAndGlyphs" textLength="198" x="1848.5" y="796.4197">(macro_artifact_run evidence;</text><text fill="#333333" font-family="sans-serif" font-size="14" lengthAdjust="spacingAndGlyphs" textLength="187" x="1848.5" y="815.4876">kept by octowright cleanup)</text><!--MD5=[31872b5afda0fdbcf9b700cc1e6a6cc0]
entity GOLDFILE--><polygon fill="#FEF3C7" filter="url(#f1mzsf92gu4uj0)" points="2157,761.9258,2157,820.0617,2339,820.0617,2339,771.9258,2329,761.9258,2157,761.9258" style="stroke: #D1D5DB; stroke-width: 1.5;"/><path d="M2329,761.9258 L2329,771.9258 L2339,771.9258 " fill="#FEF3C7" style="stroke: #D1D5DB; stroke-width: 1.5;"/><text fill="#333333" font-family="sans-serif" font-size="14" lengthAdjust="spacingAndGlyphs" textLength="77" x="2167" y="786.8918">&lt;slug&gt;.json</text><text fill="#333333" font-family="sans-serif" font-size="14" lengthAdjust="spacingAndGlyphs" textLength="162" x="2167" y="805.9597">(aria-tree baseline + url)</text><!--MD5=[49bec59b0c893dfb6828acd5490216ab]
entity MACFILE--><polygon fill="#FEF3C7" filter="url(#f1mzsf92gu4uj0)" points="1401.5,170.0158,1401.5,228.1517,1602.5,228.1517,1602.5,180.0158,1592.5,170.0158,1401.5,170.0158" style="stroke: #D1D5DB; stroke-width: 1.5;"/><path d="M1592.5,170.0158 L1592.5,180.0158 L1602.5,180.0158 " fill="#FEF3C7" style="stroke: #D1D5DB; stroke-width: 1.5;"/><text fill="#333333" font-family="sans-serif" font-size="14" lengthAdjust="spacingAndGlyphs" textLength="77" x="1411.5" y="194.9818">&lt;slug&gt;.json</text><text fill="#333333" font-family="sans-serif" font-size="14" lengthAdjust="spacingAndGlyphs" textLength="181" x="1411.5" y="214.0497">(macro body + parameters)</text><!--MD5=[9a99b39039170ad644308d93ca7da160]
entity SCNFILE--><polygon fill="#FEF3C7" filter="url(#f1mzsf92gu4uj0)" points="1694,170.0158,1694,228.1517,1914,228.1517,1914,180.0158,1904,170.0158,1694,170.0158" style="stroke: #D1D5DB; stroke-width: 1.5;"/><path d="M1904,170.0158 L1904,180.0158 L1914,180.0158 " fill="#FEF3C7" style="stroke: #D1D5DB; stroke-width: 1.5;"/><text fill="#333333" font-family="sans-serif" font-size="14" lengthAdjust="spacingAndGlyphs" textLength="132" x="1704" y="194.9818">&lt;name&gt;.yaml or .py</text><text fill="#333333" font-family="sans-serif" font-size="14" lengthAdjust="spacingAndGlyphs" textLength="200" x="1704" y="214.0497">(declarative or programmatic)</text><!--MD5=[8f0a4a045a9579ec493687d4be39cf18]
entity FFMPEG--><path d="M1407.5143,1011.7544 C1412.1386,1002.9076 1419.6797,1003.2683 1424.2274,1011.8279 C1428.1341,1004.6497 1433.4162,1005.3096 1438.014,1011.0928 C1443.7731,1003.2275 1450.1527,1004.2339 1455.5298,1011.534 C1460.0527,1003.5688 1466.5088,1004.1707 1470.4886,1012.0469 C1481.3774,1012.5658 1483.2833,1018.5368 1479.2397,1027.5077 C1484.8205,1037.2174 1482.2002,1043.8866 1470.3658,1044.503 C1468.0729,1052.9271 1460.324,1053.1936 1455.0608,1047.7908 C1451.929,1057.9733 1446.0212,1059.1166 1438.4245,1052.1128 C1432.1386,1058.1801 1427.454,1057.4607 1423.328,1049.7468 C1415.6987,1054.8637 1410.3008,1054.3478 1407.1042,1044.8321 C1397.4067,1041.7365 1394.9898,1035.997 1402.6529,1028.2431 C1397.0615,1021.4093 1397.3764,1013.9506 1407.5143,1011.7544 " fill="#FEFECE" style="stroke: #000000; stroke-width: 1.5;"/><text fill="#333333" font-family="sans-serif" font-size="14" lengthAdjust="spacingAndGlyphs" textLength="49" x="1413.5" y="1032.5618">ffmpeg</text><!--MD5=[9a358346afa5557d98175efc5ba3fa2b]
entity FRAMES--><polygon fill="#FEF3C7" filter="url(#f1mzsf92gu4uj0)" points="1338.5,1201.3158,1338.5,1259.4517,1537.5,1259.4517,1537.5,1211.3158,1527.5,1201.3158,1338.5,1201.3158" style="stroke: #D1D5DB; stroke-width: 1.5;"/><path d="M1527.5,1201.3158 L1527.5,1211.3158 L1537.5,1211.3158 " fill="#FEF3C7" style="stroke: #D1D5DB; stroke-width: 1.5;"/><text fill="#333333" font-family="sans-serif" font-size="14" lengthAdjust="spacingAndGlyphs" textLength="179" x="1348.5" y="1226.2818">.frame-cache/&lt;id&gt;/&lt;t&gt;.png</text><text fill="#333333" font-family="sans-serif" font-size="14" lengthAdjust="spacingAndGlyphs" textLength="152" x="1348.5" y="1245.3497">(extracted on demand)</text><!--MD5=[17e224c45b24f9a46b14663e6d5daf80]
entity JUNIT--><polygon fill="#FEF3C7" filter="url(#f1mzsf92gu4uj0)" points="1572.5,1182.2458,1572.5,1278.5175,1815.5,1278.5175,1815.5,1192.2458,1805.5,1182.2458,1572.5,1182.2458" style="stroke: #D1D5DB; stroke-width: 1.5;"/><path d="M1805.5,1182.2458 L1805.5,1192.2458 L1815.5,1192.2458 " fill="#FEF3C7" style="stroke: #D1D5DB; stroke-width: 1.5;"/><text fill="#333333" font-family="sans-serif" font-size="14" lengthAdjust="spacingAndGlyphs" textLength="198" x="1582.5" y="1207.2118">octowright-report-&lt;ts&gt;.xml or</text><text fill="#333333" font-family="sans-serif" font-size="14" lengthAdjust="spacingAndGlyphs" textLength="223" x="1582.5" y="1226.2797">&lt;artifacts&gt;/octowright-report.xml</text><text fill="#333333" font-family="sans-serif" font-size="14" lengthAdjust="spacingAndGlyphs" textLength="182" x="1582.5" y="1245.3476">(JUnit XML; + &lt;stem&gt;.webm</text><text fill="#333333" font-family="sans-serif" font-size="14" lengthAdjust="spacingAndGlyphs" textLength="132" x="1582.5" y="1264.4155">with --record-video)</text><!--MD5=[4b29d362ad28d7f17616e23d382d0a3e]
entity TESTRUNNER--><rect fill="#F3F4F6" filter="url(#f1mzsf92gu4uj0)" height="39.0679" style="stroke: #D1D5DB; stroke-width: 1.5;" width="239" x="1566.5" y="1007.5958"/><rect fill="#F3F4F6" height="5" style="stroke: #D1D5DB; stroke-width: 1.5;" width="10" x="1561.5" y="1012.5958"/><rect fill="#F3F4F6" height="5" style="stroke: #D1D5DB; stroke-width: 1.5;" width="10" x="1561.5" y="1036.6638"/><text fill="#333333" font-family="sans-serif" font-size="14" lengthAdjust="spacingAndGlyphs" textLength="219" x="1576.5" y="1032.5618">runner.py / scenario_run_as_test</text><!--MD5=[9bfe7dfb833883a34b3e5394ec067d2c]
entity SESSION--><rect fill="#F3F4F6" filter="url(#f1mzsf92gu4uj0)" height="39.0679" style="stroke: #D1D5DB; stroke-width: 1.5;" width="126" x="1446" y="405.7358"/><rect fill="#F3F4F6" height="5" style="stroke: #D1D5DB; stroke-width: 1.5;" width="10" x="1441" y="410.7358"/><rect fill="#F3F4F6" height="5" style="stroke: #D1D5DB; stroke-width: 1.5;" width="10" x="1441" y="434.8038"/><text fill="#333333" font-family="sans-serif" font-size="14" lengthAdjust="spacingAndGlyphs" textLength="106" x="1456" y="430.7018">BrowserSession</text><!--MD5=[37b79914fed7a6a60273b642142097ae]
entity CLASSIFIER--><rect fill="#F3F4F6" filter="url(#f1mzsf92gu4uj0)" height="58.1358" style="stroke: #D1D5DB; stroke-width: 1.5;" width="235" x="2775.5" y="170.0158"/><rect fill="#F3F4F6" height="5" style="stroke: #D1D5DB; stroke-width: 1.5;" width="10" x="2770.5" y="175.0158"/><rect fill="#F3F4F6" height="5" style="stroke: #D1D5DB; stroke-width: 1.5;" width="10" x="2770.5" y="218.1517"/><text fill="#333333" font-family="sans-serif" font-size="14" lengthAdjust="spacingAndGlyphs" textLength="177" x="2785.5" y="194.9818">Macro argument classifier</text><text fill="#333333" font-family="sans-serif" font-size="14" lengthAdjust="spacingAndGlyphs" textLength="215" x="2785.5" y="214.0497">credential / identity / contextual</text><!--MD5=[1c5866089dcd9c6978499d2874aad87d]
entity POLICY--><rect fill="#F3F4F6" filter="url(#f1mzsf92gu4uj0)" height="58.1358" style="stroke: #D1D5DB; stroke-width: 1.5;" width="235" x="2461.5" y="396.2058"/><rect fill="#F3F4F6" height="5" style="stroke: #D1D5DB; stroke-width: 1.5;" width="10" x="2456.5" y="401.2058"/><rect fill="#F3F4F6" height="5" style="stroke: #D1D5DB; stroke-width: 1.5;" width="10" x="2456.5" y="444.3417"/><text fill="#333333" font-family="sans-serif" font-size="14" lengthAdjust="spacingAndGlyphs" textLength="121" x="2471.5" y="421.1718">Blind-scrub policy</text><text fill="#333333" font-family="sans-serif" font-size="14" lengthAdjust="spacingAndGlyphs" textLength="215" x="2471.5" y="440.2397">credentials (default) / all / reject</text><!--MD5=[f393f4a0d042e6daf83e0f618e21ba55]
entity SCRUBBER--><rect fill="#F3F4F6" filter="url(#f1mzsf92gu4uj0)" height="96.2717" style="stroke: #D1D5DB; stroke-width: 1.5;" width="321" x="2394.5" y="742.8558"/><rect fill="#F3F4F6" height="5" style="stroke: #D1D5DB; stroke-width: 1.5;" width="10" x="2389.5" y="747.8558"/><rect fill="#F3F4F6" height="5" style="stroke: #D1D5DB; stroke-width: 1.5;" width="10" x="2389.5" y="829.1275"/><text fill="#333333" font-family="sans-serif" font-size="14" lengthAdjust="spacingAndGlyphs" textLength="121" x="2404.5" y="767.8218">SensitiveRecorder</text><text fill="#333333" font-family="sans-serif" font-size="14" lengthAdjust="spacingAndGlyphs" textLength="207" x="2404.5" y="786.8897">policy-admitted session ledger</text><text fill="#333333" font-family="sans-serif" font-size="14" lengthAdjust="spacingAndGlyphs" textLength="269" x="2404.5" y="805.9576">(identity/context values: open runs only;</text><text fill="#333333" font-family="sans-serif" font-size="14" lengthAdjust="spacingAndGlyphs" textLength="301" x="2404.5" y="825.0255">persistent values capped → scrub_saturated)</text><!--MD5=[3af8f3f4bb4f8b641df03db57e3efe5b]
entity STRUCTURED--><rect fill="#F3F4F6" filter="url(#f1mzsf92gu4uj0)" height="58.1358" style="stroke: #D1D5DB; stroke-width: 1.5;" width="200" x="3106" y="396.2058"/><rect fill="#F3F4F6" height="5" style="stroke: #D1D5DB; stroke-width: 1.5;" width="10" x="3101" y="401.2058"/><rect fill="#F3F4F6" height="5" style="stroke: #D1D5DB; stroke-width: 1.5;" width="10" x="3101" y="444.3417"/><text fill="#333333" font-family="sans-serif" font-size="14" lengthAdjust="spacingAndGlyphs" textLength="165" x="3116" y="421.1718">Structured args / results</text><text fill="#333333" font-family="sans-serif" font-size="14" lengthAdjust="spacingAndGlyphs" textLength="180" x="3116" y="440.2397">all classified keys redacted</text><path d="M6,969.0058 L6,1085.2419 L402,1085.2419 L402,979.0058 L392,969.0058 L6,969.0058 " fill="#F9FAFB" filter="url(#f1mzsf92gu4uj0)" style="stroke: #D1D5DB; stroke-width: 1.0;"/><path d="M392,969.0058 L392,979.0058 L402,979.0058 L392,969.0058 " fill="#F9FAFB" style="stroke: #D1D5DB; stroke-width: 1.0;"/><text fill="#333333" font-family="sans-serif" font-size="13" lengthAdjust="spacingAndGlyphs" textLength="226" x="12" y="987.9029">Default: &lt;octowright-state&gt;/sessions/.</text><text fill="#333333" font-family="sans-serif" font-size="13" lengthAdjust="spacingAndGlyphs" textLength="375" x="12" y="1005.6089">OCTOWRIGHT_RECORDINGS overrides the process-global root.</text><text fill="#333333" font-family="sans-serif" font-size="13" lengthAdjust="spacingAndGlyphs" textLength="320" x="12" y="1023.3149">Per-pool: BrowserPool(recordings_dir=...) reroutes the</text><text fill="#333333" font-family="sans-serif" font-size="13" lengthAdjust="spacingAndGlyphs" textLength="348" x="12" y="1041.0209">WRITE side (JSONL / video / HAR / downloads) for one pool</text><text fill="#333333" font-family="sans-serif" font-size="13" lengthAdjust="spacingAndGlyphs" textLength="336" x="12" y="1058.7269">— the dashboard/discovery/cleanup readers still use the</text><text fill="#333333" font-family="sans-serif" font-size="13" lengthAdjust="spacingAndGlyphs" textLength="364" x="12" y="1076.4329">global root. For concurrent-pools-in-one-process embedders.</text><path d="M2731,367.1558 L2731,421.2658 L2696.92,425.2658 L2731,429.2658 L2731,483.3919 A0,0 0 0 0 2731,483.3919 L3071,483.3919 A0,0 0 0 0 3071,483.3919 L3071,377.1558 L3061,367.1558 L2731,367.1558 A0,0 0 0 0 2731,367.1558 " fill="#F9FAFB" filter="url(#f1mzsf92gu4uj0)" style="stroke: #D1D5DB; stroke-width: 1.0;"/><path d="M3061,367.1558 L3061,377.1558 L3071,377.1558 L3061,367.1558 " fill="#F9FAFB" style="stroke: #D1D5DB; stroke-width: 1.0;"/><text fill="#333333" font-family="sans-serif" font-size="13" lengthAdjust="spacingAndGlyphs" textLength="282" x="2737" y="386.0529">reject stops before browser/artifact side effects.</text><text fill="#333333" font-family="sans-serif" font-size="13" lengthAdjust="spacingAndGlyphs" textLength="319" x="2737" y="403.7589">credentials keeps short/common identity values from</text><text fill="#333333" font-family="sans-serif" font-size="13" lengthAdjust="spacingAndGlyphs" textLength="284" x="2737" y="421.4649">corrupting unrelated selectors, URLs and prose.</text><text fill="#333333" font-family="sans-serif" font-size="13" lengthAdjust="spacingAndGlyphs" textLength="308" x="2737" y="439.1709">all preserves the legacy maximum-privacy behavior.</text><text fill="#333333" font-family="sans-serif" font-size="13" lengthAdjust="spacingAndGlyphs" textLength="302" x="2737" y="456.8769">A screenshot whose page renders a classified value</text><text fill="#333333" font-family="sans-serif" font-size="13" lengthAdjust="spacingAndGlyphs" textLength="319" x="2737" y="474.5829">is refused, naming surface/tier/arg — never the value.</text><path d="M1607,402.5658 L1607,447.9779 L1861,447.9779 L1861,412.5658 L1851,402.5658 L1607,402.5658 " fill="#F9FAFB" filter="url(#f1mzsf92gu4uj0)" style="stroke: #D1D5DB; stroke-width: 1.0;"/><path d="M1851,402.5658 L1851,412.5658 L1861,412.5658 L1851,402.5658 " fill="#F9FAFB" style="stroke: #D1D5DB; stroke-width: 1.0;"/><text fill="#333333" font-family="sans-serif" font-size="13" lengthAdjust="spacingAndGlyphs" textLength="227" x="1613" y="421.4629">Default: &lt;octowright-config&gt;/macros/.</text><text fill="#333333" font-family="sans-serif" font-size="13" lengthAdjust="spacingAndGlyphs" textLength="233" x="1613" y="439.1689">OCTOWRIGHT_MACROS_DIR overrides.</text><!--MD5=[05fd2b73d9ca109d3aebd5553eeeb5c4]
link CLASSIFIER to POLICY--><path d="M2853.23,228.4758 C2794.64,270.3058 2685.46,348.2658 2624.01,392.1358 " fill="none" id="CLASSIFIER-&gt;POLICY" style="stroke: #2563EB; stroke-width: 1.0;"/><polygon fill="#2563EB" points="2620.17,394.8758,2629.8166,392.89,2624.2358,391.9656,2625.1602,386.3848,2620.17,394.8758" style="stroke: #2563EB; stroke-width: 1.0;"/><text fill="#333333" font-family="sans-serif" font-size="13" lengthAdjust="spacingAndGlyphs" textLength="93" x="2762.41" y="315.0529">classified leaves</text><text fill="#333333" font-family="sans-serif" font-size="13" lengthAdjust="spacingAndGlyphs" textLength="125" x="2746.41" y="332.7589">with value-free paths</text><!--MD5=[1ca933bf7779def782ee64139a4f6e86]
link CLASSIFIER to STRUCTURED--><path d="M2932.64,228.4758 C2991.04,270.3058 3099.88,348.2658 3161.14,392.1358 " fill="none" id="CLASSIFIER-&gt;STRUCTURED" style="stroke: #2563EB; stroke-width: 1.0;"/><polygon fill="#2563EB" points="3164.96,394.8758,3159.9698,386.3848,3160.8942,391.9656,3155.3134,392.89,3164.96,394.8758" style="stroke: #2563EB; stroke-width: 1.0;"/><text fill="#333333" font-family="sans-serif" font-size="13" lengthAdjust="spacingAndGlyphs" textLength="95" x="3078.53" y="315.0529">key provenance</text><text fill="#333333" font-family="sans-serif" font-size="13" lengthAdjust="spacingAndGlyphs" textLength="50" x="3101.03" y="332.7589">(all tiers)</text><!--MD5=[9e96bc9198f65bf163aed1ae9a440550]
link POLICY to SCRUBBER--><path d="M2577.12,454.8158 C2573.12,515.4058 2563.73,657.7558 2558.56,736.0358 " fill="none" id="POLICY-&gt;SCRUBBER" style="stroke: #2563EB; stroke-width: 1.0;"/><polygon fill="#2563EB" points="2558.23,740.9758,2562.8132,732.2584,2558.5588,735.9867,2554.8305,731.7323,2558.23,740.9758" style="stroke: #2563EB; stroke-width: 1.0;"/><text fill="#333333" font-family="sans-serif" font-size="13" lengthAdjust="spacingAndGlyphs" textLength="125" x="2574.2" y="546.2829">admitted values only</text><!--MD5=[233a25350dfd08ebe8fe604f8a3bd064]
link SESSION to SCRUBBER--><path d="M1528.5,445.2158 C1543.65,458.5958 1565.91,475.4858 1589,483.3858 C1669.27,510.8558 2277.08,473.5758 2352,513.3858 C2399.19,538.4658 2479.97,664.2958 2524.06,737.3058 " fill="none" id="SESSION-&gt;SCRUBBER" style="stroke: #2563EB; stroke-width: 1.0;"/><polygon fill="#2563EB" points="2526.39,741.1758,2525.1511,731.4052,2523.8007,736.8985,2518.3074,735.5481,2526.39,741.1758" style="stroke: #2563EB; stroke-width: 1.0;"/><text fill="#333333" font-family="sans-serif" font-size="13" lengthAdjust="spacingAndGlyphs" textLength="146" x="2405.19" y="546.2829">every recorder.record(...)</text><!--MD5=[b040bc9e52363f732a2450b3a1d1db16]
link SCRUBBER to JSONL--><path d="M2524.78,742.8058 C2490.53,693.2458 2429.65,619.0158 2355,587.7358 C2258.51,547.3158 563.31,536.6958 472,587.7358 C407.67,623.6958 372.39,707.8258 356.84,755.8158 " fill="none" id="SCRUBBER-&gt;JSONL" style="stroke: #2563EB; stroke-width: 1.0;"/><polygon fill="#2563EB" points="355.41,760.3258,361.9514,752.9631,356.9266,755.5614,354.3283,750.5366,355.41,760.3258" style="stroke: #2563EB; stroke-width: 1.0;"/><text fill="#333333" font-family="sans-serif" font-size="13" lengthAdjust="spacingAndGlyphs" textLength="142" x="1505" y="546.2829">blind-scrub before write</text><!--MD5=[97a1d019deef6bab84eb8ea88e205038]
link SESSION to WEBM--><path d="M1445.52,438.5358 C1404.01,450.2058 1352.86,472.3358 1327,513.3858 C1313.97,534.0658 1317.65,545.8058 1327,568.3858 C1328.92,573.0358 1332.09,572.2858 1335,576.3858 C1376.31,634.5858 1408.9,711.9058 1425.64,755.7658 " fill="none" id="SESSION-&gt;WEBM" style="stroke: #2563EB; stroke-width: 1.0;"/><polygon fill="#2563EB" points="1427.36,760.3158,1427.909,750.4823,1425.5872,755.6407,1420.4288,753.3188,1427.36,760.3158" style="stroke: #2563EB; stroke-width: 1.0;"/><text fill="#333333" font-family="sans-serif" font-size="13" lengthAdjust="spacingAndGlyphs" textLength="167" x="1328" y="546.2829">Playwright record_video_dir</text><!--MD5=[b89efd2ad3b10e3660f74d8f5dbf3ac1]
link SESSION to DLFILES--><path d="M1533.19,445.0458 C1548.72,456.7258 1569.55,471.6858 1589,483.3858 C1614.54,498.7658 1631.59,489.1858 1649,513.3858 C1701.63,586.5458 1698.4,699.2558 1692.68,755.5358 " fill="none" id="SESSION-&gt;DLFILES" style="stroke: #2563EB; stroke-width: 1.0;"/><polygon fill="#2563EB" points="1692.17,760.2758,1697.0991,751.7492,1692.6986,755.3039,1689.144,750.9034,1692.17,760.2758" style="stroke: #2563EB; stroke-width: 1.0;"/><text fill="#333333" font-family="sans-serif" font-size="13" lengthAdjust="spacingAndGlyphs" textLength="123" x="1677.23" y="546.2829">page.on('download')</text><!--MD5=[405735c301db6ef512e88353a23736e1]
link SESSION to FAILPNG--><path d="M1445.52,434.1958 C1360.46,446.2758 1216.5,472.3058 1185,513.3858 C1130.45,584.5458 1157.59,699.0258 1176.29,755.7958 " fill="none" id="SESSION-&gt;FAILPNG" style="stroke: #2563EB; stroke-width: 1.0;"/><polygon fill="#2563EB" points="1177.81,760.3358,1178.7498,750.5319,1176.2246,755.5939,1171.1626,753.0686,1177.81,760.3358" style="stroke: #2563EB; stroke-width: 1.0;"/><text fill="#333333" font-family="sans-serif" font-size="13" lengthAdjust="spacingAndGlyphs" textLength="124" x="1186" y="546.2829">on macro_run failure</text><!--MD5=[7af8ee5e5486438be3cf5a3dad93f337]
link SESSION to FAILHTML--><path d="M1445.82,428.8958 C1262.72,437.0658 741.05,464.4458 683,513.3858 C611.05,574.0558 602.78,695.4858 603.41,755.2058 " fill="none" id="SESSION-&gt;FAILHTML" style="stroke: #2563EB; stroke-width: 1.0;"/><polygon fill="#2563EB" points="603.49,759.9658,607.3351,750.8986,603.4043,754.9666,599.3363,751.0357,603.49,759.9658" style="stroke: #2563EB; stroke-width: 1.0;"/><text fill="#333333" font-family="sans-serif" font-size="13" lengthAdjust="spacingAndGlyphs" textLength="263" x="684" y="546.2829">on macro_run failure (≥0.4 KB preview inline)</text><!--MD5=[beab68f750366952753755f32a503ada]
link SESSION to TRACEZIP--><path d="M1445.96,429.4358 C1325.55,436.6758 1068.86,458.3058 1002,513.3858 C931.09,571.8058 908.01,683.6058 900.54,745.6858 " fill="none" id="SESSION-&gt;TRACEZIP" style="stroke: #2563EB; stroke-width: 1.0;"/><polygon fill="#2563EB" points="900,750.4058,905.0016,741.9215,900.571,745.4386,897.0539,741.008,900,750.4058" style="stroke: #2563EB; stroke-width: 1.0;"/><text fill="#333333" font-family="sans-serif" font-size="13" lengthAdjust="spacingAndGlyphs" textLength="148" x="1003" y="546.2829">on context.tracing.stop()</text><!--MD5=[9107a44454613a300be1d6efabc8f3cc]
link SESSION to GOLDFILE--><path d="M1528.9,445.2858 C1544.08,458.5058 1566.2,475.1858 1589,483.3858 C1677.88,515.3658 1931.25,466.0758 2013,513.3858 C2038.5,528.1458 2026.25,550.9558 2050,568.3858 C2060.09,575.7958 2066.61,569.4058 2077,576.3858 C2147.27,623.6358 2202.59,708.6458 2229.71,755.9258 " fill="none" id="SESSION-&gt;GOLDFILE" style="stroke: #2563EB; stroke-width: 1.0;"/><polygon fill="#2563EB" points="2232.13,760.1858,2231.1795,750.383,2229.6678,755.8341,2224.2167,754.3224,2232.13,760.1858" style="stroke: #2563EB; stroke-width: 1.0;"/><text fill="#333333" font-family="sans-serif" font-size="13" lengthAdjust="spacingAndGlyphs" textLength="170" x="2051" y="546.2829">golden_save (aria_snapshot)</text><!--MD5=[3bfa355334d03ac46c57e9d19190c2c0]
link GOLDFILE to SESSION--><path d="M2256.34,761.4858 C2270.93,705.0158 2293.49,578.7258 2226,513.3858 C2175.09,464.1058 1655.95,506.5858 1589,483.3858 C1568.28,476.2058 1548.21,461.8458 1533.35,449.3258 " fill="none" id="GOLDFILE-&gt;SESSION" style="stroke: #2563EB; stroke-width: 1.0;"/><polygon fill="#2563EB" points="1529.67,446.1458,1533.8643,455.057,1533.4532,449.4151,1539.095,449.0039,1529.67,446.1458" style="stroke: #2563EB; stroke-width: 1.0;"/><text fill="#333333" font-family="sans-serif" font-size="13" lengthAdjust="spacingAndGlyphs" textLength="84" x="2261.05" y="537.2829">golden_assert</text><text fill="#333333" font-family="sans-serif" font-size="13" lengthAdjust="spacingAndGlyphs" textLength="63" x="2271.55" y="554.9889">(diff_trees)</text><!--MD5=[f428fc8aeaf54117d39e2ebf2f8aa649]
link SESSION to ARTRUN--><path d="M1529.39,445.1158 C1544.64,458.0858 1566.63,474.5158 1589,483.3858 C1680.72,519.7858 1728.54,456.2558 1809,513.3858 C1829.8,528.1558 1896.95,672.3558 1930.52,746.4758 " fill="none" id="SESSION-&gt;ARTRUN" style="stroke: #2563EB; stroke-width: 1.0;"/><polygon fill="#2563EB" points="1932.45,750.7358,1932.3929,740.8872,1930.3928,746.1786,1925.1013,744.1786,1932.45,750.7358" style="stroke: #2563EB; stroke-width: 1.0;"/><text fill="#333333" font-family="sans-serif" font-size="13" lengthAdjust="spacingAndGlyphs" textLength="113" x="1868.15" y="528.2829">macro_artifact_run</text><text fill="#333333" font-family="sans-serif" font-size="13" lengthAdjust="spacingAndGlyphs" textLength="153" x="1848.15" y="545.9889">(one run ledger, admitted</text><text fill="#333333" font-family="sans-serif" font-size="13" lengthAdjust="spacingAndGlyphs" textLength="158" x="1845.65" y="563.6949">before anything is written)</text><!--MD5=[cf38357e658632e230a15431fd56e824]
link JSONL to MACFILE--><path d="M356.57,761.7258 C373.2,716.5858 411.57,628.0258 472,576.3858 C750.79,338.1358 1193.2,245.3758 1395.15,214.0458 " fill="none" id="JSONL-&gt;MACFILE" style="stroke: #2563EB; stroke-width: 1.0; stroke-dasharray: 7.0,7.0;"/><polygon fill="#2563EB" points="1399.85,213.3258,1390.3481,210.7347,1394.9076,214.0829,1391.5594,218.6424,1399.85,213.3258" style="stroke: #2563EB; stroke-width: 1.0;"/><text fill="#333333" font-family="sans-serif" font-size="13" lengthAdjust="spacingAndGlyphs" textLength="136" x="828.32" y="421.6629">macro_save snapshots</text><text fill="#333333" font-family="sans-serif" font-size="13" lengthAdjust="spacingAndGlyphs" textLength="68" x="862.32" y="439.3689">a recording</text><!--MD5=[0361bc873acf2dabb35c1f9f1caba29a]
link MACFILE to SESSION--><path d="M1502.89,228.4758 C1504.26,272.5458 1506.89,356.6958 1508.21,398.8658 " fill="none" id="MACFILE-&gt;SESSION" style="stroke: #2563EB; stroke-width: 1.0;"/><polygon fill="#2563EB" points="1508.36,403.7458,1512.0753,394.6246,1508.2029,398.7483,1504.0793,394.8759,1508.36,403.7458" style="stroke: #2563EB; stroke-width: 1.0;"/><text fill="#333333" font-family="sans-serif" font-size="13" lengthAdjust="spacingAndGlyphs" textLength="111" x="1507.13" y="315.0529">macro_run replays</text><text fill="#333333" font-family="sans-serif" font-size="13" lengthAdjust="spacingAndGlyphs" textLength="81" x="1522.13" y="332.7589">into a session</text><!--MD5=[5ed53e8dd3c304a3461e08e76bda069b]
link SCNFILE to SESSION--><path d="M1767.92,228.4158 C1732.28,256.3058 1676.14,299.9958 1627,337.1558 C1597.73,359.2858 1564.02,384.1058 1540.15,401.5758 " fill="none" id="SCNFILE-&gt;SESSION" style="stroke: #2563EB; stroke-width: 1.0;"/><polygon fill="#2563EB" points="1536.13,404.5158,1545.7557,402.431,1540.1656,401.564,1541.0327,395.974,1536.13,404.5158" style="stroke: #2563EB; stroke-width: 1.0;"/><text fill="#333333" font-family="sans-serif" font-size="13" lengthAdjust="spacingAndGlyphs" textLength="92" x="1671.96" y="315.0529">scenario_start /</text><text fill="#333333" font-family="sans-serif" font-size="13" lengthAdjust="spacingAndGlyphs" textLength="89" x="1673.46" y="332.7589">verify / fixtures</text><!--MD5=[85c53ada760e6851df990a442ecfe118]
link WEBM to FFMPEG--><path d="M1438,820.2358 C1438,864.6358 1438,950.3858 1438,995.9558 " fill="none" id="WEBM-&gt;FFMPEG" style="stroke: #2563EB; stroke-width: 1.0;"/><polygon fill="#2563EB" points="1438,1000.8558,1442,991.8558,1438,995.8558,1434,991.8558,1438,1000.8558" style="stroke: #2563EB; stroke-width: 1.0;"/><!--MD5=[e42bd838391bfa1daafc95085ad9a8c4]
link FFMPEG to FRAMES--><path d="M1438,1052.0058 C1438,1087.3858 1438,1153.9358 1438,1194.6958 " fill="none" id="FFMPEG-&gt;FRAMES" style="stroke: #2563EB; stroke-width: 1.0;"/><polygon fill="#2563EB" points="1438,1199.4958,1442,1190.4958,1438,1194.4958,1434,1190.4958,1438,1199.4958" style="stroke: #2563EB; stroke-width: 1.0;"/><text fill="#333333" font-family="sans-serif" font-size="13" lengthAdjust="spacingAndGlyphs" textLength="188" x="1439" y="1139.1429">GET /api/sessions/{id}/frame?t=</text><!--MD5=[bbcb4b16303e160e28b1dc1e10ab5789]
link TESTRUNNER to JUNIT--><path d="M1686.75,1047.0558 C1687.91,1076.1958 1690.17,1133.0858 1691.86,1175.6158 " fill="none" id="TESTRUNNER-&gt;JUNIT" style="stroke: #2563EB; stroke-width: 1.0;"/><polygon fill="#2563EB" points="1692.06,1180.5258,1695.6971,1171.3732,1691.8602,1175.5298,1687.7035,1171.6929,1692.06,1180.5258" style="stroke: #2563EB; stroke-width: 1.0;"/><text fill="#333333" font-family="sans-serif" font-size="13" lengthAdjust="spacingAndGlyphs" textLength="109" x="1701.22" y="1130.1429">pass/fail per [test],</text><text fill="#333333" font-family="sans-serif" font-size="13" lengthAdjust="spacingAndGlyphs" textLength="128" x="1691.72" y="1147.8489">sequence step or role</text><!--MD5=[4fcbd027bc7c3c034241d9d84d74aad7]
link REC to GMN50--><path d="M204,877.9857 C204,878.5784 204,879.1723 204,879.7672 C204,880.9572 204,882.1514 204,883.3494 C204,892.9335 204,902.7595 204,912.5529 C204,932.1396 204,951.5958 204,968.7258 " fill="none" id="REC-GMN50" style="stroke: #2563EB; stroke-width: 1.0; stroke-dasharray: 7.0,7.0;"/><!--MD5=[1881634dcd6b7363de5685ea3ed98dfc]
link MAC to GMN56--><path d="M1646.1446,219.1052 C1646.2318,219.3088 1646.3196,219.5137 1646.4079,219.7201 C1646.5846,220.1327 1646.7636,220.5507 1646.9449,220.9741 C1647.6701,222.6677 1648.4318,224.4464 1649.227,226.3035 C1655.5891,241.1605 1664.1006,261.0365 1673.2813,282.4746 C1691.6425,325.3508 1712.68,374.4758 1724.55,402.1958 " fill="none" id="MAC-GMN56" style="stroke: #2563EB; stroke-width: 1.0; stroke-dasharray: 7.0,7.0;"/></g></svg>