<svg xmlns="http://www.w3.org/2000/svg" xmlns:xlink="http://www.w3.org/1999/xlink" contentStyleType="text/css" data-diagram-type="DESCRIPTION" height="695px" preserveAspectRatio="none" style="width:2188px;height:695px;background:#FFFFFF;" version="1.1" viewBox="0 0 2188 695" width="2188px" zoomAndPan="magnify"><?plantuml 1.2026.3?><defs/><g><g class="title" data-source-line="5"><text fill="#333333" font-family="sans-serif" font-size="14" font-weight="700" lengthAdjust="spacing" textLength="204.4492" x="988.4082" y="23.5352">octowright &#8212; module layout</text></g><!--cluster user surfaces--><g class="cluster" data-qualified-name="user surfaces" data-source-line="17" id="ent0002"><path d="M626.3656,43.4883 L724.7367,43.4883 A3.75,3.75 0 0 1 727.2367,45.9883 L734.2367,65.9766 L1150.3656,65.9766 A2.5,2.5 0 0 1 1152.8656,68.4766 L1152.8656,173.9683 A2.5,2.5 0 0 1 1150.3656,176.4683 L626.3656,176.4683 A2.5,2.5 0 0 1 623.8656,173.9683 L623.8656,45.9883 A2.5,2.5 0 0 1 626.3656,43.4883" fill="#EFF6FF" style="stroke:#D1D5DB;stroke-width:1.5;"/><line style="stroke:#D1D5DB;stroke-width:1.5;" x1="623.8656" x2="734.2367" y1="65.9766" y2="65.9766"/><text fill="#333333" font-family="sans-serif" font-size="14" font-weight="700" lengthAdjust="spacing" textLength="97.3711" x="627.8656" y="59.0234">user surfaces</text></g><!--cluster live state--><g class="cluster" data-qualified-name="live state" data-source-line="22" id="ent0005"><path d="M187.3656,225.4683 L254.2914,225.4683 A3.75,3.75 0 0 1 256.7914,227.9683 L263.7914,247.9566 L601.3656,247.9566 A2.5,2.5 0 0 1 603.8656,250.4566 L603.8656,495.9183 A2.5,2.5 0 0 1 601.3656,498.4183 L187.3656,498.4183 A2.5,2.5 0 0 1 184.8656,495.9183 L184.8656,227.9683 A2.5,2.5 0 0 1 187.3656,225.4683" fill="#FEF3C7" style="stroke:#D1D5DB;stroke-width:1.5;"/><line style="stroke:#D1D5DB;stroke-width:1.5;" x1="184.8656" x2="263.7914" y1="247.9566" y2="247.9566"/><text fill="#333333" font-family="sans-serif" font-size="14" font-weight="700" lengthAdjust="spacing" textLength="65.9258" x="188.8656" y="241.0034">live state</text></g><!--cluster session modules--><g class="cluster" data-qualified-name="session modules" data-source-line="28" id="ent0009"><path d="M197.3656,555.6683 L319.2797,555.6683 A3.75,3.75 0 0 1 321.7797,558.1683 L328.7797,578.1566 L823.3656,578.1566 A2.5,2.5 0 0 1 825.8656,580.6566 L825.8656,669.6583 A2.5,2.5 0 0 1 823.3656,672.1583 L197.3656,672.1583 A2.5,2.5 0 0 1 194.8656,669.6583 L194.8656,558.1683 A2.5,2.5 0 0 1 197.3656,555.6683" fill="#FDF4FF" style="stroke:#D1D5DB;stroke-width:1.5;"/><line style="stroke:#D1D5DB;stroke-width:1.5;" x1="194.8656" x2="328.7797" y1="578.1566" y2="578.1566"/><text fill="#333333" font-family="sans-serif" font-size="14" font-weight="700" lengthAdjust="spacing" textLength="120.9141" x="198.8656" y="571.2034">session modules</text></g><!--cluster domain modules--><g class="cluster" data-qualified-name="domain modules" data-source-line="34" id="ent0013"><path d="M630.3656,225.4683 L751.4115,225.4683 A3.75,3.75 0 0 1 753.9115,227.9683 L760.9115,247.9566 L2132.3656,247.9566 A2.5,2.5 0 0 1 2134.8656,250.4566 L2134.8656,495.9183 A2.5,2.5 0 0 1 2132.3656,498.4183 L630.3656,498.4183 A2.5,2.5 0 0 1 627.8656,495.9183 L627.8656,227.9683 A2.5,2.5 0 0 1 630.3656,225.4683" fill="#ECFCCB" style="stroke:#D1D5DB;stroke-width:1.5;"/><line style="stroke:#D1D5DB;stroke-width:1.5;" x1="627.8656" x2="760.9115" y1="247.9566" y2="247.9566"/><text fill="#333333" font-family="sans-serif" font-size="14" font-weight="700" lengthAdjust="spacing" textLength="120.0459" x="631.8656" y="241.0034">domain modules</text></g><!--cluster infrastructure--><g class="cluster" data-qualified-name="infrastructure" data-source-line="45" id="ent0022"><path d="M852.3656,547.4183 L953.5463,547.4183 A3.75,3.75 0 0 1 956.0463,549.9183 L963.0463,569.9066 L1517.3656,569.9066 A2.5,2.5 0 0 1 1519.8656,572.4066 L1519.8656,677.8983 A2.5,2.5 0 0 1 1517.3656,680.3983 L852.3656,680.3983 A2.5,2.5 0 0 1 849.8656,677.8983 L849.8656,549.9183 A2.5,2.5 0 0 1 852.3656,547.4183" fill="#F3F4F6" style="stroke:#D1D5DB;stroke-width:1.5;"/><line style="stroke:#D1D5DB;stroke-width:1.5;" x1="849.8656" x2="963.0463" y1="569.9066" y2="569.9066"/><text fill="#333333" font-family="sans-serif" font-size="14" font-weight="700" lengthAdjust="spacing" textLength="100.1807" x="853.8656" y="562.9534">infrastructure</text></g><!--entity SERVER--><g class="entity" data-qualified-name="user surfaces.SERVER" data-source-line="18" id="ent0003"><rect fill="#F3F4F6" height="62.9766" rx="2.5" ry="2.5" style="stroke:#D1D5DB;stroke-width:0.5;" width="161.707" x="975.0156" y="97.4883"/><rect fill="#F3F4F6" height="10" style="stroke:#D1D5DB;stroke-width:0.5;" width="15" x="1116.7227" y="102.4883"/><rect fill="#F3F4F6" height="2" style="stroke:#D1D5DB;stroke-width:0.5;" width="4" x="1114.7227" y="104.4883"/><rect fill="#F3F4F6" height="2" style="stroke:#D1D5DB;stroke-width:0.5;" width="4" x="1114.7227" y="108.4883"/><text fill="#333333" font-family="sans-serif" font-size="14" lengthAdjust="spacing" textLength="61.9951" x="990.0156" y="131.0234">server.py</text><text fill="#333333" font-family="sans-serif" font-size="14" lengthAdjust="spacing" textLength="121.707" x="990.0156" y="147.5117">FastMCP, 63 tools</text></g><!--entity CLI--><g class="entity" data-qualified-name="user surfaces.CLI" data-source-line="19" id="ent0004"><rect fill="#F3F4F6" height="62.9766" rx="2.5" ry="2.5" style="stroke:#D1D5DB;stroke-width:0.5;" width="300.5996" x="639.5656" y="97.4883"/><rect fill="#F3F4F6" height="10" style="stroke:#D1D5DB;stroke-width:0.5;" width="15" x="920.1652" y="102.4883"/><rect fill="#F3F4F6" height="2" style="stroke:#D1D5DB;stroke-width:0.5;" width="4" x="918.1652" y="104.4883"/><rect fill="#F3F4F6" height="2" style="stroke:#D1D5DB;stroke-width:0.5;" width="4" x="918.1652" y="108.4883"/><text fill="#333333" font-family="sans-serif" font-size="14" lengthAdjust="spacing" textLength="35.8203" x="654.5656" y="131.0234">cli.py</text><text fill="#333333" font-family="sans-serif" font-size="14" lengthAdjust="spacing" textLength="260.5996" x="654.5656" y="147.5117">click: serve / test / scenario / persona</text></g><!--entity POOL--><g class="entity" data-qualified-name="live state.POOL" data-source-line="23" id="ent0006"><rect fill="#F3F4F6" height="62.9766" rx="2.5" ry="2.5" style="stroke:#D1D5DB;stroke-width:0.5;" width="189.6045" x="201.0656" y="279.4683"/><rect fill="#F3F4F6" height="10" style="stroke:#D1D5DB;stroke-width:0.5;" width="15" x="370.6701" y="284.4683"/><rect fill="#F3F4F6" height="2" style="stroke:#D1D5DB;stroke-width:0.5;" width="4" x="368.6701" y="286.4683"/><rect fill="#F3F4F6" height="2" style="stroke:#D1D5DB;stroke-width:0.5;" width="4" x="368.6701" y="290.4683"/><text fill="#333333" font-family="sans-serif" font-size="14" lengthAdjust="spacing" textLength="82.8174" x="216.0656" y="313.0034">BrowserPool</text><text fill="#333333" font-family="sans-serif" font-size="14" lengthAdjust="spacing" textLength="149.6045" x="216.0656" y="329.4917">browser_pool/pool.py</text></g><!--entity SESSION--><g class="entity" data-qualified-name="live state.SESSION" data-source-line="24" id="ent0007"><rect fill="#F3F4F6" height="62.9766" rx="2.5" ry="2.5" style="stroke:#D1D5DB;stroke-width:0.5;" width="147.7412" x="432.9956" y="419.4483"/><rect fill="#F3F4F6" height="10" style="stroke:#D1D5DB;stroke-width:0.5;" width="15" x="560.7368" y="424.4483"/><rect fill="#F3F4F6" height="2" style="stroke:#D1D5DB;stroke-width:0.5;" width="4" x="558.7368" y="426.4483"/><rect fill="#F3F4F6" height="2" style="stroke:#D1D5DB;stroke-width:0.5;" width="4" x="558.7368" y="430.4483"/><text fill="#333333" font-family="sans-serif" font-size="14" lengthAdjust="spacing" textLength="104.7813" x="447.9956" y="452.9834">BrowserSession</text><text fill="#333333" font-family="sans-serif" font-size="14" lengthAdjust="spacing" textLength="107.7412" x="447.9956" y="469.4717">session/core.py</text></g><!--entity SPOOL--><g class="entity" data-qualified-name="live state.SPOOL" data-source-line="25" id="ent0008"><rect fill="#F3F4F6" height="62.9766" rx="2.5" ry="2.5" style="stroke:#D1D5DB;stroke-width:0.5;" width="161.6523" x="426.0356" y="279.4683"/><rect fill="#F3F4F6" height="10" style="stroke:#D1D5DB;stroke-width:0.5;" width="15" x="567.688" y="284.4683"/><rect fill="#F3F4F6" height="2" style="stroke:#D1D5DB;stroke-width:0.5;" width="4" x="565.688" y="286.4683"/><rect fill="#F3F4F6" height="2" style="stroke:#D1D5DB;stroke-width:0.5;" width="4" x="565.688" y="290.4683"/><text fill="#333333" font-family="sans-serif" font-size="14" lengthAdjust="spacing" textLength="86.29" x="441.0356" y="313.0034">ScenarioPool</text><text fill="#333333" font-family="sans-serif" font-size="14" lengthAdjust="spacing" textLength="121.6523" x="441.0356" y="329.4917">scenarios_pool.py</text></g><!--entity SF--><g class="entity" data-qualified-name="session modules.SF" data-source-line="29" id="ent0010"><rect fill="#F3F4F6" height="46.4883" rx="2.5" ry="2.5" style="stroke:#D1D5DB;stroke-width:0.5;" width="165.0566" x="211.3356" y="609.6683"/><rect fill="#F3F4F6" height="10" style="stroke:#D1D5DB;stroke-width:0.5;" width="15" x="356.3923" y="614.6683"/><rect fill="#F3F4F6" height="2" style="stroke:#D1D5DB;stroke-width:0.5;" width="4" x="354.3923" y="616.6683"/><rect fill="#F3F4F6" height="2" style="stroke:#D1D5DB;stroke-width:0.5;" width="4" x="354.3923" y="620.6683"/><text fill="#333333" font-family="sans-serif" font-size="14" lengthAdjust="spacing" textLength="125.0566" x="226.3356" y="643.2034">session/frames.py</text></g><!--entity SD--><g class="entity" data-qualified-name="session modules.SD" data-source-line="30" id="ent0011"><rect fill="#F3F4F6" height="46.4883" rx="2.5" ry="2.5" style="stroke:#D1D5DB;stroke-width:0.5;" width="191.6553" x="411.0356" y="609.6683"/><rect fill="#F3F4F6" height="10" style="stroke:#D1D5DB;stroke-width:0.5;" width="15" x="582.6909" y="614.6683"/><rect fill="#F3F4F6" height="2" style="stroke:#D1D5DB;stroke-width:0.5;" width="4" x="580.6909" y="616.6683"/><rect fill="#F3F4F6" height="2" style="stroke:#D1D5DB;stroke-width:0.5;" width="4" x="580.6909" y="620.6683"/><text fill="#333333" font-family="sans-serif" font-size="14" lengthAdjust="spacing" textLength="151.6553" x="426.0356" y="643.2034">session/downloads.py</text></g><!--entity SL--><g class="entity" data-qualified-name="session modules.SL" data-source-line="31" id="ent0012"><rect fill="#F3F4F6" height="46.4883" rx="2.5" ry="2.5" style="stroke:#D1D5DB;stroke-width:0.5;" width="172.6924" x="637.5156" y="609.6683"/><rect fill="#F3F4F6" height="10" style="stroke:#D1D5DB;stroke-width:0.5;" width="15" x="790.208" y="614.6683"/><rect fill="#F3F4F6" height="2" style="stroke:#D1D5DB;stroke-width:0.5;" width="4" x="788.208" y="616.6683"/><rect fill="#F3F4F6" height="2" style="stroke:#D1D5DB;stroke-width:0.5;" width="4" x="788.208" y="620.6683"/><text fill="#333333" font-family="sans-serif" font-size="14" lengthAdjust="spacing" textLength="132.6924" x="652.5156" y="643.2034">session/locators.py</text></g><!--entity PERSONAS--><g class="entity" data-qualified-name="domain modules.PERSONAS" data-source-line="35" id="ent0014"><rect fill="#F3F4F6" height="62.9766" rx="2.5" ry="2.5" style="stroke:#D1D5DB;stroke-width:0.5;" width="238.1807" x="959.7756" y="419.4483"/><rect fill="#F3F4F6" height="10" style="stroke:#D1D5DB;stroke-width:0.5;" width="15" x="1177.9563" y="424.4483"/><rect fill="#F3F4F6" height="2" style="stroke:#D1D5DB;stroke-width:0.5;" width="4" x="1175.9563" y="426.4483"/><rect fill="#F3F4F6" height="2" style="stroke:#D1D5DB;stroke-width:0.5;" width="4" x="1175.9563" y="430.4483"/><text fill="#333333" font-family="sans-serif" font-size="14" lengthAdjust="spacing" textLength="82.1885" x="974.7756" y="452.9834">personas.py</text><text fill="#333333" font-family="sans-serif" font-size="14" lengthAdjust="spacing" textLength="198.1807" x="974.7756" y="469.4717">Persona, load, migrate, creds</text></g><!--entity PROFILES--><g class="entity" data-qualified-name="domain modules.PROFILES" data-source-line="36" id="ent0015"><rect fill="#F3F4F6" height="62.9766" rx="2.5" ry="2.5" style="stroke:#D1D5DB;stroke-width:0.5;" width="209.9824" x="872.8756" y="279.4683"/><rect fill="#F3F4F6" height="10" style="stroke:#D1D5DB;stroke-width:0.5;" width="15" x="1062.8581" y="284.4683"/><rect fill="#F3F4F6" height="2" style="stroke:#D1D5DB;stroke-width:0.5;" width="4" x="1060.8581" y="286.4683"/><rect fill="#F3F4F6" height="2" style="stroke:#D1D5DB;stroke-width:0.5;" width="4" x="1060.8581" y="290.4683"/><text fill="#333333" font-family="sans-serif" font-size="14" lengthAdjust="spacing" textLength="71.873" x="887.8756" y="313.0034">profiles.py</text><text fill="#333333" font-family="sans-serif" font-size="14" lengthAdjust="spacing" textLength="169.9824" x="887.8756" y="329.4917">engine-profile path layer</text></g><!--entity SCENARIOS--><g class="entity" data-qualified-name="domain modules.SCENARIOS" data-source-line="37" id="ent0016"><rect fill="#F3F4F6" height="62.9766" rx="2.5" ry="2.5" style="stroke:#D1D5DB;stroke-width:0.5;" width="237.0459" x="1118.3456" y="279.4683"/><rect fill="#F3F4F6" height="10" style="stroke:#D1D5DB;stroke-width:0.5;" width="15" x="1335.3915" y="284.4683"/><rect fill="#F3F4F6" height="2" style="stroke:#D1D5DB;stroke-width:0.5;" width="4" x="1333.3915" y="286.4683"/><rect fill="#F3F4F6" height="2" style="stroke:#D1D5DB;stroke-width:0.5;" width="4" x="1333.3915" y="290.4683"/><text fill="#333333" font-family="sans-serif" font-size="14" lengthAdjust="spacing" textLength="84.5947" x="1133.3456" y="313.0034">scenarios.py</text><text fill="#333333" font-family="sans-serif" font-size="14" lengthAdjust="spacing" textLength="197.0459" x="1133.3456" y="329.4917">Scenario, Participant, loaders</text></g><!--entity MACROS--><g class="entity" data-qualified-name="domain modules.MACROS" data-source-line="38" id="ent0017"><rect fill="#F3F4F6" height="62.9766" rx="2.5" ry="2.5" style="stroke:#D1D5DB;stroke-width:0.5;" width="254.1563" x="1448.7856" y="419.4483"/><rect fill="#F3F4F6" height="10" style="stroke:#D1D5DB;stroke-width:0.5;" width="15" x="1682.9419" y="424.4483"/><rect fill="#F3F4F6" height="2" style="stroke:#D1D5DB;stroke-width:0.5;" width="4" x="1680.9419" y="426.4483"/><rect fill="#F3F4F6" height="2" style="stroke:#D1D5DB;stroke-width:0.5;" width="4" x="1680.9419" y="430.4483"/><text fill="#333333" font-family="sans-serif" font-size="14" lengthAdjust="spacing" textLength="56.7793" x="1463.7856" y="452.9834">macros/</text><text fill="#333333" font-family="sans-serif" font-size="14" lengthAdjust="spacing" textLength="214.1563" x="1463.7856" y="469.4717">storage, import, substitute, run</text></g><!--entity RUNNER--><g class="entity" data-qualified-name="domain modules.RUNNER" data-source-line="39" id="ent0018"><rect fill="#F3F4F6" height="62.9766" rx="2.5" ry="2.5" style="stroke:#D1D5DB;stroke-width:0.5;" width="236.1094" x="1390.8156" y="279.4683"/><rect fill="#F3F4F6" height="10" style="stroke:#D1D5DB;stroke-width:0.5;" width="15" x="1606.925" y="284.4683"/><rect fill="#F3F4F6" height="2" style="stroke:#D1D5DB;stroke-width:0.5;" width="4" x="1604.925" y="286.4683"/><rect fill="#F3F4F6" height="2" style="stroke:#D1D5DB;stroke-width:0.5;" width="4" x="1604.925" y="290.4683"/><text fill="#333333" font-family="sans-serif" font-size="14" lengthAdjust="spacing" textLength="65.8779" x="1405.8156" y="313.0034">runner.py</text><text fill="#333333" font-family="sans-serif" font-size="14" lengthAdjust="spacing" textLength="196.1094" x="1405.8156" y="329.4917">test-macro discovery + JUnit</text></g><!--entity GOLDENS--><g class="entity" data-qualified-name="domain modules.GOLDENS" data-source-line="40" id="ent0019"><rect fill="#F3F4F6" height="62.9766" rx="2.5" ry="2.5" style="stroke:#D1D5DB;stroke-width:0.5;" width="216.6406" x="1661.5456" y="279.4683"/><rect fill="#F3F4F6" height="10" style="stroke:#D1D5DB;stroke-width:0.5;" width="15" x="1858.1863" y="284.4683"/><rect fill="#F3F4F6" height="2" style="stroke:#D1D5DB;stroke-width:0.5;" width="4" x="1856.1863" y="286.4683"/><rect fill="#F3F4F6" height="2" style="stroke:#D1D5DB;stroke-width:0.5;" width="4" x="1856.1863" y="290.4683"/><text fill="#333333" font-family="sans-serif" font-size="14" lengthAdjust="spacing" textLength="74.3682" x="1676.5456" y="313.0034">goldens.py</text><text fill="#333333" font-family="sans-serif" font-size="14" lengthAdjust="spacing" textLength="176.6406" x="1676.5456" y="329.4917">aria-tree snapshots + diff</text></g><!--entity VIDEO--><g class="entity" data-qualified-name="domain modules.VIDEO" data-source-line="41" id="ent0020"><rect fill="#F3F4F6" height="62.9766" rx="2.5" ry="2.5" style="stroke:#D1D5DB;stroke-width:0.5;" width="205.8672" x="1912.9356" y="279.4683"/><rect fill="#F3F4F6" height="10" style="stroke:#D1D5DB;stroke-width:0.5;" width="15" x="2098.8028" y="284.4683"/><rect fill="#F3F4F6" height="2" style="stroke:#D1D5DB;stroke-width:0.5;" width="4" x="2096.8028" y="286.4683"/><rect fill="#F3F4F6" height="2" style="stroke:#D1D5DB;stroke-width:0.5;" width="4" x="2096.8028" y="290.4683"/><text fill="#333333" font-family="sans-serif" font-size="14" lengthAdjust="spacing" textLength="57.0596" x="1927.9356" y="313.0034">video.py</text><text fill="#333333" font-family="sans-serif" font-size="14" lengthAdjust="spacing" textLength="165.8672" x="1927.9356" y="329.4917">ffmpeg frame extraction</text></g><!--entity STABILIZE--><g class="entity" data-qualified-name="domain modules.STABILIZE" data-source-line="42" id="ent0021"><rect fill="#F3F4F6" height="62.9766" rx="2.5" ry="2.5" style="stroke:#D1D5DB;stroke-width:0.5;" width="194.4443" x="643.6456" y="279.4683"/><rect fill="#F3F4F6" height="10" style="stroke:#D1D5DB;stroke-width:0.5;" width="15" x="818.09" y="284.4683"/><rect fill="#F3F4F6" height="2" style="stroke:#D1D5DB;stroke-width:0.5;" width="4" x="816.09" y="286.4683"/><rect fill="#F3F4F6" height="2" style="stroke:#D1D5DB;stroke-width:0.5;" width="4" x="816.09" y="290.4683"/><text fill="#333333" font-family="sans-serif" font-size="14" lengthAdjust="spacing" textLength="77.4375" x="658.6456" y="313.0034">stabilize.py</text><text fill="#333333" font-family="sans-serif" font-size="14" lengthAdjust="spacing" textLength="154.4443" x="658.6456" y="329.4917">determinism init script</text></g><!--entity DEFAULTS--><g class="entity" data-qualified-name="infrastructure.DEFAULTS" data-source-line="46" id="ent0023"><rect fill="#F3F4F6" height="62.9766" rx="2.5" ry="2.5" style="stroke:#D1D5DB;stroke-width:0.5;" width="153.5996" x="866.0656" y="601.4183"/><rect fill="#F3F4F6" height="10" style="stroke:#D1D5DB;stroke-width:0.5;" width="15" x="999.6652" y="606.4183"/><rect fill="#F3F4F6" height="2" style="stroke:#D1D5DB;stroke-width:0.5;" width="4" x="997.6652" y="608.4183"/><rect fill="#F3F4F6" height="2" style="stroke:#D1D5DB;stroke-width:0.5;" width="4" x="997.6652" y="612.4183"/><text fill="#333333" font-family="sans-serif" font-size="14" lengthAdjust="spacing" textLength="75.1543" x="881.0656" y="634.9534">defaults.py</text><text fill="#333333" font-family="sans-serif" font-size="14" lengthAdjust="spacing" textLength="113.5996" x="881.0656" y="651.4417">env vars + paths</text></g><!--entity RECORDER--><g class="entity" data-qualified-name="infrastructure.RECORDER" data-source-line="47" id="ent0024"><rect fill="#F3F4F6" height="62.9766" rx="2.5" ry="2.5" style="stroke:#D1D5DB;stroke-width:0.5;" width="172.4121" x="1054.6556" y="601.4183"/><rect fill="#F3F4F6" height="10" style="stroke:#D1D5DB;stroke-width:0.5;" width="15" x="1207.0677" y="606.4183"/><rect fill="#F3F4F6" height="2" style="stroke:#D1D5DB;stroke-width:0.5;" width="4" x="1205.0677" y="608.4183"/><rect fill="#F3F4F6" height="2" style="stroke:#D1D5DB;stroke-width:0.5;" width="4" x="1205.0677" y="612.4183"/><text fill="#333333" font-family="sans-serif" font-size="14" lengthAdjust="spacing" textLength="77.9229" x="1069.6556" y="634.9534">recorder.py</text><text fill="#333333" font-family="sans-serif" font-size="14" lengthAdjust="spacing" textLength="132.4121" x="1069.6556" y="651.4417">append-only JSONL</text></g><!--entity EXPORT--><g class="entity" data-qualified-name="infrastructure.EXPORT" data-source-line="48" id="ent0025"><rect fill="#F3F4F6" height="62.9766" rx="2.5" ry="2.5" style="stroke:#D1D5DB;stroke-width:0.5;" width="241.8447" x="1261.9456" y="601.4183"/><rect fill="#F3F4F6" height="10" style="stroke:#D1D5DB;stroke-width:0.5;" width="15" x="1483.7904" y="606.4183"/><rect fill="#F3F4F6" height="2" style="stroke:#D1D5DB;stroke-width:0.5;" width="4" x="1481.7904" y="608.4183"/><rect fill="#F3F4F6" height="2" style="stroke:#D1D5DB;stroke-width:0.5;" width="4" x="1481.7904" y="612.4183"/><text fill="#333333" font-family="sans-serif" font-size="14" lengthAdjust="spacing" textLength="65.3174" x="1276.9456" y="634.9534">export.py</text><text fill="#333333" font-family="sans-serif" font-size="14" lengthAdjust="spacing" textLength="201.8447" x="1276.9456" y="651.4417">recording &#8594; playwright script</text></g><!--entity PW--><g class="entity" data-qualified-name="PW" data-source-line="51" id="ent0026"><path d="M15.7829,618.7447 C19.3668,613.5169 24.7201,613.0338 28.5298,618.475 C32.545,612.0204 38.1569,612.3673 42.2137,618.4294 C45.5187,612.9804 50.3046,612.7861 54.3982,617.4821 C58.3112,611.3571 64.6062,611.2905 68.445,617.5662 C70.8726,611.6141 75.8818,611.0383 80.1433,615.5076 C83.6307,610.6881 89.3608,611.0701 92.1319,616.3573 C96.672,609.6809 102.4804,609.792 106.7329,616.6671 C109.8201,612.1118 115.1755,611.4446 118.13,616.8193 C122.3886,610.2797 126.2398,611.7113 130.5955,616.7144 C134.284,610.9441 140.7194,609.2565 144.3967,616.7259 C147.8805,611.8966 152.7467,612.4851 155.7367,617.3061 C159.8447,611.6479 166.9468,610.9403 170.2012,618.2576 C179.8707,619.8085 181.792,626.8164 175.5424,633.8281 C181.9779,641.4412 179.6025,647.794 169.8663,649.5796 C165.2014,657.4739 160.6273,655.9424 155.6842,649.8619 C151.9108,655.5204 148.2266,655.1808 144.1952,650.1388 C139.983,657.0051 135.4925,657.0802 130.811,650.6097 C126.7758,657.0163 120.8097,655.0654 117.7593,649.5331 C114.0261,656.4302 109.4159,656.5934 104.5809,650.6652 C101.4687,657.336 96.2391,656.7447 92.6086,651.1719 C88.5514,655.8161 83.9799,657.162 80.6765,650.3845 C76.6861,656.2057 71.2596,655.7389 68.3635,649.2868 C63.9325,656.3101 59.355,655.2534 54.5089,649.7459 C50.4805,656.8889 45.5955,655.6196 41.4415,649.8733 C37.9857,655.9695 31.9729,656.0925 28.7824,649.6064 C23.791,655.934 20.0875,654.463 16.2681,648.4207 C8.2895,647.06 6.2422,640.0232 11.1354,634.0615 C6,627.7129 6.9968,620.8692 15.7829,618.7447" fill="#F1F1F1" style="stroke:#181818;stroke-width:0.5;"/><text fill="#333333" font-family="sans-serif" font-size="14" lengthAdjust="spacing" textLength="138.3799" x="22.6756" y="638.2034">Playwright async API</text></g><!--link CLI to POOL--><g class="link" data-entity-1="ent0004" data-entity-2="ent0006" data-link-type="dependency" data-source-line="54" id="lnk27"><path d="M639.1656,138.5883 C535.8656,147.0083 409.8456,163.0283 365.8656,192.4683 C335.2856,212.9383 318.2048,246.0788 307.8048,273.4788" fill="none" id="CLI-to-POOL" style="stroke:#2563EB;stroke-width:1;"/><polygon fill="#2563EB" points="305.6756,279.0883,312.6091,272.0934,307.4499,274.4137,305.1297,269.2546,305.6756,279.0883" style="stroke:#2563EB;stroke-width:1;"/></g><!--link CLI to SPOOL--><g class="link" data-entity-1="ent0004" data-entity-2="ent0008" data-link-type="dependency" data-source-line="55" id="lnk28"><path d="M639.0756,132.8583 C535.7556,138.3983 411.5256,153.3183 377.8656,192.4683 C372.9356,198.1983 373.2656,203.4783 377.8656,209.4683 C386.2756,220.4083 395.7956,210.7783 407.8656,217.4683 C436.2556,233.1983 458.7701,254.4081 477.2201,274.7081" fill="none" id="CLI-to-SPOOL" style="stroke:#2563EB;stroke-width:1;"/><polygon fill="#2563EB" points="481.2556,279.1483,478.1625,269.7978,477.8927,275.4482,472.2423,275.1784,481.2556,279.1483" style="stroke:#2563EB;stroke-width:1;"/></g><!--link SERVER to POOL--><g class="link" data-entity-1="ent0003" data-entity-2="ent0006" data-link-type="dependency" data-source-line="56" id="lnk29"><path d="M1011.5056,160.7183 C995.3556,170.2183 976.4856,179.4983 957.8656,184.4683 C928.3956,192.3383 436.8456,180.3183 408.8656,192.4683 C367.9856,210.2283 338.0408,245.6581 318.4308,274.1081" fill="none" id="SERVER-to-POOL" style="stroke:#2563EB;stroke-width:1;"/><polygon fill="#2563EB" points="315.0256,279.0483,323.4268,273.9082,317.8632,274.9315,316.8399,269.368,315.0256,279.0483" style="stroke:#2563EB;stroke-width:1;"/></g><!--link SERVER to SPOOL--><g class="link" data-entity-1="ent0003" data-entity-2="ent0008" data-link-type="dependency" data-source-line="57" id="lnk30"><path d="M1011.5056,160.7083 C995.3556,170.2183 976.4856,179.4883 957.8656,184.4683 C943.5856,188.2883 436.2356,181.9383 425.8656,192.4683 C400.0456,218.6783 426.7736,250.2413 457.6936,275.2913" fill="none" id="SERVER-to-SPOOL" style="stroke:#2563EB;stroke-width:1;"/><polygon fill="#2563EB" points="462.3556,279.0683,457.8806,270.2948,458.4706,275.9208,452.8446,276.5108,462.3556,279.0683" style="stroke:#2563EB;stroke-width:1;"/></g><!--reverse link POOL to SESSION--><g class="link" data-entity-1="ent0006" data-entity-2="ent0007" data-link-type="composition" data-source-line="60" id="lnk31"><path d="M353.2581,349.4871 C388.0081,372.2171 424.9556,396.3683 459.6756,419.0683" fill="none" id="POOL-backto-SESSION" style="stroke:#2563EB;stroke-width:1;"/><polygon fill="#2563EB" points="343.2156,342.9183,346.0473,349.5502,353.2581,349.4871,350.4265,342.8552,343.2156,342.9183" style="stroke:#2563EB;stroke-width:1;"/><text fill="#333333" font-family="sans-serif" font-size="13" lengthAdjust="spacing" textLength="32.6968" x="414.9956" y="386.0166">owns</text><text fill="#333333" font-family="sans-serif" font-size="13" lengthAdjust="spacing" textLength="8.2202" x="343.4998" y="363.0386">1</text><text fill="#333333" font-family="sans-serif" font-size="13" lengthAdjust="spacing" textLength="6.2651" x="443.3512" y="408.549">*</text></g><!--reverse link SPOOL to SESSION--><g class="link" data-entity-1="ent0008" data-entity-2="ent0007" data-link-type="aggregation" data-source-line="61" id="lnk32"><path d="M506.8656,354.9183 C506.8656,377.6483 506.8656,396.3683 506.8656,419.0683" fill="none" id="SPOOL-backto-SESSION" style="stroke:#2563EB;stroke-width:1;"/><polygon fill="none" points="506.8656,342.9183,502.8656,348.9183,506.8656,354.9183,510.8656,348.9183,506.8656,342.9183" style="stroke:#2563EB;stroke-width:1;"/><text fill="#333333" font-family="sans-serif" font-size="13" lengthAdjust="spacing" textLength="74.6357" x="507.8656" y="386.0166">participants</text><text fill="#333333" font-family="sans-serif" font-size="13" lengthAdjust="spacing" textLength="8.2202" x="498.1249" y="363.0386">1</text><text fill="#333333" font-family="sans-serif" font-size="13" lengthAdjust="spacing" textLength="6.2651" x="500.2741" y="408.549">*</text></g><!--link SESSION to SF--><g class="link" data-entity-1="ent0007" data-entity-2="ent0010" data-link-type="dependency" data-source-line="62" id="lnk33"><path d="M465.1156,482.8783 C443.4956,499.2483 416.8756,519.9383 393.8656,539.4183 C366.7956,562.3483 341.4486,586.0079 321.5086,605.1079" fill="none" id="SESSION-to-SF" style="stroke:#2563EB;stroke-width:1;stroke-dasharray:7,7;"/><polygon fill="#2563EB" points="317.1756,609.2583,326.4419,605.9213,320.7864,605.7996,320.9081,600.1441,317.1756,609.2583" style="stroke:#2563EB;stroke-width:1;"/></g><!--link SESSION to SD--><g class="link" data-entity-1="ent0007" data-entity-2="ent0011" data-link-type="dependency" data-source-line="63" id="lnk34"><path d="M506.8656,482.8683 C506.8656,518.8483 506.8656,571.3783 506.8656,603.3383" fill="none" id="SESSION-to-SD" style="stroke:#2563EB;stroke-width:1;stroke-dasharray:7,7;"/><polygon fill="#2563EB" points="506.8656,609.3383,510.8656,600.3383,506.8656,604.3383,502.8656,600.3383,506.8656,609.3383" style="stroke:#2563EB;stroke-width:1;"/></g><!--link SESSION to SL--><g class="link" data-entity-1="ent0007" data-entity-2="ent0012" data-link-type="dependency" data-source-line="64" id="lnk35"><path d="M548.1956,482.8583 C569.8156,499.3083 596.5756,520.0883 619.8656,539.4183 C647.7556,562.5683 674.2369,586.3003 695.0569,605.3303" fill="none" id="SESSION-to-SL" style="stroke:#2563EB;stroke-width:1;stroke-dasharray:7,7;"/><polygon fill="#2563EB" points="699.4856,609.3783,695.5412,600.3538,695.795,606.005,690.1439,606.2588,699.4856,609.3783" style="stroke:#2563EB;stroke-width:1;"/></g><!--link POOL to PROFILES--><g class="link" data-entity-1="ent0006" data-entity-2="ent0015" data-link-type="dependency" data-source-line="67" id="lnk36"><path d="M324.4956,279.0183 C345.4856,258.1083 375.9756,232.6083 408.8656,221.1383 C502.6456,188.3983 761.4956,190.1383 855.8656,221.1383 C890.5956,232.5383 919.1577,253.9895 942.0477,274.9195" fill="none" id="POOL-to-PROFILES" style="stroke:#2563EB;stroke-width:1;stroke-dasharray:7,7;"/><polygon fill="#2563EB" points="946.4756,278.9683,942.5329,269.9431,942.7856,275.5943,937.1344,275.847,946.4756,278.9683" style="stroke:#2563EB;stroke-width:1;"/><text fill="#333333" font-family="sans-serif" font-size="13" lengthAdjust="spacing" textLength="113.769" x="428.3656" y="206.0366">engine_profile_dir</text></g><!--link POOL to STABILIZE--><g class="link" data-entity-1="ent0006" data-entity-2="ent0021" data-link-type="dependency" data-source-line="68" id="lnk37"><path d="M324.4956,279.0183 C345.4856,258.1083 375.9756,232.6083 408.8656,221.1383 C490.6956,192.5783 520.8256,196.3383 603.8656,221.1383 C641.8856,232.4883 674.4744,254.3726 700.5244,275.3726" fill="none" id="POOL-to-STABILIZE" style="stroke:#2563EB;stroke-width:1;stroke-dasharray:7,7;"/><polygon fill="#2563EB" points="705.1956,279.1383,700.6993,270.3757,701.303,276.0002,695.6784,276.6039,705.1956,279.1383" style="stroke:#2563EB;stroke-width:1;"/><text fill="#333333" font-family="sans-serif" font-size="13" lengthAdjust="spacing" textLength="59.9663" x="548.3656" y="206.0366">init script</text></g><!--link SCENARIOS to PERSONAS--><g class="link" data-entity-1="ent0016" data-entity-2="ent0014" data-link-type="dependency" data-source-line="69" id="lnk38"><path d="M1201.4056,342.9183 C1175.3856,365.6483 1144.7146,392.4213 1118.7246,415.1213" fill="none" id="SCENARIOS-to-PERSONAS" style="stroke:#2563EB;stroke-width:1;stroke-dasharray:7,7;"/><polygon fill="#2563EB" points="1114.2056,419.0683,1123.6155,416.1605,1117.9715,415.7791,1118.3528,410.1352,1114.2056,419.0683" style="stroke:#2563EB;stroke-width:1;"/><text fill="#333333" font-family="sans-serif" font-size="13" lengthAdjust="spacing" textLength="182.3682" x="1168.3256" y="386.0166">default URL / macros / creds</text></g><!--link SCENARIOS to MACROS--><g class="link" data-entity-1="ent0016" data-entity-2="ent0017" data-link-type="dependency" data-source-line="70" id="lnk39"><path d="M1298.6156,342.8483 C1335.1056,360.9083 1377.7956,381.6383 1396.8656,389.4483 C1422.5156,399.9483 1445.0522,408.175 1471.3522,417.075" fill="none" id="SCENARIOS-to-MACROS" style="stroke:#2563EB;stroke-width:1;stroke-dasharray:7,7;"/><polygon fill="#2563EB" points="1477.0356,418.9983,1469.7927,412.3244,1472.2995,417.3955,1467.2284,419.9023,1477.0356,418.9983" style="stroke:#2563EB;stroke-width:1;"/><text fill="#333333" font-family="sans-serif" font-size="13" lengthAdjust="spacing" textLength="164.2139" x="1397.8656" y="386.0166">run_macro per participant</text></g><!--link SCENARIOS to POOL--><g class="link" data-entity-1="ent0016" data-entity-2="ent0006" data-link-type="dependency" data-source-line="71" id="lnk40"><path d="M1201.1956,279.1383 C1175.1456,258.1383 1137.8856,232.4883 1099.8656,221.1383 C1026.2956,199.1683 481.3556,195.8283 408.8656,221.1383 C375.9756,232.6083 349.7364,253.8737 328.7464,274.7837" fill="none" id="SCENARIOS-to-POOL" style="stroke:#2563EB;stroke-width:1;stroke-dasharray:7,7;"/><polygon fill="#2563EB" points="324.4956,279.0183,333.6948,275.5003,328.0379,275.4895,328.0487,269.8327,324.4956,279.0183" style="stroke:#2563EB;stroke-width:1;"/><text fill="#333333" font-family="sans-serif" font-size="13" lengthAdjust="spacing" textLength="83.9287" x="807.3656" y="206.0366">spawn_roster</text></g><!--link RUNNER to MACROS--><g class="link" data-entity-1="ent0018" data-entity-2="ent0017" data-link-type="dependency" data-source-line="72" id="lnk41"><path d="M1549.3556,342.9183 C1557.8956,351.5083 1565.8356,361.5183 1570.8656,372.4483 C1577.5156,386.8983 1579.1891,398.489 1578.9591,413.259" fill="none" id="RUNNER-to-MACROS" style="stroke:#2563EB;stroke-width:1;stroke-dasharray:7,7;"/><polygon fill="#2563EB" points="1578.8656,419.2583,1583.0053,410.3217,1578.9435,414.2589,1575.0063,410.1971,1578.8656,419.2583" style="stroke:#2563EB;stroke-width:1;"/></g><!--link RUNNER to POOL--><g class="link" data-entity-1="ent0018" data-entity-2="ent0006" data-link-type="dependency" data-source-line="73" id="lnk42"><path d="M1473.4956,279.1383 C1447.6556,258.1383 1410.6656,232.4883 1372.8656,221.1383 C1270.2856,190.3183 509.9956,185.8383 408.8656,221.1383 C375.9756,232.6083 349.7364,253.8737 328.7464,274.7837" fill="none" id="RUNNER-to-POOL" style="stroke:#2563EB;stroke-width:1;stroke-dasharray:7,7;"/><polygon fill="#2563EB" points="324.4956,279.0183,333.6948,275.5003,328.0379,275.4895,328.0487,269.8327,324.4956,279.0183" style="stroke:#2563EB;stroke-width:1;"/><text fill="#333333" font-family="sans-serif" font-size="13" lengthAdjust="spacing" textLength="182.1968" x="1035.8656" y="206.0366">ephemeral browser per [test]</text></g><!--link SERVER to RUNNER--><g class="link" data-entity-1="ent0003" data-entity-2="ent0018" data-link-type="dependency" data-source-line="74" id="lnk43"><path d="M1136.9056,144.6883 C1202.5256,158.3783 1296.3056,182.0583 1372.8656,217.4683 C1408.2356,233.8283 1439.7838,255.4011 1465.9838,275.3711" fill="none" id="SERVER-to-RUNNER" style="stroke:#2563EB;stroke-width:1;stroke-dasharray:7,7;"/><polygon fill="#2563EB" points="1470.7556,279.0083,1466.0226,270.3712,1466.7791,275.9773,1461.173,276.7337,1470.7556,279.0083" style="stroke:#2563EB;stroke-width:1;"/></g><!--link SERVER to GOLDENS--><g class="link" data-entity-1="ent0003" data-entity-2="ent0019" data-link-type="dependency" data-source-line="75" id="lnk44"><path d="M1136.7756,129.7583 C1253.4256,132.0983 1473.6356,146.6383 1644.8656,217.4683 C1679.7856,231.9183 1709.3895,254.2567 1733.1395,275.1367" fill="none" id="SERVER-to-GOLDENS" style="stroke:#2563EB;stroke-width:1;stroke-dasharray:7,7;"/><polygon fill="#2563EB" points="1737.6456,279.0983,1733.5275,270.1517,1733.8905,275.7969,1728.2453,276.1599,1737.6456,279.0983" style="stroke:#2563EB;stroke-width:1;"/></g><!--link SERVER to VIDEO--><g class="link" data-entity-1="ent0003" data-entity-2="ent0020" data-link-type="dependency" data-source-line="76" id="lnk45"><path d="M1136.9156,132.7983 C1319.7856,140.0683 1759.1156,162.8183 1895.8656,217.4683 C1930.3056,231.2283 1958.8259,253.7873 1981.4459,274.9673" fill="none" id="SERVER-to-VIDEO" style="stroke:#2563EB;stroke-width:1;stroke-dasharray:7,7;"/><polygon fill="#2563EB" points="1985.8256,279.0683,1981.99,269.997,1982.1758,275.6508,1976.522,275.8367,1985.8256,279.0683" style="stroke:#2563EB;stroke-width:1;"/></g><!--link SERVER to MACROS--><g class="link" data-entity-1="ent0003" data-entity-2="ent0017" data-link-type="dependency" data-source-line="77" id="lnk46"><path d="M1137.1956,130.3283 C1377.0556,132.2183 2068.9756,144.0183 2135.8656,217.4683 C2173.2656,258.5383 2171.2456,299.6283 2135.8656,342.4483 C2082.0656,407.5483 1857.2016,433.2077 1709.2116,443.3577" fill="none" id="SERVER-to-MACROS" style="stroke:#2563EB;stroke-width:1;stroke-dasharray:7,7;"/><polygon fill="#2563EB" points="1703.2256,443.7683,1712.4782,447.1431,1708.2139,443.4262,1711.9308,439.1618,1703.2256,443.7683" style="stroke:#2563EB;stroke-width:1;"/></g><!--link SESSION to RECORDER--><g class="link" data-entity-1="ent0007" data-entity-2="ent0024" data-link-type="dependency" data-source-line="80" id="lnk47"><path d="M564.7856,482.8683 C584.3056,491.9683 606.5556,500.9383 627.8656,506.4183 C804.4856,551.8583 869.1556,467.7883 1036.8656,539.4183 C1068.4156,552.8983 1092.9581,575.4129 1112.1281,596.7729" fill="none" id="SESSION-to-RECORDER" style="stroke:#2563EB;stroke-width:1;stroke-dasharray:7,7;"/><polygon fill="#2563EB" points="1116.1356,601.2383,1113.1012,591.8685,1112.796,597.5171,1107.1474,597.2119,1116.1356,601.2383" style="stroke:#2563EB;stroke-width:1;"/><text fill="#333333" font-family="sans-serif" font-size="13" lengthAdjust="spacing" textLength="75.9497" x="1008.7456" y="527.9866">every action</text></g><!--link SESSION to EXPORT--><g class="link" data-entity-1="ent0007" data-entity-2="ent0025" data-link-type="dependency" data-source-line="81" id="lnk48"><path d="M562.7656,482.7983 C582.7056,492.2583 605.7156,501.4683 627.8656,506.4183 C678.2956,517.7083 1041.4056,509.7683 1092.8656,514.4183 C1161.0556,520.5783 1181.2056,514.2383 1244.8656,539.4183 C1282.2756,554.2183 1315.1696,576.6617 1341.6596,597.3817" fill="none" id="SESSION-to-EXPORT" style="stroke:#2563EB;stroke-width:1;stroke-dasharray:7,7;"/><polygon fill="#2563EB" points="1346.3856,601.0783,1341.761,592.3827,1342.4473,597.9978,1336.8322,598.6841,1346.3856,601.0783" style="stroke:#2563EB;stroke-width:1;"/><text fill="#333333" font-family="sans-serif" font-size="13" lengthAdjust="spacing" textLength="71.1572" x="1221.4356" y="527.9866">on demand</text></g><!--link PROFILES to PERSONAS--><g class="link" data-entity-1="ent0015" data-entity-2="ent0014" data-link-type="dependency" data-source-line="82" id="lnk49"><path d="M969.3456,342.8483 C966.9656,357.8383 966.8756,375.5583 974.8656,389.4483 C981.6856,401.3083 986.9149,407.6108 998.2249,415.5508" fill="none" id="PROFILES-to-PERSONAS" style="stroke:#2563EB;stroke-width:1;"/><polygon fill="#2563EB" points="1003.1356,418.9983,998.0679,410.5533,999.0434,416.1254,993.4713,417.1009,1003.1356,418.9983" style="stroke:#2563EB;stroke-width:1;"/><text fill="#333333" font-family="sans-serif" font-size="13" lengthAdjust="spacing" textLength="160.6338" x="975.8656" y="386.0166">delegates path resolution</text></g><!--link SESSION to PW--><g class="link" data-entity-1="ent0007" data-entity-2="ent0026" data-link-type="dependency" data-source-line="85" id="lnk50"><path d="M432.6156,462.8883 C367.0056,474.8083 270.2956,497.9683 194.8656,539.4183 C161.7956,557.5983 134.5965,583.8422 115.3765,604.8422" fill="none" id="SESSION-to-PW" style="stroke:#2563EB;stroke-width:1;"/><polygon fill="#2563EB" points="111.3256,609.2683,120.3527,605.3298,114.7014,605.5799,114.4513,599.9286,111.3256,609.2683" style="stroke:#2563EB;stroke-width:1;"/></g><!--link POOL to PW--><g class="link" data-entity-1="ent0006" data-entity-2="ent0026" data-link-type="dependency" data-source-line="86" id="lnk51"><path d="M276.1156,342.9283 C235.2256,407.0683 145.3113,548.0791 109.4913,604.2591" fill="none" id="POOL-to-PW" style="stroke:#2563EB;stroke-width:1;"/><polygon fill="#2563EB" points="106.2656,609.3183,114.4769,603.88,108.9537,605.1023,107.7314,599.5791,106.2656,609.3183" style="stroke:#2563EB;stroke-width:1;"/></g></g></svg>