<svg xmlns="http://www.w3.org/2000/svg" xmlns:xlink="http://www.w3.org/1999/xlink" contentStyleType="text/css" data-diagram-type="DESCRIPTION" height="806px" preserveAspectRatio="none" style="width:2710px;height:806px;background:#FFFFFF;" version="1.1" viewBox="0 0 2710 806" width="2710px" zoomAndPan="magnify"><?plantuml 1.2026.6?><defs/><g><g class="title" data-source-line="5"><text fill="#333333" font-family="sans-serif" font-size="14" font-weight="700" lengthAdjust="spacing" textLength="204.4492" x="1249.7725" y="23.5352">octowright &#8212; module layout</text></g><!--cluster user surfaces--><g class="cluster" data-qualified-name="user surfaces" data-source-line="23" id="ent0001"><path d="M1170.02,43.4883 L1268.3911,43.4883 A3.75,3.75 0 0 1 1270.8911,45.9883 L1277.8911,65.9766 L1888.02,65.9766 A2.5,2.5 0 0 1 1890.52,68.4766 L1890.52,173.9583 A2.5,2.5 0 0 1 1888.02,176.4583 L1170.02,176.4583 A2.5,2.5 0 0 1 1167.52,173.9583 L1167.52,45.9883 A2.5,2.5 0 0 1 1170.02,43.4883" fill="#EFF6FF" style="stroke:#D1D5DB;stroke-width:1.5;"/><line style="stroke:#D1D5DB;stroke-width:1.5;" x1="1167.52" x2="1277.8911" y1="65.9766" y2="65.9766"/><text fill="#333333" font-family="sans-serif" font-size="14" font-weight="700" lengthAdjust="spacing" textLength="97.3711" x="1171.52" y="59.0234">user surfaces</text></g><!--cluster live state--><g class="cluster" data-qualified-name="live state" data-source-line="28" id="ent0004"><path d="M280.02,225.4583 L346.9458,225.4583 A3.75,3.75 0 0 1 349.4458,227.9583 L356.4458,247.9466 L694.02,247.9466 A2.5,2.5 0 0 1 696.52,250.4466 L696.52,495.9183 A2.5,2.5 0 0 1 694.02,498.4183 L280.02,498.4183 A2.5,2.5 0 0 1 277.52,495.9183 L277.52,227.9583 A2.5,2.5 0 0 1 280.02,225.4583" fill="#FEF3C7" style="stroke:#D1D5DB;stroke-width:1.5;"/><line style="stroke:#D1D5DB;stroke-width:1.5;" x1="277.52" x2="356.4458" y1="247.9466" y2="247.9466"/><text fill="#333333" font-family="sans-serif" font-size="14" font-weight="700" lengthAdjust="spacing" textLength="65.9258" x="281.52" y="240.9934">live state</text></g><!--cluster domain modules--><g class="cluster" data-qualified-name="domain modules" data-source-line="34" id="ent0008"><path d="M723.02,225.4583 L844.0659,225.4583 A3.75,3.75 0 0 1 846.5659,227.9583 L853.5659,247.9466 L2224.02,247.9466 A2.5,2.5 0 0 1 2226.52,250.4466 L2226.52,495.9183 A2.5,2.5 0 0 1 2224.02,498.4183 L723.02,498.4183 A2.5,2.5 0 0 1 720.52,495.9183 L720.52,227.9583 A2.5,2.5 0 0 1 723.02,225.4583" fill="#ECFCCB" style="stroke:#D1D5DB;stroke-width:1.5;"/><line style="stroke:#D1D5DB;stroke-width:1.5;" x1="720.52" x2="853.5659" y1="247.9466" y2="247.9466"/><text fill="#333333" font-family="sans-serif" font-size="14" font-weight="700" lengthAdjust="spacing" textLength="120.0459" x="724.52" y="240.9934">domain modules</text></g><!--cluster session modules--><g class="cluster" data-qualified-name="session modules" data-source-line="45" id="ent0017"><path d="M58.02,547.4183 L179.9341,547.4183 A3.75,3.75 0 0 1 182.4341,549.9183 L189.4341,569.9066 L1032.02,569.9066 A2.5,2.5 0 0 1 1034.52,572.4066 L1034.52,694.3783 A2.5,2.5 0 0 1 1032.02,696.8783 L58.02,696.8783 A2.5,2.5 0 0 1 55.52,694.3783 L55.52,549.9183 A2.5,2.5 0 0 1 58.02,547.4183" fill="#FDF4FF" style="stroke:#D1D5DB;stroke-width:1.5;"/><line style="stroke:#D1D5DB;stroke-width:1.5;" x1="55.52" x2="189.4341" y1="569.9066" y2="569.9066"/><text fill="#333333" font-family="sans-serif" font-size="14" font-weight="700" lengthAdjust="spacing" textLength="120.9141" x="59.52" y="562.9534">session modules</text></g><!--cluster infrastructure--><g class="cluster" data-qualified-name="infrastructure" data-source-line="52" id="ent0022"><path d="M1355.02,555.6583 L1456.2007,555.6583 A3.75,3.75 0 0 1 1458.7007,558.1583 L1465.7007,578.1466 L2325.02,578.1466 A2.5,2.5 0 0 1 2327.52,580.6466 L2327.52,686.1383 A2.5,2.5 0 0 1 2325.02,688.6383 L1355.02,688.6383 A2.5,2.5 0 0 1 1352.52,686.1383 L1352.52,558.1583 A2.5,2.5 0 0 1 1355.02,555.6583" fill="#F3F4F6" style="stroke:#D1D5DB;stroke-width:1.5;"/><line style="stroke:#D1D5DB;stroke-width:1.5;" x1="1352.52" x2="1465.7007" y1="578.1466" y2="578.1466"/><text fill="#333333" font-family="sans-serif" font-size="14" font-weight="700" lengthAdjust="spacing" textLength="100.1807" x="1356.52" y="571.1934">infrastructure</text></g><!--entity SERVER--><g class="entity" data-qualified-name="user surfaces.SERVER" data-source-line="24" id="ent0002"><rect fill="#F3F4F6" height="62.9766" rx="2.5" ry="2.5" style="stroke:#D1D5DB;stroke-width:0.5;" width="356.3535" x="1518.34" y="97.4883"/><rect fill="#F3F4F6" height="10" style="stroke:#D1D5DB;stroke-width:0.5;" width="15" x="1854.6935" y="102.4883"/><rect fill="#F3F4F6" height="2" style="stroke:#D1D5DB;stroke-width:0.5;" width="4" x="1852.6935" y="104.4883"/><rect fill="#F3F4F6" height="2" style="stroke:#D1D5DB;stroke-width:0.5;" width="4" x="1852.6935" y="108.4883"/><text fill="#333333" font-family="sans-serif" font-size="14" lengthAdjust="spacing" textLength="61.9951" x="1533.34" y="131.0234">server.py</text><text fill="#333333" font-family="sans-serif" font-size="14" lengthAdjust="spacing" textLength="316.3535" x="1533.34" y="147.5117">MCPServer (129 tools, slimmable via --profile)</text></g><!--entity CLI--><g class="entity" data-qualified-name="user surfaces.CLI" data-source-line="25" id="ent0003"><rect fill="#F3F4F6" height="62.9766" rx="2.5" ry="2.5" style="stroke:#D1D5DB;stroke-width:0.5;" width="300.5996" x="1183.22" y="97.4883"/><rect fill="#F3F4F6" height="10" style="stroke:#D1D5DB;stroke-width:0.5;" width="15" x="1463.8196" y="102.4883"/><rect fill="#F3F4F6" height="2" style="stroke:#D1D5DB;stroke-width:0.5;" width="4" x="1461.8196" y="104.4883"/><rect fill="#F3F4F6" height="2" style="stroke:#D1D5DB;stroke-width:0.5;" width="4" x="1461.8196" y="108.4883"/><text fill="#333333" font-family="sans-serif" font-size="14" lengthAdjust="spacing" textLength="35.8203" x="1198.22" y="131.0234">cli.py</text><text fill="#333333" font-family="sans-serif" font-size="14" lengthAdjust="spacing" textLength="260.5996" x="1198.22" y="147.5117">click: serve / test / scenario / persona</text></g><!--entity POOL--><g class="entity" data-qualified-name="live state.POOL" data-source-line="29" id="ent0005"><rect fill="#F3F4F6" height="62.9766" rx="2.5" ry="2.5" style="stroke:#D1D5DB;stroke-width:0.5;" width="189.6045" x="293.72" y="279.4583"/><rect fill="#F3F4F6" height="10" style="stroke:#D1D5DB;stroke-width:0.5;" width="15" x="463.3245" y="284.4583"/><rect fill="#F3F4F6" height="2" style="stroke:#D1D5DB;stroke-width:0.5;" width="4" x="461.3245" y="286.4583"/><rect fill="#F3F4F6" height="2" style="stroke:#D1D5DB;stroke-width:0.5;" width="4" x="461.3245" y="290.4583"/><text fill="#333333" font-family="sans-serif" font-size="14" lengthAdjust="spacing" textLength="82.8174" x="308.72" y="312.9934">BrowserPool</text><text fill="#333333" font-family="sans-serif" font-size="14" lengthAdjust="spacing" textLength="149.6045" x="308.72" y="329.4817">browser_pool/pool.py</text></g><!--entity SESSION--><g class="entity" data-qualified-name="live state.SESSION" data-source-line="30" id="ent0006"><rect fill="#F3F4F6" height="62.9766" rx="2.5" ry="2.5" style="stroke:#D1D5DB;stroke-width:0.5;" width="147.7412" x="532.65" y="419.4383"/><rect fill="#F3F4F6" height="10" style="stroke:#D1D5DB;stroke-width:0.5;" width="15" x="660.3912" y="424.4383"/><rect fill="#F3F4F6" height="2" style="stroke:#D1D5DB;stroke-width:0.5;" width="4" x="658.3912" y="426.4383"/><rect fill="#F3F4F6" height="2" style="stroke:#D1D5DB;stroke-width:0.5;" width="4" x="658.3912" y="430.4383"/><text fill="#333333" font-family="sans-serif" font-size="14" lengthAdjust="spacing" textLength="104.7813" x="547.65" y="452.9734">BrowserSession</text><text fill="#333333" font-family="sans-serif" font-size="14" lengthAdjust="spacing" textLength="107.7412" x="547.65" y="469.4617">session/core.py</text></g><!--entity SPOOL--><g class="entity" data-qualified-name="live state.SPOOL" data-source-line="31" id="ent0007"><rect fill="#F3F4F6" height="62.9766" rx="2.5" ry="2.5" style="stroke:#D1D5DB;stroke-width:0.5;" width="161.6523" x="518.69" y="279.4583"/><rect fill="#F3F4F6" height="10" style="stroke:#D1D5DB;stroke-width:0.5;" width="15" x="660.3423" y="284.4583"/><rect fill="#F3F4F6" height="2" style="stroke:#D1D5DB;stroke-width:0.5;" width="4" x="658.3423" y="286.4583"/><rect fill="#F3F4F6" height="2" style="stroke:#D1D5DB;stroke-width:0.5;" width="4" x="658.3423" y="290.4583"/><text fill="#333333" font-family="sans-serif" font-size="14" lengthAdjust="spacing" textLength="86.29" x="533.69" y="312.9934">ScenarioPool</text><text fill="#333333" font-family="sans-serif" font-size="14" lengthAdjust="spacing" textLength="121.6523" x="533.69" y="329.4817">scenarios_pool.py</text></g><!--entity PERSONAS--><g class="entity" data-qualified-name="domain modules.PERSONAS" data-source-line="35" id="ent0009"><rect fill="#F3F4F6" height="62.9766" rx="2.5" ry="2.5" style="stroke:#D1D5DB;stroke-width:0.5;" width="238.1807" x="1067.43" y="419.4383"/><rect fill="#F3F4F6" height="10" style="stroke:#D1D5DB;stroke-width:0.5;" width="15" x="1285.6107" y="424.4383"/><rect fill="#F3F4F6" height="2" style="stroke:#D1D5DB;stroke-width:0.5;" width="4" x="1283.6107" y="426.4383"/><rect fill="#F3F4F6" height="2" style="stroke:#D1D5DB;stroke-width:0.5;" width="4" x="1283.6107" y="430.4383"/><text fill="#333333" font-family="sans-serif" font-size="14" lengthAdjust="spacing" textLength="82.1885" x="1082.43" y="452.9734">personas.py</text><text fill="#333333" font-family="sans-serif" font-size="14" lengthAdjust="spacing" textLength="198.1807" x="1082.43" y="469.4617">Persona, load, migrate, creds</text></g><!--entity ENGPROF--><g class="entity" data-qualified-name="domain modules.ENGPROF" data-source-line="36" id="ent0010"><rect fill="#F3F4F6" height="62.9766" rx="2.5" ry="2.5" style="stroke:#D1D5DB;stroke-width:0.5;" width="209.9824" x="965.53" y="279.4583"/><rect fill="#F3F4F6" height="10" style="stroke:#D1D5DB;stroke-width:0.5;" width="15" x="1155.5124" y="284.4583"/><rect fill="#F3F4F6" height="2" style="stroke:#D1D5DB;stroke-width:0.5;" width="4" x="1153.5124" y="286.4583"/><rect fill="#F3F4F6" height="2" style="stroke:#D1D5DB;stroke-width:0.5;" width="4" x="1153.5124" y="290.4583"/><text fill="#333333" font-family="sans-serif" font-size="14" lengthAdjust="spacing" textLength="124.626" x="980.53" y="312.9934">engine_profiles.py</text><text fill="#333333" font-family="sans-serif" font-size="14" lengthAdjust="spacing" textLength="169.9824" x="980.53" y="329.4817">engine-profile path layer</text></g><!--entity SCENARIOS--><g class="entity" data-qualified-name="domain modules.SCENARIOS" data-source-line="37" id="ent0011"><rect fill="#F3F4F6" height="62.9766" rx="2.5" ry="2.5" style="stroke:#D1D5DB;stroke-width:0.5;" width="237.0459" x="1211" y="279.4583"/><rect fill="#F3F4F6" height="10" style="stroke:#D1D5DB;stroke-width:0.5;" width="15" x="1428.0459" y="284.4583"/><rect fill="#F3F4F6" height="2" style="stroke:#D1D5DB;stroke-width:0.5;" width="4" x="1426.0459" y="286.4583"/><rect fill="#F3F4F6" height="2" style="stroke:#D1D5DB;stroke-width:0.5;" width="4" x="1426.0459" y="290.4583"/><text fill="#333333" font-family="sans-serif" font-size="14" lengthAdjust="spacing" textLength="84.5947" x="1226" y="312.9934">scenarios.py</text><text fill="#333333" font-family="sans-serif" font-size="14" lengthAdjust="spacing" textLength="197.0459" x="1226" y="329.4817">Scenario, Participant, loaders</text></g><!--entity MACROS--><g class="entity" data-qualified-name="domain modules.MACROS" data-source-line="38" id="ent0012"><rect fill="#F3F4F6" height="62.9766" rx="2.5" ry="2.5" style="stroke:#D1D5DB;stroke-width:0.5;" width="302.8623" x="1690.09" y="419.4383"/><rect fill="#F3F4F6" height="10" style="stroke:#D1D5DB;stroke-width:0.5;" width="15" x="1972.9523" y="424.4383"/><rect fill="#F3F4F6" height="2" style="stroke:#D1D5DB;stroke-width:0.5;" width="4" x="1970.9523" y="426.4383"/><rect fill="#F3F4F6" height="2" style="stroke:#D1D5DB;stroke-width:0.5;" width="4" x="1970.9523" y="430.4383"/><text fill="#333333" font-family="sans-serif" font-size="14" lengthAdjust="spacing" textLength="56.7793" x="1705.09" y="452.9734">macros/</text><text fill="#333333" font-family="sans-serif" font-size="14" lengthAdjust="spacing" textLength="262.8623" x="1705.09" y="469.4617">storage, import, substitute, run, repair</text></g><!--entity RUNNER--><g class="entity" data-qualified-name="domain modules.RUNNER" data-source-line="39" id="ent0013"><rect fill="#F3F4F6" height="62.9766" rx="2.5" ry="2.5" style="stroke:#D1D5DB;stroke-width:0.5;" width="236.1094" x="1723.46" y="279.4583"/><rect fill="#F3F4F6" height="10" style="stroke:#D1D5DB;stroke-width:0.5;" width="15" x="1939.5694" y="284.4583"/><rect fill="#F3F4F6" height="2" style="stroke:#D1D5DB;stroke-width:0.5;" width="4" x="1937.5694" y="286.4583"/><rect fill="#F3F4F6" height="2" style="stroke:#D1D5DB;stroke-width:0.5;" width="4" x="1937.5694" y="290.4583"/><text fill="#333333" font-family="sans-serif" font-size="14" lengthAdjust="spacing" textLength="65.8779" x="1738.46" y="312.9934">runner.py</text><text fill="#333333" font-family="sans-serif" font-size="14" lengthAdjust="spacing" textLength="196.1094" x="1738.46" y="329.4817">test-macro discovery + JUnit</text></g><!--entity GOLDENS--><g class="entity" data-qualified-name="domain modules.GOLDENS" data-source-line="40" id="ent0014"><rect fill="#F3F4F6" height="62.9766" rx="2.5" ry="2.5" style="stroke:#D1D5DB;stroke-width:0.5;" width="216.6406" x="1994.2" y="279.4583"/><rect fill="#F3F4F6" height="10" style="stroke:#D1D5DB;stroke-width:0.5;" width="15" x="2190.8406" y="284.4583"/><rect fill="#F3F4F6" height="2" style="stroke:#D1D5DB;stroke-width:0.5;" width="4" x="2188.8406" y="286.4583"/><rect fill="#F3F4F6" height="2" style="stroke:#D1D5DB;stroke-width:0.5;" width="4" x="2188.8406" y="290.4583"/><text fill="#333333" font-family="sans-serif" font-size="14" lengthAdjust="spacing" textLength="74.3682" x="2009.2" y="312.9934">goldens.py</text><text fill="#333333" font-family="sans-serif" font-size="14" lengthAdjust="spacing" textLength="176.6406" x="2009.2" y="329.4817">aria-tree snapshots + diff</text></g><!--entity VIDEO--><g class="entity" data-qualified-name="domain modules.VIDEO" data-source-line="41" id="ent0015"><rect fill="#F3F4F6" height="62.9766" rx="2.5" ry="2.5" style="stroke:#D1D5DB;stroke-width:0.5;" width="205.8672" x="1482.59" y="279.4583"/><rect fill="#F3F4F6" height="10" style="stroke:#D1D5DB;stroke-width:0.5;" width="15" x="1668.4572" y="284.4583"/><rect fill="#F3F4F6" height="2" style="stroke:#D1D5DB;stroke-width:0.5;" width="4" x="1666.4572" y="286.4583"/><rect fill="#F3F4F6" height="2" style="stroke:#D1D5DB;stroke-width:0.5;" width="4" x="1666.4572" y="290.4583"/><text fill="#333333" font-family="sans-serif" font-size="14" lengthAdjust="spacing" textLength="57.0596" x="1497.59" y="312.9934">video.py</text><text fill="#333333" font-family="sans-serif" font-size="14" lengthAdjust="spacing" textLength="165.8672" x="1497.59" y="329.4817">ffmpeg frame extraction</text></g><!--entity STABILIZE--><g class="entity" data-qualified-name="domain modules.STABILIZE" data-source-line="42" id="ent0016"><rect fill="#F3F4F6" height="62.9766" rx="2.5" ry="2.5" style="stroke:#D1D5DB;stroke-width:0.5;" width="194.4443" x="736.3" y="279.4583"/><rect fill="#F3F4F6" height="10" style="stroke:#D1D5DB;stroke-width:0.5;" width="15" x="910.7443" y="284.4583"/><rect fill="#F3F4F6" height="2" style="stroke:#D1D5DB;stroke-width:0.5;" width="4" x="908.7443" y="286.4583"/><rect fill="#F3F4F6" height="2" style="stroke:#D1D5DB;stroke-width:0.5;" width="4" x="908.7443" y="290.4583"/><text fill="#333333" font-family="sans-serif" font-size="14" lengthAdjust="spacing" textLength="77.4375" x="751.3" y="312.9934">stabilize.py</text><text fill="#333333" font-family="sans-serif" font-size="14" lengthAdjust="spacing" textLength="154.4443" x="751.3" y="329.4817">determinism init script</text></g><!--entity GATE--><g class="entity" data-qualified-name="session modules.GATE" data-source-line="46" id="ent0018"><rect fill="#F3F4F6" height="79.4648" rx="2.5" ry="2.5" style="stroke:#D1D5DB;stroke-width:0.5;" width="313.5469" x="278.75" y="601.4183"/><rect fill="#F3F4F6" height="10" style="stroke:#D1D5DB;stroke-width:0.5;" width="15" x="572.2969" y="606.4183"/><rect fill="#F3F4F6" height="2" style="stroke:#D1D5DB;stroke-width:0.5;" width="4" x="570.2969" y="608.4183"/><rect fill="#F3F4F6" height="2" style="stroke:#D1D5DB;stroke-width:0.5;" width="4" x="570.2969" y="612.4183"/><text fill="#333333" font-family="sans-serif" font-size="14" lengthAdjust="spacing" textLength="180.1816" x="293.75" y="634.9534">session/operation_gate.py</text><text fill="#333333" font-family="sans-serif" font-size="14" lengthAdjust="spacing" textLength="273.5469" x="293.75" y="651.4417">SessionOperationGate: FIFO per-session</text><text fill="#333333" font-family="sans-serif" font-size="14" lengthAdjust="spacing" textLength="240.9531" x="293.75" y="667.93">serialization, exact-task reentrancy</text></g><!--entity SF--><g class="entity" data-qualified-name="session modules.SF" data-source-line="47" id="ent0019"><rect fill="#F3F4F6" height="46.4883" rx="2.5" ry="2.5" style="stroke:#D1D5DB;stroke-width:0.5;" width="165.0566" x="626.99" y="617.9083"/><rect fill="#F3F4F6" height="10" style="stroke:#D1D5DB;stroke-width:0.5;" width="15" x="772.0466" y="622.9083"/><rect fill="#F3F4F6" height="2" style="stroke:#D1D5DB;stroke-width:0.5;" width="4" x="770.0466" y="624.9083"/><rect fill="#F3F4F6" height="2" style="stroke:#D1D5DB;stroke-width:0.5;" width="4" x="770.0466" y="628.9083"/><text fill="#333333" font-family="sans-serif" font-size="14" lengthAdjust="spacing" textLength="125.0566" x="641.99" y="651.4434">session/frames.py</text></g><!--entity SD--><g class="entity" data-qualified-name="session modules.SD" data-source-line="48" id="ent0020"><rect fill="#F3F4F6" height="46.4883" rx="2.5" ry="2.5" style="stroke:#D1D5DB;stroke-width:0.5;" width="191.6553" x="826.69" y="617.9083"/><rect fill="#F3F4F6" height="10" style="stroke:#D1D5DB;stroke-width:0.5;" width="15" x="998.3453" y="622.9083"/><rect fill="#F3F4F6" height="2" style="stroke:#D1D5DB;stroke-width:0.5;" width="4" x="996.3453" y="624.9083"/><rect fill="#F3F4F6" height="2" style="stroke:#D1D5DB;stroke-width:0.5;" width="4" x="996.3453" y="628.9083"/><text fill="#333333" font-family="sans-serif" font-size="14" lengthAdjust="spacing" textLength="151.6553" x="841.69" y="651.4434">session/downloads.py</text></g><!--entity SL--><g class="entity" data-qualified-name="session modules.SL" data-source-line="49" id="ent0021"><rect fill="#F3F4F6" height="46.4883" rx="2.5" ry="2.5" style="stroke:#D1D5DB;stroke-width:0.5;" width="172.6924" x="71.17" y="617.9083"/><rect fill="#F3F4F6" height="10" style="stroke:#D1D5DB;stroke-width:0.5;" width="15" x="223.8624" y="622.9083"/><rect fill="#F3F4F6" height="2" style="stroke:#D1D5DB;stroke-width:0.5;" width="4" x="221.8624" y="624.9083"/><rect fill="#F3F4F6" height="2" style="stroke:#D1D5DB;stroke-width:0.5;" width="4" x="221.8624" y="628.9083"/><text fill="#333333" font-family="sans-serif" font-size="14" lengthAdjust="spacing" textLength="132.6924" x="86.17" y="651.4434">session/locators.py</text></g><!--entity DEFAULTS--><g class="entity" data-qualified-name="infrastructure.DEFAULTS" data-source-line="53" id="ent0023"><rect fill="#F3F4F6" height="62.9766" rx="2.5" ry="2.5" style="stroke:#D1D5DB;stroke-width:0.5;" width="153.5996" x="1368.72" y="609.6583"/><rect fill="#F3F4F6" height="10" style="stroke:#D1D5DB;stroke-width:0.5;" width="15" x="1502.3196" y="614.6583"/><rect fill="#F3F4F6" height="2" style="stroke:#D1D5DB;stroke-width:0.5;" width="4" x="1500.3196" y="616.6583"/><rect fill="#F3F4F6" height="2" style="stroke:#D1D5DB;stroke-width:0.5;" width="4" x="1500.3196" y="620.6583"/><text fill="#333333" font-family="sans-serif" font-size="14" lengthAdjust="spacing" textLength="75.1543" x="1383.72" y="643.1934">defaults.py</text><text fill="#333333" font-family="sans-serif" font-size="14" lengthAdjust="spacing" textLength="113.5996" x="1383.72" y="659.6817">env vars + paths</text></g><!--entity RECORDER--><g class="entity" data-qualified-name="infrastructure.RECORDER" data-source-line="54" id="ent0024"><rect fill="#F3F4F6" height="62.9766" rx="2.5" ry="2.5" style="stroke:#D1D5DB;stroke-width:0.5;" width="172.4121" x="1557.31" y="609.6583"/><rect fill="#F3F4F6" height="10" style="stroke:#D1D5DB;stroke-width:0.5;" width="15" x="1709.7221" y="614.6583"/><rect fill="#F3F4F6" height="2" style="stroke:#D1D5DB;stroke-width:0.5;" width="4" x="1707.7221" y="616.6583"/><rect fill="#F3F4F6" height="2" style="stroke:#D1D5DB;stroke-width:0.5;" width="4" x="1707.7221" y="620.6583"/><text fill="#333333" font-family="sans-serif" font-size="14" lengthAdjust="spacing" textLength="77.9229" x="1572.31" y="643.1934">recorder.py</text><text fill="#333333" font-family="sans-serif" font-size="14" lengthAdjust="spacing" textLength="132.4121" x="1572.31" y="659.6817">append-only JSONL</text></g><!--entity EXPORT--><g class="entity" data-qualified-name="infrastructure.EXPORT" data-source-line="55" id="ent0025"><rect fill="#F3F4F6" height="62.9766" rx="2.5" ry="2.5" style="stroke:#D1D5DB;stroke-width:0.5;" width="241.8447" x="1764.6" y="609.6583"/><rect fill="#F3F4F6" height="10" style="stroke:#D1D5DB;stroke-width:0.5;" width="15" x="1986.4447" y="614.6583"/><rect fill="#F3F4F6" height="2" style="stroke:#D1D5DB;stroke-width:0.5;" width="4" x="1984.4447" y="616.6583"/><rect fill="#F3F4F6" height="2" style="stroke:#D1D5DB;stroke-width:0.5;" width="4" x="1984.4447" y="620.6583"/><text fill="#333333" font-family="sans-serif" font-size="14" lengthAdjust="spacing" textLength="65.3174" x="1779.6" y="643.1934">export.py</text><text fill="#333333" font-family="sans-serif" font-size="14" lengthAdjust="spacing" textLength="201.8447" x="1779.6" y="659.6817">recording &#8594; playwright script</text></g><!--entity UPGRADE--><g class="entity" data-qualified-name="infrastructure.UPGRADE" data-source-line="56" id="ent0026"><rect fill="#F3F4F6" height="62.9766" rx="2.5" ry="2.5" style="stroke:#D1D5DB;stroke-width:0.5;" width="269.5371" x="2041.75" y="609.6583"/><rect fill="#F3F4F6" height="10" style="stroke:#D1D5DB;stroke-width:0.5;" width="15" x="2291.2871" y="614.6583"/><rect fill="#F3F4F6" height="2" style="stroke:#D1D5DB;stroke-width:0.5;" width="4" x="2289.2871" y="616.6583"/><rect fill="#F3F4F6" height="2" style="stroke:#D1D5DB;stroke-width:0.5;" width="4" x="2289.2871" y="620.6583"/><text fill="#333333" font-family="sans-serif" font-size="14" lengthAdjust="spacing" textLength="76.8564" x="2056.75" y="643.1934">upgrade.py</text><text fill="#333333" font-family="sans-serif" font-size="14" lengthAdjust="spacing" textLength="229.5371" x="2056.75" y="659.6817">post-upgrade "what's new" notice</text></g><!--entity PW--><g class="entity" data-qualified-name="PW" data-source-line="61" id="ent0027"><path d="M633.4373,752.9547 C637.0212,747.7269 642.3744,747.2438 646.1842,752.685 C650.1994,746.2304 655.8113,746.5773 659.8681,752.6394 C663.173,747.1904 667.9589,746.9961 672.0526,751.6921 C675.9656,745.5671 682.2606,745.5005 686.0994,751.7762 C688.5269,745.8241 693.5362,745.2483 697.7976,749.7176 C701.285,744.8981 707.0151,745.2801 709.7863,750.5673 C714.3263,743.8909 720.1348,744.002 724.3873,750.8771 C727.4745,746.3218 732.8298,745.6546 735.7844,751.0293 C740.043,744.4897 743.8942,745.9213 748.2499,750.9244 C751.9383,745.1541 758.3737,743.4665 762.0511,750.9359 C765.5349,746.1066 770.401,746.6951 773.3911,751.5161 C777.499,745.8579 784.6012,745.1503 787.8556,752.4676 C797.5251,754.0185 799.4463,761.0264 793.1968,768.0381 C799.6322,775.6512 797.2569,782.004 787.5207,783.7896 C782.8558,791.6839 778.2817,790.1524 773.3386,784.0719 C769.5651,789.7304 765.881,789.3908 761.8496,784.3488 C757.6373,791.2151 753.1469,791.2902 748.4654,784.8197 C744.4301,791.2263 738.4641,789.2754 735.4136,783.7431 C731.6805,790.6402 727.0703,790.8034 722.2353,784.8752 C719.123,791.546 713.8935,790.9547 710.263,785.3819 C706.2058,790.0261 701.6343,791.372 698.3308,784.5945 C694.3404,790.4157 688.914,789.9489 686.0178,783.4968 C681.5869,790.5201 677.0094,789.4634 672.1632,783.9559 C668.1349,791.0989 663.2499,789.8296 659.0959,784.0833 C655.6401,790.1795 649.6273,790.3025 646.4368,783.8164 C641.4453,790.144 637.7419,788.673 633.9225,782.6307 C625.9439,781.27 623.8966,774.2332 628.7898,768.2715 C623.6544,761.9229 624.6512,755.0792 633.4373,752.9547" fill="#F1F1F1" style="stroke:#181818;stroke-width:0.5;"/><text fill="#333333" font-family="sans-serif" font-size="14" lengthAdjust="spacing" textLength="138.3799" x="640.33" y="772.4134">Playwright async API</text></g><!--link CLI to POOL--><g class="link" data-entity-1="ent0003" data-entity-2="ent0005" data-link-type="dependency" data-source-line="64" id="lnk28"><path d="M1183.13,133.0183 C948.38,138.8983 515.41,154.7583 455.52,192.4583 C424.52,211.9783 408.0247,246.6028 398.6147,274.3728" fill="none" id="CLI-to-POOL" style="stroke:#2563EB;stroke-width:1;"/><polygon fill="#2563EB" points="397.01,279.1083,403.6868,271.8681,398.6147,274.3728,396.11,269.3006,397.01,279.1083" style="stroke:#2563EB;stroke-width:1;stroke-linejoin:miter;stroke-miterlimit:10;"/></g><!--link CLI to SPOOL--><g class="link" data-entity-1="ent0003" data-entity-2="ent0007" data-link-type="dependency" data-source-line="65" id="lnk29"><path d="M1183.06,129.9783 C948.61,131.5883 517.9,141.5283 470.52,192.4583 C443.57,221.4383 498.59,216.3983 500.52,217.4583 C528.91,233.1983 552.0981,255.1373 570.5381,275.4373" fill="none" id="CLI-to-SPOOL" style="stroke:#2563EB;stroke-width:1;"/><polygon fill="#2563EB" points="573.9,279.1383,570.8094,269.7869,570.5381,275.4373,564.8877,275.166,573.9,279.1383" style="stroke:#2563EB;stroke-width:1;stroke-linejoin:miter;stroke-miterlimit:10;"/></g><!--link SERVER to POOL--><g class="link" data-entity-1="ent0002" data-entity-2="ent0005" data-link-type="dependency" data-source-line="66" id="lnk30"><path d="M1605.33,160.8283 C1572.95,170.3483 1535.98,179.5983 1501.52,184.4583 C1474.01,188.3483 527.03,181.4783 501.52,192.4583 C460.58,210.0883 430.073,246.3683 410.483,274.8583" fill="none" id="SERVER-to-POOL" style="stroke:#2563EB;stroke-width:1;"/><polygon fill="#2563EB" points="407.65,278.9783,416.0453,273.8286,410.483,274.8583,409.4533,269.2959,407.65,278.9783" style="stroke:#2563EB;stroke-width:1;stroke-linejoin:miter;stroke-miterlimit:10;"/></g><!--link SERVER to SPOOL--><g class="link" data-entity-1="ent0002" data-entity-2="ent0007" data-link-type="dependency" data-source-line="67" id="lnk31"><path d="M1605.33,160.8283 C1572.95,170.3483 1535.98,179.5983 1501.52,184.4583 C1488,186.3683 528.13,182.7683 518.52,192.4583 C492.61,218.5783 520.1259,250.7796 551.0759,275.8696" fill="none" id="SERVER-to-SPOOL" style="stroke:#2563EB;stroke-width:1;"/><polygon fill="#2563EB" points="554.96,279.0183,550.4876,270.2434,551.0759,275.8696,545.4498,276.4579,554.96,279.0183" style="stroke:#2563EB;stroke-width:1;stroke-linejoin:miter;stroke-miterlimit:10;"/></g><!--reverse link POOL to SESSION--><g class="link" data-entity-1="ent0005" data-entity-2="ent0006" data-link-type="composition" data-source-line="70" id="lnk32"><path d="M447.5808,349.3343 C483.4908,372.0543 521.89,396.3683 557.76,419.0683" fill="none" id="POOL-backto-SESSION" style="stroke:#2563EB;stroke-width:1;"/><polygon fill="#2563EB" points="437.44,342.9183,440.3717,349.5065,447.5808,349.3343,444.649,342.746,437.44,342.9183" style="stroke:#2563EB;stroke-width:1;stroke-linejoin:miter;stroke-miterlimit:10;"/><text fill="#333333" font-family="sans-serif" font-size="13" lengthAdjust="spacing" textLength="32.6968" x="511.57" y="386.0066">owns</text><text fill="#333333" font-family="sans-serif" font-size="13" lengthAdjust="spacing" textLength="8.2202" x="438.0234" y="363.0405">1</text><text fill="#333333" font-family="sans-serif" font-size="13" lengthAdjust="spacing" textLength="6.2651" x="541.1117" y="408.551">*</text></g><!--reverse link SPOOL to SESSION--><g class="link" data-entity-1="ent0007" data-entity-2="ent0006" data-link-type="aggregation" data-source-line="71" id="lnk33"><path d="M601.6966,354.9029 C602.8466,377.6229 603.8,396.3683 604.95,419.0683" fill="none" id="SPOOL-backto-SESSION" style="stroke:#2563EB;stroke-width:1;"/><polygon fill="none" points="601.09,342.9183,597.3984,349.1128,601.6966,354.9029,605.3882,348.7084,601.09,342.9183" style="stroke:#2563EB;stroke-width:1;stroke-linejoin:miter;stroke-miterlimit:10;"/><text fill="#333333" font-family="sans-serif" font-size="13" lengthAdjust="spacing" textLength="74.6357" x="604.44" y="386.0066">participants</text><text fill="#333333" font-family="sans-serif" font-size="13" lengthAdjust="spacing" textLength="8.2202" x="592.6485" y="363.0405">1</text><text fill="#333333" font-family="sans-serif" font-size="13" lengthAdjust="spacing" textLength="6.2651" x="598.0347" y="408.551">*</text></g><!--reverse link SESSION to GATE--><g class="link" data-entity-1="ent0006" data-entity-2="ent0018" data-link-type="composition" data-source-line="72" id="lnk34"><path d="M570.5916,491.4709 C541.2616,523.7609 503.04,565.8283 471.08,601.0083" fill="none" id="SESSION-backto-GATE" style="stroke:#2563EB;stroke-width:1;"/><polygon fill="#2563EB" points="578.66,482.5883,571.6649,484.3401,570.5916,491.4709,577.5867,489.7191,578.66,482.5883" style="stroke:#2563EB;stroke-width:1;stroke-linejoin:miter;stroke-miterlimit:10;"/><text fill="#333333" font-family="sans-serif" font-size="13" lengthAdjust="spacing" textLength="32.6968" x="547.33" y="527.9866">owns</text><text fill="#333333" font-family="sans-serif" font-size="13" lengthAdjust="spacing" textLength="8.2202" x="564.4091" y="502.8972">1</text><text fill="#333333" font-family="sans-serif" font-size="13" lengthAdjust="spacing" textLength="8.2202" x="468.3248" y="590.7116">1</text></g><!--link SESSION to SF--><g class="link" data-entity-1="ent0006" data-entity-2="ent0019" data-link-type="dependency" data-source-line="73" id="lnk35"><path d="M623.3,482.5883 C643.99,520.3983 676.2794,579.4123 694.7194,613.1023" fill="none" id="SESSION-to-SF" style="stroke:#2563EB;stroke-width:1;stroke-dasharray:7,7;"/><polygon fill="#2563EB" points="697.12,617.4883,696.3076,607.673,694.7194,613.1023,689.2901,611.514,697.12,617.4883" style="stroke:#2563EB;stroke-width:1;stroke-linejoin:miter;stroke-miterlimit:10;"/></g><!--link SESSION to SD--><g class="link" data-entity-1="ent0006" data-entity-2="ent0020" data-link-type="dependency" data-source-line="74" id="lnk36"><path d="M668.47,482.7983 C685.23,490.7983 703.45,499.1883 720.52,506.4183 C759.37,522.8583 773.37,517.6683 809.52,539.4183 C845.55,561.0883 877.2354,591.3941 898.5254,613.7941" fill="none" id="SESSION-to-SD" style="stroke:#2563EB;stroke-width:1;stroke-dasharray:7,7;"/><polygon fill="#2563EB" points="901.97,617.4183,898.6691,608.1391,898.5254,613.7941,892.8704,613.6504,901.97,617.4183" style="stroke:#2563EB;stroke-width:1;stroke-linejoin:miter;stroke-miterlimit:10;"/></g><!--link SESSION to SL--><g class="link" data-entity-1="ent0006" data-entity-2="ent0021" data-link-type="dependency" data-source-line="75" id="lnk37"><path d="M532.41,459.4683 C459.62,469.3883 347.32,491.5483 261.52,539.4183 C225.74,559.3783 196.5186,590.8823 177.7186,613.9523" fill="none" id="SESSION-to-SL" style="stroke:#2563EB;stroke-width:1;stroke-dasharray:7,7;"/><polygon fill="#2563EB" points="174.56,617.8283,183.3463,613.3784,177.7186,613.9523,177.1447,608.3246,174.56,617.8283" style="stroke:#2563EB;stroke-width:1;stroke-linejoin:miter;stroke-miterlimit:10;"/></g><!--link POOL to ENGPROF--><g class="link" data-entity-1="ent0005" data-entity-2="ent0010" data-link-type="dependency" data-source-line="78" id="lnk38"><path d="M417.14,279.0083 C438.14,258.0983 468.63,232.6083 501.52,221.1283 C595.3,188.3883 854.14,190.1283 948.52,221.1283 C983.25,232.5383 1012.5492,254.6651 1035.4392,275.5851" fill="none" id="POOL-to-ENGPROF" style="stroke:#2563EB;stroke-width:1;stroke-dasharray:7,7;"/><polygon fill="#2563EB" points="1039.13,278.9583,1035.1851,269.934,1035.4392,275.5851,1029.7881,275.8393,1039.13,278.9583" style="stroke:#2563EB;stroke-width:1;stroke-linejoin:miter;stroke-miterlimit:10;"/><text fill="#333333" font-family="sans-serif" font-size="13" lengthAdjust="spacing" textLength="113.769" x="521.02" y="206.0266">engine_profile_dir</text></g><!--link POOL to STABILIZE--><g class="link" data-entity-1="ent0005" data-entity-2="ent0016" data-link-type="dependency" data-source-line="79" id="lnk39"><path d="M417.14,279.0083 C438.14,258.0983 468.63,232.6083 501.52,221.1283 C583.34,192.5683 613.48,196.3283 696.52,221.1283 C734.54,232.4783 767.9079,254.9895 793.9479,275.9895" fill="none" id="POOL-to-STABILIZE" style="stroke:#2563EB;stroke-width:1;stroke-dasharray:7,7;"/><polygon fill="#2563EB" points="797.84,279.1283,793.3453,270.3649,793.9479,275.9895,788.3233,276.5922,797.84,279.1283" style="stroke:#2563EB;stroke-width:1;stroke-linejoin:miter;stroke-miterlimit:10;"/><text fill="#333333" font-family="sans-serif" font-size="13" lengthAdjust="spacing" textLength="59.9663" x="641.02" y="206.0266">init script</text></g><!--link SCENARIOS to PERSONAS--><g class="link" data-entity-1="ent0011" data-entity-2="ent0009" data-link-type="dependency" data-source-line="80" id="lnk40"><path d="M1304.99,342.9283 C1292.81,357.6083 1277.53,375.0283 1262.52,389.4383 C1251.81,399.7183 1243.4085,406.9726 1231.8385,416.1426" fill="none" id="SCENARIOS-to-PERSONAS" style="stroke:#2563EB;stroke-width:1;stroke-dasharray:7,7;"/><polygon fill="#2563EB" points="1227.92,419.2483,1237.4579,416.7929,1231.8385,416.1426,1232.4888,410.5232,1227.92,419.2483" style="stroke:#2563EB;stroke-width:1;stroke-linejoin:miter;stroke-miterlimit:10;"/><text fill="#333333" font-family="sans-serif" font-size="13" lengthAdjust="spacing" textLength="182.3682" x="1279.24" y="386.0066">default URL / macros / creds</text></g><!--link SCENARIOS to MACROS--><g class="link" data-entity-1="ent0011" data-entity-2="ent0012" data-link-type="dependency" data-source-line="81" id="lnk41"><path d="M1444.42,342.9183 C1528.6,365.5983 1637.5423,394.9572 1721.7323,417.6472" fill="none" id="SCENARIOS-to-MACROS" style="stroke:#2563EB;stroke-width:1;stroke-dasharray:7,7;"/><polygon fill="#2563EB" points="1726.56,418.9483,1718.911,412.7441,1721.7323,417.6472,1716.8292,420.4685,1726.56,418.9483" style="stroke:#2563EB;stroke-width:1;stroke-linejoin:miter;stroke-miterlimit:10;"/><text fill="#333333" font-family="sans-serif" font-size="13" lengthAdjust="spacing" textLength="164.2139" x="1617.17" y="386.0066">run_macro per participant</text></g><!--link SCENARIOS to POOL--><g class="link" data-entity-1="ent0011" data-entity-2="ent0005" data-link-type="dependency" data-source-line="82" id="lnk42"><path d="M1293.84,279.1283 C1267.8,258.1283 1230.54,232.4783 1192.52,221.1283 C1118.95,199.1583 574.01,195.8283 501.52,221.1283 C468.63,232.6083 441.6831,254.5703 420.6831,275.4803" fill="none" id="SCENARIOS-to-POOL" style="stroke:#2563EB;stroke-width:1;stroke-dasharray:7,7;"/><polygon fill="#2563EB" points="417.14,279.0083,426.34,275.4925,420.6831,275.4803,420.6953,269.8235,417.14,279.0083" style="stroke:#2563EB;stroke-width:1;stroke-linejoin:miter;stroke-miterlimit:10;"/><text fill="#333333" font-family="sans-serif" font-size="13" lengthAdjust="spacing" textLength="83.9287" x="900.02" y="206.0266">spawn_roster</text></g><!--link RUNNER to MACROS--><g class="link" data-entity-1="ent0013" data-entity-2="ent0012" data-link-type="dependency" data-source-line="83" id="lnk43"><path d="M1841.52,342.9183 C1841.52,365.6383 1841.52,391.3683 1841.52,414.0683" fill="none" id="RUNNER-to-MACROS" style="stroke:#2563EB;stroke-width:1;stroke-dasharray:7,7;"/><polygon fill="#2563EB" points="1841.52,419.0683,1845.52,410.0683,1841.52,414.0683,1837.52,410.0683,1841.52,419.0683" style="stroke:#2563EB;stroke-width:1;stroke-linejoin:miter;stroke-miterlimit:10;"/></g><!--link RUNNER to POOL--><g class="link" data-entity-1="ent0013" data-entity-2="ent0005" data-link-type="dependency" data-source-line="84" id="lnk44"><path d="M1806.15,279.1283 C1780.31,258.1383 1743.32,232.4883 1705.52,221.1283 C1641.46,201.8783 564.67,199.0883 501.52,221.1283 C468.63,232.6083 441.6831,254.5703 420.6831,275.4803" fill="none" id="RUNNER-to-POOL" style="stroke:#2563EB;stroke-width:1;stroke-dasharray:7,7;"/><polygon fill="#2563EB" points="417.14,279.0083,426.34,275.4925,420.6831,275.4803,420.6953,269.8235,417.14,279.0083" style="stroke:#2563EB;stroke-width:1;stroke-linejoin:miter;stroke-miterlimit:10;"/><text fill="#333333" font-family="sans-serif" font-size="13" lengthAdjust="spacing" textLength="182.1968" x="1222.52" y="206.0266">ephemeral browser per [test]</text></g><!--link SERVER to RUNNER--><g class="link" data-entity-1="ent0002" data-entity-2="ent0013" data-link-type="dependency" data-source-line="85" id="lnk45"><path d="M1721.45,160.9083 C1748.08,193.9783 1786.9332,242.1947 1813.5432,275.2247" fill="none" id="SERVER-to-RUNNER" style="stroke:#2563EB;stroke-width:1;stroke-dasharray:7,7;"/><polygon fill="#2563EB" points="1816.68,279.1183,1814.1486,269.6003,1813.5432,275.2247,1807.9188,274.6192,1816.68,279.1183" style="stroke:#2563EB;stroke-width:1;stroke-linejoin:miter;stroke-miterlimit:10;"/></g><!--link SERVER to GOLDENS--><g class="link" data-entity-1="ent0002" data-entity-2="ent0014" data-link-type="dependency" data-source-line="86" id="lnk46"><path d="M1827.72,160.9583 C1876.19,174.9383 1930.7,193.7083 1977.52,217.4583 C2010.26,234.0683 2039.6397,255.9484 2063.5997,275.7984" fill="none" id="SERVER-to-GOLDENS" style="stroke:#2563EB;stroke-width:1;stroke-dasharray:7,7;"/><polygon fill="#2563EB" points="2067.45,278.9883,2063.0713,270.1663,2063.5997,275.7984,2057.9676,276.3268,2067.45,278.9883" style="stroke:#2563EB;stroke-width:1;stroke-linejoin:miter;stroke-miterlimit:10;"/></g><!--link SERVER to VIDEO--><g class="link" data-entity-1="ent0002" data-entity-2="ent0015" data-link-type="dependency" data-source-line="87" id="lnk47"><path d="M1677.44,160.9083 C1657.04,193.9783 1627.5346,241.8325 1607.1646,274.8625" fill="none" id="SERVER-to-VIDEO" style="stroke:#2563EB;stroke-width:1;stroke-dasharray:7,7;"/><polygon fill="#2563EB" points="1604.54,279.1183,1612.6689,273.5576,1607.1646,274.8625,1605.8596,269.3582,1604.54,279.1183" style="stroke:#2563EB;stroke-width:1;stroke-linejoin:miter;stroke-miterlimit:10;"/></g><!--link SERVER to MACROS--><g class="link" data-entity-1="ent0002" data-entity-2="ent0012" data-link-type="dependency" data-source-line="88" id="lnk48"><path d="M1875.04,132.6383 C2027.34,137.7383 2232.59,152.1683 2303.52,192.4583 C2390.23,241.7283 2406.15,277.7783 2437.52,372.4383 C2439.9,379.6083 2442.58,383.8283 2437.52,389.4383 C2408.19,421.8983 2164.9655,437.6055 1998.2455,444.7055" fill="none" id="SERVER-to-MACROS" style="stroke:#2563EB;stroke-width:1;stroke-dasharray:7,7;"/><polygon fill="#2563EB" points="1993.25,444.9183,2002.412,448.5317,1998.2455,444.7055,2002.0717,440.539,1993.25,444.9183" style="stroke:#2563EB;stroke-width:1;stroke-linejoin:miter;stroke-miterlimit:10;"/></g><!--link SERVER to UPGRADE--><g class="link" data-entity-1="ent0002" data-entity-2="ent0026" data-link-type="dependency" data-source-line="89" id="lnk49"><path d="M1874.86,140.3283 C2074.31,153.6683 2374.47,179.7383 2411.52,217.4583 C2467.56,274.5283 2497.43,316.5383 2464.52,389.4383 C2418.08,492.2983 2310.3689,566.7436 2240.5189,606.7436" fill="none" id="SERVER-to-UPGRADE" style="stroke:#2563EB;stroke-width:1;stroke-dasharray:7,7;"/><polygon fill="#2563EB" points="2236.18,609.2283,2245.9778,608.2269,2240.5189,606.7436,2242.0023,601.2847,2236.18,609.2283" style="stroke:#2563EB;stroke-width:1;stroke-linejoin:miter;stroke-miterlimit:10;"/><text fill="#333333" font-family="sans-serif" font-size="13" lengthAdjust="spacing" textLength="222.9741" x="2472.02" y="386.0066">upgrade block in octowright_status</text></g><!--link CLI to UPGRADE--><g class="link" data-entity-1="ent0003" data-entity-2="ent0026" data-link-type="dependency" data-source-line="90" id="lnk50"><path d="M1413.5,160.9183 C1440.71,170.1383 1471.57,179.1783 1500.52,184.4583 C1540.24,191.7083 2198.63,188.2683 2226.52,217.4583 C2331.05,326.8483 2238.7737,527.253 2196.6837,604.863" fill="none" id="CLI-to-UPGRADE" style="stroke:#2563EB;stroke-width:1;stroke-dasharray:7,7;"/><polygon fill="#2563EB" points="2194.3,609.2583,2202.1068,603.2538,2196.6837,604.863,2195.0744,599.4399,2194.3,609.2583" style="stroke:#2563EB;stroke-width:1;stroke-linejoin:miter;stroke-miterlimit:10;"/><text fill="#333333" font-family="sans-serif" font-size="13" lengthAdjust="spacing" textLength="157.5044" x="2274.05" y="386.0066">announce on leader start</text></g><!--link SESSION to RECORDER--><g class="link" data-entity-1="ent0006" data-entity-2="ent0024" data-link-type="dependency" data-source-line="93" id="lnk51"><path d="M659.29,482.8883 C678,492.2883 699.6,501.4383 720.52,506.4183 C761.28,516.1083 1055.65,512.7883 1097.52,514.4183 C1195.82,518.2383 1449.41,499.9283 1539.52,539.4183 C1573.59,554.3483 1599.9322,581.7536 1618.7022,605.5336" fill="none" id="SESSION-to-RECORDER" style="stroke:#2563EB;stroke-width:1;stroke-dasharray:7,7;"/><polygon fill="#2563EB" points="1621.8,609.4583,1619.3636,599.9155,1618.7022,605.5336,1613.0841,604.8721,1621.8,609.4583" style="stroke:#2563EB;stroke-width:1;stroke-linejoin:miter;stroke-miterlimit:10;"/><text fill="#333333" font-family="sans-serif" font-size="13" lengthAdjust="spacing" textLength="75.9497" x="1515.92" y="527.9866">every action</text></g><!--link SESSION to EXPORT--><g class="link" data-entity-1="ent0006" data-entity-2="ent0025" data-link-type="dependency" data-source-line="94" id="lnk52"><path d="M658.97,482.8883 C677.74,492.3483 699.47,501.5383 720.52,506.4183 C768.1,517.4283 1550.87,510.1083 1599.52,514.4183 C1665.97,520.2883 1686.05,513.4983 1747.52,539.4183 C1787.15,556.1183 1822.3885,582.9357 1848.7685,605.8957" fill="none" id="SESSION-to-EXPORT" style="stroke:#2563EB;stroke-width:1;stroke-dasharray:7,7;"/><polygon fill="#2563EB" points="1852.54,609.1783,1848.3773,600.2524,1848.7685,605.8957,1843.1251,606.2869,1852.54,609.1783" style="stroke:#2563EB;stroke-width:1;stroke-linejoin:miter;stroke-miterlimit:10;"/><text fill="#333333" font-family="sans-serif" font-size="13" lengthAdjust="spacing" textLength="71.1572" x="1724.89" y="527.9866">on demand</text></g><!--link ENGPROF to PERSONAS--><g class="link" data-entity-1="ent0010" data-entity-2="ent0009" data-link-type="dependency" data-source-line="95" id="lnk53"><path d="M1075.99,342.8583 C1079.84,358.0283 1086.19,375.8983 1096.52,389.4383 C1105.19,400.8183 1112.5695,407.8788 1124.3895,416.2488" fill="none" id="ENGPROF-to-PERSONAS" style="stroke:#2563EB;stroke-width:1;"/><polygon fill="#2563EB" points="1128.47,419.1383,1123.4367,410.6727,1124.3895,416.2488,1118.8134,417.2016,1128.47,419.1383" style="stroke:#2563EB;stroke-width:1;stroke-linejoin:miter;stroke-miterlimit:10;"/><text fill="#333333" font-family="sans-serif" font-size="13" lengthAdjust="spacing" textLength="160.6338" x="1097.52" y="386.0066">delegates path resolution</text></g><!--link SESSION to PW--><g class="link" data-entity-1="ent0006" data-entity-2="ent0027" data-link-type="dependency" data-source-line="98" id="lnk54"><path d="M661.57,482.8983 C679.81,491.8783 700.57,500.7783 720.52,506.4183 C788.04,525.4883 987.57,487.2783 1034.52,539.4183 C1083.73,594.0683 1081.46,648.2683 1034.52,704.8783 C1004.51,741.0683 884.9075,755.6653 799.0075,761.7453" fill="none" id="SESSION-to-PW" style="stroke:#2563EB;stroke-width:1;"/><polygon fill="#2563EB" points="794.02,762.0983,803.28,765.4529,799.0075,761.7453,802.7151,757.4728,794.02,762.0983" style="stroke:#2563EB;stroke-width:1;stroke-linejoin:miter;stroke-miterlimit:10;"/></g><!--link POOL to PW--><g class="link" data-entity-1="ent0005" data-entity-2="ent0027" data-link-type="dependency" data-source-line="99" id="lnk55"><path d="M303.33,342.9383 C223,377.2683 107.41,441.1283 55.52,539.4183 C21.18,604.4483 6,650.5083 55.52,704.8783 C93.17,746.2183 451.9816,760.0416 620.1016,764.3016" fill="none" id="POOL-to-PW" style="stroke:#2563EB;stroke-width:1;"/><polygon fill="#2563EB" points="625.1,764.4283,616.2042,760.2016,620.1016,764.3016,616.0016,768.199,625.1,764.4283" style="stroke:#2563EB;stroke-width:1;stroke-linejoin:miter;stroke-miterlimit:10;"/></g><!--link SF to PW--><!--link SD to PW--><!--link SL to PW--></g></svg>