<?plantuml 1.2026.2?><svg xmlns="http://www.w3.org/2000/svg" xmlns:xlink="http://www.w3.org/1999/xlink" contentStyleType="text/css" data-diagram-type="ACTIVITY" height="1462px" preserveAspectRatio="none" style="width:2232px;height:1462px;background:#FFFFFF;" version="1.1" viewBox="0 0 2232 1462" width="2232px" zoomAndPan="magnify"><title>Macro lifecycle &#8212; record, save, replay, test</title><defs/><g><g class="title" data-source-line="5"><text fill="#333333" font-family="sans-serif" font-size="14" font-weight="bold" lengthAdjust="spacing" textLength="306.2021" x="961.6997" y="33.5352">Macro lifecycle &#8212; record, save, replay, test</text></g><rect fill="none" height="21.1992" style="stroke:none;stroke-width:1;" width="2199.6016" x="15" y="49.7852"/><ellipse cx="136.75" cy="85.9844" fill="#222222" rx="10" ry="10" style="stroke:#222222;stroke-width:1;"/><rect fill="#F3F4F6" height="34.1328" rx="12.5" ry="12.5" style="stroke:#D1D5DB;stroke-width:0.5;" width="231.5" x="21" y="115.9844"/><text fill="#333333" font-family="sans-serif" font-size="12" lengthAdjust="spacing" textLength="211.5" x="31" y="137.5859">browser_launch + drive interactively</text><rect fill="#F3F4F6" height="48.2656" rx="12.5" ry="12.5" style="stroke:#D1D5DB;stroke-width:0.5;" width="227.1406" x="23.1797" y="170.1172"/><text fill="#333333" font-family="sans-serif" font-size="12" lengthAdjust="spacing" textLength="205.7051" x="33.1797" y="191.7188">every action recorded as JSONL line</text><text fill="#333333" font-family="sans-serif" font-size="12" lengthAdjust="spacing" textLength="207.1406" x="33.1797" y="205.8516">(recorder.record(...) &#10230; &lt;log&gt;.jsonl)</text><line style="stroke:#000000;stroke-width:1.5;" x1="15" x2="15" y1="49.7852" y2="1450.4141"/><path d="M517.3955,242.2051 L517.3955,258.5156 L497.3955,262.5156 L517.3955,266.5156 L517.3955,282.8262 A0,0 0 0 0 517.3955,282.8262 L770.3262,282.8262 A0,0 0 0 0 770.3262,282.8262 L770.3262,252.2051 L760.3262,242.2051 L517.3955,242.2051 A0,0 0 0 0 517.3955,242.2051" fill="#F9FAFB" style="stroke:#D1D5DB;stroke-width:0.5;"/><path d="M760.3262,242.2051 L760.3262,252.2051 L770.3262,252.2051 L760.3262,242.2051" fill="#F9FAFB" style="stroke:#D1D5DB;stroke-width:0.5;"/><text fill="#333333" font-family="sans-serif" font-size="13" lengthAdjust="spacing" textLength="231.9307" x="523.3955" y="259.7734">parameters are literal values to swap</text><text fill="#333333" font-family="sans-serif" font-size="13" lengthAdjust="spacing" textLength="158.0503" x="523.3955" y="275.084">for {{name}} placeholders</text><rect fill="#F3F4F6" height="48.2656" rx="12.5" ry="12.5" style="stroke:#D1D5DB;stroke-width:0.5;" width="214.7656" x="282.6299" y="238.3828"/><text fill="#333333" font-family="sans-serif" font-size="12" lengthAdjust="spacing" textLength="180.6035" x="292.6299" y="259.9844">macro_save(instance_id, name,</text><text fill="#333333" font-family="sans-serif" font-size="12" lengthAdjust="spacing" textLength="194.7656" x="292.6299" y="274.1172">parameters={"email":"me@x", ...})</text><rect fill="#F3F4F6" height="34.1328" rx="12.5" ry="12.5" style="stroke:#D1D5DB;stroke-width:0.5;" width="199.6484" x="290.1885" y="306.6484"/><text fill="#333333" font-family="sans-serif" font-size="12" lengthAdjust="spacing" textLength="179.6484" x="300.1885" y="328.25">strip launch / close / snapshot</text><rect fill="#F3F4F6" height="34.1328" rx="12.5" ry="12.5" style="stroke:#D1D5DB;stroke-width:0.5;" width="255.0254" x="262.5" y="360.7813"/><text fill="#333333" font-family="sans-serif" font-size="12" lengthAdjust="spacing" textLength="235.0254" x="272.5" y="382.3828">write JSON to MACROS_DIR/&lt;slug&gt;.json</text><line style="stroke:#000000;stroke-width:1.5;" x1="256.5" x2="256.5" y1="49.7852" y2="1450.4141"/><rect fill="#F3F4F6" height="48.2656" rx="12.5" ry="12.5" style="stroke:#D1D5DB;stroke-width:0.5;" width="194.7676" x="983.6392" y="414.9141"/><text fill="#333333" font-family="sans-serif" font-size="12" lengthAdjust="spacing" textLength="174.7676" x="993.6392" y="436.5156">macro_run(instance_id, name,</text><text fill="#333333" font-family="sans-serif" font-size="12" lengthAdjust="spacing" textLength="148.125" x="993.6392" y="450.6484">args={"email":"other@x"})</text><rect fill="#F3F4F6" height="34.1328" rx="12.5" ry="12.5" style="stroke:#D1D5DB;stroke-width:0.5;" width="256.5957" x="952.7251" y="483.1797"/><text fill="#333333" font-family="sans-serif" font-size="12" lengthAdjust="spacing" textLength="236.5957" x="962.7251" y="504.7813">load_macro &#8594; substitute {{...}} from args</text><rect fill="#F3F4F6" height="48.2656" rx="12.5" ry="12.5" style="stroke:#D1D5DB;stroke-width:0.5;" width="286.6016" x="937.7222" y="537.3125"/><text fill="#333333" font-family="sans-serif" font-size="12" lengthAdjust="spacing" textLength="263.4492" x="947.7222" y="558.9141">dispatch each action through BrowserSession</text><text fill="#333333" font-family="sans-serif" font-size="12" lengthAdjust="spacing" textLength="266.6016" x="947.7222" y="573.0469">(navigate, click, fill, expect_*, mock_route, ...)</text><polygon fill="#FEF3C7" points="1034.0554,605.5781,1127.9905,605.5781,1139.9905,617.5781,1127.9905,629.5781,1034.0554,629.5781,1022.0554,617.5781,1034.0554,605.5781" style="stroke:#D1D5DB;stroke-width:0.5;"/><text fill="#333333" font-family="sans-serif" font-size="11" lengthAdjust="spacing" textLength="93.9351" x="1034.0554" y="621.7354">any action raises?</text><text fill="#333333" font-family="sans-serif" font-size="11" lengthAdjust="spacing" textLength="17.4829" x="1004.5725" y="615.2578">yes</text><text fill="#333333" font-family="sans-serif" font-size="11" lengthAdjust="spacing" textLength="13.5835" x="1139.9905" y="615.2578">no</text><rect fill="#F3F4F6" height="48.2656" rx="12.5" ry="12.5" style="stroke:#D1D5DB;stroke-width:0.5;" width="291.4414" x="781.3262" y="639.5781"/><text fill="#333333" font-family="sans-serif" font-size="12" lengthAdjust="spacing" textLength="186.8555" x="791.3262" y="661.1797">auto-capture diagnostic_bundle</text><text fill="#333333" font-family="sans-serif" font-size="12" lengthAdjust="spacing" textLength="271.4414" x="791.3262" y="675.3125">(html&#8594;disk, console_tail, screenshot, url, title)</text><rect fill="#F3F4F6" height="48.2656" rx="12.5" ry="12.5" style="stroke:#D1D5DB;stroke-width:0.5;" width="264.166" x="794.9639" y="707.8438"/><text fill="#333333" font-family="sans-serif" font-size="12" lengthAdjust="spacing" textLength="244.166" x="804.9639" y="729.4453">raise RuntimeError({macro, failed_at_step,</text><text fill="#333333" font-family="sans-serif" font-size="12" lengthAdjust="spacing" textLength="181.1543" x="804.9639" y="743.5781">failed_action, original, bundle})</text><ellipse cx="927.0469" cy="787.1094" fill="none" rx="11" ry="11" style="stroke:#222222;stroke-width:1;"/><ellipse cx="927.0469" cy="787.1094" fill="#222222" rx="6" ry="6" style="stroke:#222222;stroke-width:1;"/><rect fill="#F3F4F6" height="34.1328" rx="12.5" ry="12.5" style="stroke:#D1D5DB;stroke-width:0.5;" width="284.4629" x="1092.7676" y="639.5781"/><text fill="#333333" font-family="sans-serif" font-size="12" lengthAdjust="spacing" textLength="264.4629" x="1102.7676" y="661.1797">return {macro, executed, skipped, args_used}</text><line style="stroke:#000000;stroke-width:1.5;" x1="775.3262" x2="775.3262" y1="49.7852" y2="1450.4141"/><path d="M1676.1943,808.1094 L1676.1943,839.7305 L1656.1943,843.7305 L1676.1943,847.7305 L1676.1943,879.3516 A0,0 0 0 0 1676.1943,879.3516 L1968.9375,879.3516 A0,0 0 0 0 1968.9375,879.3516 L1968.9375,818.1094 L1958.9375,808.1094 L1676.1943,808.1094 A0,0 0 0 0 1676.1943,808.1094" fill="#F9FAFB" style="stroke:#D1D5DB;stroke-width:0.5;"/><path d="M1958.9375,808.1094 L1958.9375,818.1094 L1968.9375,818.1094 L1958.9375,808.1094" fill="#F9FAFB" style="stroke:#D1D5DB;stroke-width:0.5;"/><text fill="#333333" font-family="sans-serif" font-size="13" lengthAdjust="spacing" textLength="154.7559" x="1682.1943" y="825.6777">Discovers macros whose</text><text fill="#333333" font-family="sans-serif" font-size="13" font-weight="bold" lengthAdjust="spacing" textLength="75.5879" x="1841.0635" y="825.6777">description</text><text fill="#333333" font-family="sans-serif" font-size="13" lengthAdjust="spacing" textLength="205.0801" x="1682.1943" y="840.9883">starts with [test] or [test:&lt;tag&gt;].</text><text fill="#333333" font-family="sans-serif" font-size="13" lengthAdjust="spacing" textLength="271.7432" x="1682.1943" y="856.2988">Launches an ephemeral browser per macro</text><text fill="#333333" font-family="sans-serif" font-size="13" lengthAdjust="spacing" textLength="99.4551" x="1682.1943" y="871.6094">on about:blank.</text><rect fill="#F3F4F6" height="34.1328" rx="12.5" ry="12.5" style="stroke:#D1D5DB;stroke-width:0.5;" width="193.5547" x="1462.6396" y="826.6641"/><text fill="#333333" font-family="sans-serif" font-size="12" lengthAdjust="spacing" textLength="173.5547" x="1472.6396" y="848.2656">octowright test [--tag &lt;tag&gt;]</text><rect fill="#F3F4F6" height="34.1328" rx="12.5" ry="12.5" style="stroke:#D1D5DB;stroke-width:0.5;" width="170.3926" x="1474.2207" y="899.3516"/><text fill="#333333" font-family="sans-serif" font-size="12" lengthAdjust="spacing" textLength="150.3926" x="1484.2207" y="920.9531">run_suite per [test] macro</text><polygon fill="#FEF3C7" points="1510.7039,953.4844,1608.1301,953.4844,1620.1301,965.4844,1608.1301,977.4844,1510.7039,977.4844,1498.7039,965.4844,1510.7039,953.4844" style="stroke:#D1D5DB;stroke-width:0.5;"/><text fill="#333333" font-family="sans-serif" font-size="11" lengthAdjust="spacing" textLength="97.4263" x="1510.7039" y="969.6416">run_macro raised?</text><text fill="#333333" font-family="sans-serif" font-size="11" lengthAdjust="spacing" textLength="17.4829" x="1481.2209" y="963.1641">yes</text><text fill="#333333" font-family="sans-serif" font-size="11" lengthAdjust="spacing" textLength="13.5835" x="1620.1301" y="963.1641">no</text><rect fill="#F3F4F6" height="34.1328" rx="12.5" ry="12.5" style="stroke:#D1D5DB;stroke-width:0.5;" width="164.8379" x="1387.2305" y="987.4844"/><text fill="#333333" font-family="sans-serif" font-size="12" lengthAdjust="spacing" textLength="144.8379" x="1397.2305" y="1009.0859">record failure + duration</text><rect fill="#F3F4F6" height="34.1328" rx="12.5" ry="12.5" style="stroke:#D1D5DB;stroke-width:0.5;" width="154.2324" x="1572.0684" y="987.4844"/><text fill="#333333" font-family="sans-serif" font-size="12" lengthAdjust="spacing" textLength="134.2324" x="1582.0684" y="1009.0859">record pass + duration</text><polygon fill="#FEF3C7" points="1559.417,1027.6172,1571.417,1039.6172,1559.417,1051.6172,1547.417,1039.6172,1559.417,1027.6172" style="stroke:#D1D5DB;stroke-width:0.5;"/><rect fill="#F3F4F6" height="34.1328" rx="12.5" ry="12.5" style="stroke:#D1D5DB;stroke-width:0.5;" width="147.8047" x="1485.5146" y="1071.6172"/><text fill="#333333" font-family="sans-serif" font-size="12" lengthAdjust="spacing" textLength="127.8047" x="1495.5146" y="1093.2188">write JUnit XML report</text><ellipse cx="1559.417" cy="1136.75" fill="none" rx="11" ry="11" style="stroke:#222222;stroke-width:1;"/><ellipse cx="1559.417" cy="1136.75" fill="#222222" rx="6" ry="6" style="stroke:#222222;stroke-width:1;"/><line style="stroke:#000000;stroke-width:1.5;" x1="1381.2305" x2="1381.2305" y1="49.7852" y2="1450.4141"/><ellipse cx="2094.3457" cy="1167.75" fill="#222222" rx="10" ry="10" style="stroke:#222222;stroke-width:1;"/><rect fill="#F3F4F6" height="34.1328" rx="12.5" ry="12.5" style="stroke:#D1D5DB;stroke-width:0.5;" width="214.7012" x="1986.9951" y="1197.75"/><text fill="#333333" font-family="sans-serif" font-size="12" lengthAdjust="spacing" textLength="194.7012" x="1996.9951" y="1219.3516">scenario_run_as_test(scenario_id)</text><rect fill="#F3F4F6" height="48.2656" rx="12.5" ry="12.5" style="stroke:#D1D5DB;stroke-width:0.5;" width="211.6719" x="1988.5098" y="1251.8828"/><text fill="#333333" font-family="sans-serif" font-size="12" lengthAdjust="spacing" textLength="141.3984" x="1998.5098" y="1273.4844">for each live participant:</text><text fill="#333333" font-family="sans-serif" font-size="12" lengthAdjust="spacing" textLength="191.6719" x="1998.5098" y="1287.6172">look up verify[role] &#8594; run_macro</text><rect fill="#F3F4F6" height="34.1328" rx="12.5" ry="12.5" style="stroke:#D1D5DB;stroke-width:0.5;" width="108.0898" x="2040.3008" y="1320.1484"/><text fill="#333333" font-family="sans-serif" font-size="12" lengthAdjust="spacing" textLength="88.0898" x="2050.3008" y="1341.75">write JUnit XML</text><rect fill="#F3F4F6" height="34.1328" rx="12.5" ry="12.5" style="stroke:#D1D5DB;stroke-width:0.5;" width="228.8164" x="1979.9375" y="1374.2813"/><text fill="#333333" font-family="sans-serif" font-size="12" lengthAdjust="spacing" textLength="208.8164" x="1989.9375" y="1395.8828">return {total, passed, failed, results}</text><ellipse cx="2094.3457" cy="1439.4141" fill="none" rx="11" ry="11" style="stroke:#222222;stroke-width:1;"/><ellipse cx="2094.3457" cy="1439.4141" fill="#222222" rx="6" ry="6" style="stroke:#222222;stroke-width:1;"/><line style="stroke:#000000;stroke-width:1.5;" x1="1973.9375" x2="1973.9375" y1="49.7852" y2="1450.4141"/><line style="stroke:#000000;stroke-width:1.5;" x1="2212.7539" x2="2212.7539" y1="49.7852" y2="1450.4141"/><line style="stroke:#2563EB;stroke-width:1;" x1="136.75" x2="136.75" y1="95.9844" y2="115.9844"/><polygon fill="#2563EB" points="132.75,105.9844,136.75,115.9844,140.75,105.9844,136.75,109.9844" style="stroke:#2563EB;stroke-width:1;"/><line style="stroke:#2563EB;stroke-width:1;" x1="136.75" x2="136.75" y1="150.1172" y2="170.1172"/><polygon fill="#2563EB" points="132.75,160.1172,136.75,170.1172,140.75,160.1172,136.75,164.1172" style="stroke:#2563EB;stroke-width:1;"/><line style="stroke:#2563EB;stroke-width:1;" x1="390.0127" x2="390.0127" y1="286.6484" y2="306.6484"/><polygon fill="#2563EB" points="386.0127,296.6484,390.0127,306.6484,394.0127,296.6484,390.0127,300.6484" style="stroke:#2563EB;stroke-width:1;"/><line style="stroke:#2563EB;stroke-width:1;" x1="390.0127" x2="390.0127" y1="340.7813" y2="360.7813"/><polygon fill="#2563EB" points="386.0127,350.7813,390.0127,360.7813,394.0127,350.7813,390.0127,354.7813" style="stroke:#2563EB;stroke-width:1;"/><line style="stroke:#2563EB;stroke-width:1;" x1="1081.0229" x2="1081.0229" y1="463.1797" y2="483.1797"/><polygon fill="#2563EB" points="1077.0229,473.1797,1081.0229,483.1797,1085.0229,473.1797,1081.0229,477.1797" style="stroke:#2563EB;stroke-width:1;"/><line style="stroke:#2563EB;stroke-width:1;" x1="1081.0229" x2="1081.0229" y1="517.3125" y2="537.3125"/><polygon fill="#2563EB" points="1077.0229,527.3125,1081.0229,537.3125,1085.0229,527.3125,1081.0229,531.3125" style="stroke:#2563EB;stroke-width:1;"/><line style="stroke:#2563EB;stroke-width:1;" x1="927.0469" x2="927.0469" y1="687.8438" y2="707.8438"/><polygon fill="#2563EB" points="923.0469,697.8438,927.0469,707.8438,931.0469,697.8438,927.0469,701.8438" style="stroke:#2563EB;stroke-width:1;"/><line style="stroke:#2563EB;stroke-width:1;" x1="927.0469" x2="927.0469" y1="756.1094" y2="776.1094"/><polygon fill="#2563EB" points="923.0469,766.1094,927.0469,776.1094,931.0469,766.1094,927.0469,770.1094" style="stroke:#2563EB;stroke-width:1;"/><line style="stroke:#2563EB;stroke-width:1;" x1="1022.0554" x2="927.0469" y1="617.5781" y2="617.5781"/><line style="stroke:#2563EB;stroke-width:1;" x1="927.0469" x2="927.0469" y1="617.5781" y2="639.5781"/><polygon fill="#2563EB" points="923.0469,629.5781,927.0469,639.5781,931.0469,629.5781,927.0469,633.5781" style="stroke:#2563EB;stroke-width:1;"/><line style="stroke:#2563EB;stroke-width:1;" x1="1139.9905" x2="1234.999" y1="617.5781" y2="617.5781"/><line style="stroke:#2563EB;stroke-width:1;" x1="1234.999" x2="1234.999" y1="617.5781" y2="639.5781"/><polygon fill="#2563EB" points="1230.999,629.5781,1234.999,639.5781,1238.999,629.5781,1234.999,633.5781" style="stroke:#2563EB;stroke-width:1;"/><line style="stroke:#2563EB;stroke-width:1;" x1="1234.999" x2="1234.999" y1="673.7109" y2="803.1094"/><line style="stroke:#2563EB;stroke-width:1;" x1="1234.999" x2="1559.417" y1="803.1094" y2="803.1094"/><line style="stroke:#2563EB;stroke-width:1;" x1="1559.417" x2="1559.417" y1="803.1094" y2="826.6641"/><polygon fill="#2563EB" points="1555.417,816.6641,1559.417,826.6641,1563.417,816.6641,1559.417,820.6641" style="stroke:#2563EB;stroke-width:1;"/><line style="stroke:#2563EB;stroke-width:1;" x1="1081.0229" x2="1081.0229" y1="585.5781" y2="605.5781"/><polygon fill="#2563EB" points="1077.0229,595.5781,1081.0229,605.5781,1085.0229,595.5781,1081.0229,599.5781" style="stroke:#2563EB;stroke-width:1;"/><line style="stroke:#2563EB;stroke-width:1;" x1="1559.417" x2="1559.417" y1="860.7969" y2="899.3516"/><polygon fill="#2563EB" points="1555.417,889.3516,1559.417,899.3516,1563.417,889.3516,1559.417,893.3516" style="stroke:#2563EB;stroke-width:1;"/><line style="stroke:#2563EB;stroke-width:1;" x1="1498.7039" x2="1469.6494" y1="965.4844" y2="965.4844"/><line style="stroke:#2563EB;stroke-width:1;" x1="1469.6494" x2="1469.6494" y1="965.4844" y2="987.4844"/><polygon fill="#2563EB" points="1465.6494,977.4844,1469.6494,987.4844,1473.6494,977.4844,1469.6494,981.4844" style="stroke:#2563EB;stroke-width:1;"/><line style="stroke:#2563EB;stroke-width:1;" x1="1620.1301" x2="1649.1846" y1="965.4844" y2="965.4844"/><line style="stroke:#2563EB;stroke-width:1;" x1="1649.1846" x2="1649.1846" y1="965.4844" y2="987.4844"/><polygon fill="#2563EB" points="1645.1846,977.4844,1649.1846,987.4844,1653.1846,977.4844,1649.1846,981.4844" style="stroke:#2563EB;stroke-width:1;"/><line style="stroke:#2563EB;stroke-width:1;" x1="1469.6494" x2="1469.6494" y1="1021.6172" y2="1039.6172"/><line style="stroke:#2563EB;stroke-width:1;" x1="1469.6494" x2="1547.417" y1="1039.6172" y2="1039.6172"/><polygon fill="#2563EB" points="1537.417,1035.6172,1547.417,1039.6172,1537.417,1043.6172,1541.417,1039.6172" style="stroke:#2563EB;stroke-width:1;"/><line style="stroke:#2563EB;stroke-width:1;" x1="1649.1846" x2="1649.1846" y1="1021.6172" y2="1039.6172"/><line style="stroke:#2563EB;stroke-width:1;" x1="1649.1846" x2="1571.417" y1="1039.6172" y2="1039.6172"/><polygon fill="#2563EB" points="1581.417,1035.6172,1571.417,1039.6172,1581.417,1043.6172,1577.417,1039.6172" style="stroke:#2563EB;stroke-width:1;"/><line style="stroke:#2563EB;stroke-width:1;" x1="1559.417" x2="1559.417" y1="933.4844" y2="953.4844"/><polygon fill="#2563EB" points="1555.417,943.4844,1559.417,953.4844,1563.417,943.4844,1559.417,947.4844" style="stroke:#2563EB;stroke-width:1;"/><line style="stroke:#2563EB;stroke-width:1;" x1="1559.417" x2="1559.417" y1="1051.6172" y2="1071.6172"/><polygon fill="#2563EB" points="1555.417,1061.6172,1559.417,1071.6172,1563.417,1061.6172,1559.417,1065.6172" style="stroke:#2563EB;stroke-width:1;"/><line style="stroke:#2563EB;stroke-width:1;" x1="1559.417" x2="1559.417" y1="1105.75" y2="1125.75"/><polygon fill="#2563EB" points="1555.417,1115.75,1559.417,1125.75,1563.417,1115.75,1559.417,1119.75" style="stroke:#2563EB;stroke-width:1;"/><line style="stroke:#2563EB;stroke-width:1;" x1="2094.3457" x2="2094.3457" y1="1177.75" y2="1197.75"/><polygon fill="#2563EB" points="2090.3457,1187.75,2094.3457,1197.75,2098.3457,1187.75,2094.3457,1191.75" style="stroke:#2563EB;stroke-width:1;"/><line style="stroke:#2563EB;stroke-width:1;" x1="2094.3457" x2="2094.3457" y1="1231.8828" y2="1251.8828"/><polygon fill="#2563EB" points="2090.3457,1241.8828,2094.3457,1251.8828,2098.3457,1241.8828,2094.3457,1245.8828" style="stroke:#2563EB;stroke-width:1;"/><line style="stroke:#2563EB;stroke-width:1;" x1="2094.3457" x2="2094.3457" y1="1300.1484" y2="1320.1484"/><polygon fill="#2563EB" points="2090.3457,1310.1484,2094.3457,1320.1484,2098.3457,1310.1484,2094.3457,1314.1484" style="stroke:#2563EB;stroke-width:1;"/><line style="stroke:#2563EB;stroke-width:1;" x1="2094.3457" x2="2094.3457" y1="1354.2813" y2="1374.2813"/><polygon fill="#2563EB" points="2090.3457,1364.2813,2094.3457,1374.2813,2098.3457,1364.2813,2094.3457,1368.2813" style="stroke:#2563EB;stroke-width:1;"/><line style="stroke:#2563EB;stroke-width:1;" x1="2094.3457" x2="2094.3457" y1="1408.4141" y2="1428.4141"/><polygon fill="#2563EB" points="2090.3457,1418.4141,2094.3457,1428.4141,2098.3457,1418.4141,2094.3457,1422.4141" style="stroke:#2563EB;stroke-width:1;"/><line style="stroke:#2563EB;stroke-width:1;" x1="136.75" x2="136.75" y1="218.3828" y2="223.3828"/><line style="stroke:#2563EB;stroke-width:1;" x1="136.75" x2="390.0127" y1="223.3828" y2="223.3828"/><line style="stroke:#2563EB;stroke-width:1;" x1="390.0127" x2="390.0127" y1="223.3828" y2="238.3828"/><polygon fill="#2563EB" points="386.0127,228.3828,390.0127,238.3828,394.0127,228.3828,390.0127,232.3828" style="stroke:#2563EB;stroke-width:1;"/><line style="stroke:#2563EB;stroke-width:1;" x1="390.0127" x2="390.0127" y1="394.9141" y2="399.9141"/><line style="stroke:#2563EB;stroke-width:1;" x1="390.0127" x2="1081.0229" y1="399.9141" y2="399.9141"/><line style="stroke:#2563EB;stroke-width:1;" x1="1081.0229" x2="1081.0229" y1="399.9141" y2="414.9141"/><polygon fill="#2563EB" points="1077.0229,404.9141,1081.0229,414.9141,1085.0229,404.9141,1081.0229,408.9141" style="stroke:#2563EB;stroke-width:1;"/><text fill="#333333" font-family="sans-serif" font-size="18" lengthAdjust="spacing" textLength="37.7402" x="116.8799" y="67.1875">user</text><text fill="#333333" font-family="sans-serif" font-size="18" lengthAdjust="spacing" textLength="56.0303" x="487.8979" y="67.1875">saving</text><text fill="#333333" font-family="sans-serif" font-size="18" lengthAdjust="spacing" textLength="53.2705" x="1051.6431" y="67.1875">replay</text><text fill="#333333" font-family="sans-serif" font-size="18" lengthAdjust="spacing" textLength="87.583" x="1633.7925" y="67.1875">test mode</text><text fill="#333333" font-family="sans-serif" font-size="18" lengthAdjust="spacing" textLength="166.4385" x="2010.1265" y="67.1875">scenario test mode</text><?plantuml-src ZLN1RkCs4BthAmRfnN4TBzfqjwYSRjlTj42Bf0iaA50W2GIQ6bciQL8WAJk6Os1F-m55x_sBVb2-f8-Kd7NNELI0POaSpioRzsOKLD1Cbq8wIrfLBDSIxu_l_oB7qhfoH5uiUOItHelrY0Bxa6L-hamZd5ZGLCZvpDdMb6-jjeu-gzArPr5o9LeTVh8cz2QdwTep4JAefGhhDmZ8hhSgloXVbjFdh0v2dbPVLQ-UiJnNOc5D-V_SxemFl7DrAh_UF-2SNVMRNxvyTShxtemDVEZYcqfK1rRFP9Kzj9xTG-Q3S27BfmY4zqABriYQFgVIgIMJCe5TIflrUfBbl6ItJZYiwMdZaeIdNwxV_Ne1MWtVca6_uSRTms0y7X_Juz__q9csizVZFxmr-dY2542uChE7B5z4LHIH_u4oICb8BXGKOSI2HxST54Og_jlD4I-4qaVvqOA_lpyQ4PnluIpY9ATcTSY8FjgZX8oq8WfDIw5RzXGi-PLeO5UX89jD3BBT4bGdkROQYVkCJPbAb-K-EDLGNvSN9BNrZ7zlHEDh6r2KbOF_L87e-lA7jrVlhelpdwzUd7dTzdWZsaxOJsXTQvu5Azni7wODDJiWZI1pRKLPfEFq-E5FyktK1nLQXDziOY6sL3aRTJFpi2wLRqH0sYnmwraBDVGog-bDn_WrUuzbi6P0nam4TA3KIiv7L2cjHyJt3SjG34Uqi79Uu70qYPHECbNHG9YFWX3Ai__k637Oq63D_XX5paKRx8aKJMZ1HQd4p5XaBOifPAkZNkgmq823T15LMkEjvY80FaQ2TCmc5df4hSD2Y5C4eU4tXQEhrWIru1_HAcwmIRL1wZZCPI52uGCtAEfk8IKw8WkbA2FWhqjYcppwO9kCDPmEZ4sfEqRIXdPk-PubuCTHDLTD4nzYgGkqKhcTHD6e2aJ7oOLgbGokhGnsbNIP1XhTd9m4CQCpt5xVVIBRS-MbNKRLfdYULdKKst1OCkgWcfZxS9WIHTDYMuMQRgBREo3gdlBEynXM5qcp4Bmmn4tDYzG4VQTJWryA0qjm9wOWDfzgOURZFVL3f8LlexwZVHyh7UlOZ_kT7XCRvG7vtGX8X4JwCLXQ9oAGoQULJdQDyFw_HgccknxxpQX0lrzUn8-4TMY-H1a6YMJqZRAqL_f-ikssOhyLmXVHOl2qgChOLd4Ef1xHSUXXUa2UgX4cvBT6MpkdjY7meghrZOCsxrBpFK6V7AI7bProWWrHPX5Nb4kdm_YHy_XI-MsFu5y0?></g></svg>