<svg xmlns="http://www.w3.org/2000/svg" xmlns:xlink="http://www.w3.org/1999/xlink" contentStyleType="text/css" data-diagram-type="DESCRIPTION" height="1194px" preserveAspectRatio="none" style="width:2009px;height:1194px;background:#FFFFFF;" version="1.1" viewBox="0 0 2009 1194" width="2009px" zoomAndPan="magnify"><?plantuml 1.2026.6?><defs/><g><g class="title" data-source-line="5"><text fill="#333333" font-family="sans-serif" font-size="14" font-weight="700" lengthAdjust="spacing" textLength="623.2188" x="689.5156" y="23.5352">MCP tool inventory by capability profile (131 tools total &#8212; slim with --profile=core,...)</text></g><!--cluster ROW1--><g class="cluster" data-qualified-name="ROW1" data-source-line="31" id="ent0002"><path d="M496.75,43.4883 L777.3672,43.4883 A3.75,3.75 0 0 1 779.8672,45.9883 L786.8672,65.9766 L1991.75,65.9766 A2.5,2.5 0 0 1 1994.25,68.4766 L1994.25,409.3383 A2.5,2.5 0 0 1 1991.75,411.8383 L496.75,411.8383 A2.5,2.5 0 0 1 494.25,409.3383 L494.25,45.9883 A2.5,2.5 0 0 1 496.75,43.4883" fill="#FFFFFF" style="stroke:#D1D5DB;stroke-width:1.5;"/><line style="stroke:#D1D5DB;stroke-width:1.5;" x1="494.25" x2="786.8672" y1="65.9766" y2="65.9766"/><text fill="#333333" font-family="sans-serif" font-size="14" font-weight="700" lengthAdjust="spacing" textLength="279.6172" x="498.25" y="59.0234">Row 1 &#8212; profiles you usually compose</text></g><!--cluster P_CORE--><g class="cluster" data-qualified-name="ROW1.P_CORE" data-source-line="32" id="ent0003"><path d="M528.75,135.7083 L594.1719,135.7083 A3.75,3.75 0 0 1 596.6719,138.2083 L603.6719,158.1966 L1091.75,158.1966 A2.5,2.5 0 0 1 1094.25,160.6966 L1094.25,336.1183 A2.5,2.5 0 0 1 1091.75,338.6183 L528.75,338.6183 A2.5,2.5 0 0 1 526.25,336.1183 L526.25,138.2083 A2.5,2.5 0 0 1 528.75,135.7083" fill="#EFF6FF" style="stroke:#D1D5DB;stroke-width:1.5;"/><line style="stroke:#D1D5DB;stroke-width:1.5;" x1="526.25" x2="603.6719" y1="158.1966" y2="158.1966"/><text fill="#333333" font-family="sans-serif" font-size="14" font-weight="700" lengthAdjust="spacing" textLength="64.4219" x="530.25" y="151.2434">core (24)</text></g><!--cluster P_ADV--><g class="cluster" data-qualified-name="ROW1.P_ADV" data-source-line="35" id="ent0005"><path d="M1120.75,94.4883 L1223.3799,94.4883 A3.75,3.75 0 0 1 1225.8799,96.9883 L1232.8799,116.9766 L1571.75,116.9766 A2.5,2.5 0 0 1 1574.25,119.4766 L1574.25,377.3383 A2.5,2.5 0 0 1 1571.75,379.8383 L1120.75,379.8383 A2.5,2.5 0 0 1 1118.25,377.3383 L1118.25,96.9883 A2.5,2.5 0 0 1 1120.75,94.4883" fill="#FEF3C7" style="stroke:#D1D5DB;stroke-width:1.5;"/><line style="stroke:#D1D5DB;stroke-width:1.5;" x1="1118.25" x2="1232.8799" y1="116.9766" y2="116.9766"/><text fill="#333333" font-family="sans-serif" font-size="14" font-weight="700" lengthAdjust="spacing" textLength="101.6299" x="1122.25" y="110.0234">advanced (31)</text></g><!--cluster P_MAC--><g class="cluster" data-qualified-name="ROW1.P_MAC" data-source-line="38" id="ent0007"><path d="M1600.75,143.9583 L1687.6914,143.9583 A3.75,3.75 0 0 1 1690.1914,146.4583 L1697.1914,166.4466 L1951.75,166.4466 A2.5,2.5 0 0 1 1954.25,168.9466 L1954.25,327.8683 A2.5,2.5 0 0 1 1951.75,330.3683 L1600.75,330.3683 A2.5,2.5 0 0 1 1598.25,327.8683 L1598.25,146.4583 A2.5,2.5 0 0 1 1600.75,143.9583" fill="#E0F2FE" style="stroke:#D1D5DB;stroke-width:1.5;"/><line style="stroke:#D1D5DB;stroke-width:1.5;" x1="1598.25" x2="1697.1914" y1="166.4466" y2="166.4466"/><text fill="#333333" font-family="sans-serif" font-size="14" font-weight="700" lengthAdjust="spacing" textLength="85.9414" x="1602.25" y="159.4934">macros (15)</text></g><!--cluster ROW2--><g class="cluster" data-qualified-name="ROW2" data-source-line="43" id="ent0009"><path d="M608.75,451.8383 L905.8213,451.8383 A3.75,3.75 0 0 1 908.3213,454.3383 L915.3213,474.3266 L1991.75,474.3266 A2.5,2.5 0 0 1 1994.25,476.8266 L1994.25,702.2683 A2.5,2.5 0 0 1 1991.75,704.7683 L608.75,704.7683 A2.5,2.5 0 0 1 606.25,702.2683 L606.25,454.3383 A2.5,2.5 0 0 1 608.75,451.8383" fill="#FFFFFF" style="stroke:#D1D5DB;stroke-width:1.5;"/><line style="stroke:#D1D5DB;stroke-width:1.5;" x1="606.25" x2="915.3213" y1="474.3266" y2="474.3266"/><text fill="#333333" font-family="sans-serif" font-size="14" font-weight="700" lengthAdjust="spacing" textLength="296.0713" x="610.25" y="467.3734">Row 2 &#8212; profile-scoped domain bundles</text></g><!--cluster P_SCN--><g class="cluster" data-qualified-name="ROW2.P_SCN" data-source-line="44" id="ent0010"><path d="M640.75,502.8383 L743.9814,502.8383 A3.75,3.75 0 0 1 746.4814,505.3383 L753.4814,525.3266 L967.75,525.3266 A2.5,2.5 0 0 1 970.25,527.8266 L970.25,670.2683 A2.5,2.5 0 0 1 967.75,672.7683 L640.75,672.7683 A2.5,2.5 0 0 1 638.25,670.2683 L638.25,505.3383 A2.5,2.5 0 0 1 640.75,502.8383" fill="#F3E8FF" style="stroke:#D1D5DB;stroke-width:1.5;"/><line style="stroke:#D1D5DB;stroke-width:1.5;" x1="638.25" x2="753.4814" y1="525.3266" y2="525.3266"/><text fill="#333333" font-family="sans-serif" font-size="14" font-weight="700" lengthAdjust="spacing" textLength="102.2314" x="642.25" y="518.3734">scenarios (12)</text></g><!--cluster P_PERS--><g class="cluster" data-qualified-name="ROW2.P_PERS" data-source-line="47" id="ent0012"><path d="M996.75,519.3283 L1088.0186,519.3283 A3.75,3.75 0 0 1 1090.5186,521.8283 L1097.5186,541.8166 L1279.75,541.8166 A2.5,2.5 0 0 1 1282.25,544.3166 L1282.25,653.7783 A2.5,2.5 0 0 1 1279.75,656.2783 L996.75,656.2783 A2.5,2.5 0 0 1 994.25,653.7783 L994.25,521.8283 A2.5,2.5 0 0 1 996.75,519.3283" fill="#FDF2F8" style="stroke:#D1D5DB;stroke-width:1.5;"/><line style="stroke:#D1D5DB;stroke-width:1.5;" x1="994.25" x2="1097.5186" y1="541.8166" y2="541.8166"/><text fill="#333333" font-family="sans-serif" font-size="14" font-weight="700" lengthAdjust="spacing" textLength="90.2686" x="998.25" y="534.8634">personas (8)</text></g><!--cluster P_GOLD--><g class="cluster" data-qualified-name="ROW2.P_GOLD" data-source-line="50" id="ent0014"><path d="M1308.75,527.5683 L1391.2959,527.5683 A3.75,3.75 0 0 1 1393.7959,530.0683 L1400.7959,550.0566 L1597.75,550.0566 A2.5,2.5 0 0 1 1600.25,552.5566 L1600.25,645.5383 A2.5,2.5 0 0 1 1597.75,648.0383 L1308.75,648.0383 A2.5,2.5 0 0 1 1306.25,645.5383 L1306.25,530.0683 A2.5,2.5 0 0 1 1308.75,527.5683" fill="#ECFDF5" style="stroke:#D1D5DB;stroke-width:1.5;"/><line style="stroke:#D1D5DB;stroke-width:1.5;" x1="1306.25" x2="1400.7959" y1="550.0566" y2="550.0566"/><text fill="#333333" font-family="sans-serif" font-size="14" font-weight="700" lengthAdjust="spacing" textLength="81.5459" x="1310.25" y="543.1034">goldens (5)</text></g><!--cluster P_TERM--><g class="cluster" data-qualified-name="ROW2.P_TERM" data-source-line="53" id="ent0016"><path d="M1626.75,511.0783 L1720.2402,511.0783 A3.75,3.75 0 0 1 1722.7402,513.5783 L1729.7402,533.5666 L1951.75,533.5666 A2.5,2.5 0 0 1 1954.25,536.0666 L1954.25,662.0283 A2.5,2.5 0 0 1 1951.75,664.5283 L1626.75,664.5283 A2.5,2.5 0 0 1 1624.25,662.0283 L1624.25,513.5783 A2.5,2.5 0 0 1 1626.75,511.0783" fill="#EEF2FF" style="stroke:#D1D5DB;stroke-width:1.5;"/><line style="stroke:#D1D5DB;stroke-width:1.5;" x1="1624.25" x2="1729.7402" y1="533.5666" y2="533.5666"/><text fill="#333333" font-family="sans-serif" font-size="14" font-weight="700" lengthAdjust="spacing" textLength="92.4902" x="1628.25" y="526.6134">terminals (7)</text></g><!--cluster ROW3--><g class="cluster" data-qualified-name="ROW3" data-source-line="58" id="ent0018"><path d="M1130.75,744.7683 L1469.9717,744.7683 A3.75,3.75 0 0 1 1472.4717,747.2683 L1479.4717,767.2566 L1991.75,767.2566 A2.5,2.5 0 0 1 1994.25,769.7566 L1994.25,1176.5683 A2.5,2.5 0 0 1 1991.75,1179.0683 L1130.75,1179.0683 A2.5,2.5 0 0 1 1128.25,1176.5683 L1128.25,747.2683 A2.5,2.5 0 0 1 1130.75,744.7683" fill="#FFFFFF" style="stroke:#D1D5DB;stroke-width:1.5;"/><line style="stroke:#D1D5DB;stroke-width:1.5;" x1="1128.25" x2="1479.4717" y1="767.2566" y2="767.2566"/><text fill="#333333" font-family="sans-serif" font-size="14" font-weight="700" lengthAdjust="spacing" textLength="338.2217" x="1132.25" y="760.3034">Row 3 &#8212; always available regardless of profile</text></g><!--cluster P_META--><g class="cluster" data-qualified-name="ROW3.P_META" data-source-line="59" id="ent0019"><path d="M1162.75,886.4483 L1380.5518,886.4483 A3.75,3.75 0 0 1 1383.0518,888.9483 L1390.0518,908.9366 L1525.75,908.9366 A2.5,2.5 0 0 1 1528.25,911.4366 L1528.25,1053.8783 A2.5,2.5 0 0 1 1525.75,1056.3783 L1162.75,1056.3783 A2.5,2.5 0 0 1 1160.25,1053.8783 L1160.25,888.9483 A2.5,2.5 0 0 1 1162.75,886.4483" fill="#F5F5F4" style="stroke:#D1D5DB;stroke-width:1.5;"/><line style="stroke:#D1D5DB;stroke-width:1.5;" x1="1160.25" x2="1390.0518" y1="908.9366" y2="908.9366"/><text fill="#333333" font-family="sans-serif" font-size="14" font-weight="700" lengthAdjust="spacing" textLength="216.8018" x="1164.25" y="901.9834">always-on meta + Advisor (7)</text></g><!--cluster P_ALL--><g class="cluster" data-qualified-name="ROW3.P_ALL" data-source-line="62" id="ent0021"><path d="M1554.75,795.7683 L1646.3398,795.7683 A3.75,3.75 0 0 1 1648.8398,798.2683 L1655.8398,818.2566 L1951.75,818.2566 A2.5,2.5 0 0 1 1954.25,820.7566 L1954.25,1144.5683 A2.5,2.5 0 0 1 1951.75,1147.0683 L1554.75,1147.0683 A2.5,2.5 0 0 1 1552.25,1144.5683 L1552.25,798.2683 A2.5,2.5 0 0 1 1554.75,795.7683" fill="#F0FDF4" style="stroke:#D1D5DB;stroke-width:1.5;"/><line style="stroke:#D1D5DB;stroke-width:1.5;" x1="1552.25" x2="1655.8398" y1="818.2566" y2="818.2566"/><text fill="#333333" font-family="sans-serif" font-size="14" font-weight="700" lengthAdjust="spacing" textLength="90.5898" x="1556.25" y="811.3034">all-only (29)</text></g><!--entity R_CORE--><g class="entity" data-qualified-name="ROW1.P_CORE.R_CORE" data-source-line="33" id="ent0004"><rect fill="#F1F1F1" height="151.9063" rx="2.5" ry="2.5" style="stroke:#181818;stroke-width:0.5;" width="536.8652" x="541.82" y="170.7083"/><text fill="#333333" font-family="sans-serif" font-size="14" lengthAdjust="spacing" textLength="322.5537" x="551.82" y="194.2434">minimum browser-driving + cheap orientation:</text><text fill="#333333" font-family="sans-serif" font-size="14" lengthAdjust="spacing" textLength="268.0098" x="551.82" y="210.7317">browser_launch / list / close / close_all</text><text fill="#333333" font-family="sans-serif" font-size="14" lengthAdjust="spacing" textLength="345.5156" x="551.82" y="227.22">browser_navigate / suggest_for_url / quick_launch</text><text fill="#333333" font-family="sans-serif" font-size="14" lengthAdjust="spacing" textLength="254.1738" x="551.82" y="243.7083">browser_click / fill / type / press_key</text><text fill="#333333" font-family="sans-serif" font-size="14" lengthAdjust="spacing" textLength="308.1846" x="551.82" y="260.1966">browser_screenshot / brief / read_markdown</text><text fill="#333333" font-family="sans-serif" font-size="14" lengthAdjust="spacing" textLength="224.4375" x="551.82" y="276.6848">browser_wait_for / set_protected</text><text fill="#333333" font-family="sans-serif" font-size="14" lengthAdjust="spacing" textLength="301.4922" x="551.82" y="293.1731">browser_links / find_link / fields / find_field</text><text fill="#333333" font-family="sans-serif" font-size="14" lengthAdjust="spacing" textLength="516.8652" x="551.82" y="309.6614">browser_page_outline / web_page_outline / web_find_links / web_site_links</text></g><!--entity R_ADV--><g class="entity" data-qualified-name="ROW1.P_ADV.R_ADV" data-source-line="36" id="ent0006"><rect fill="#F1F1F1" height="234.3477" rx="2.5" ry="2.5" style="stroke:#181818;stroke-width:0.5;" width="424.0176" x="1134.24" y="129.4883"/><text fill="#333333" font-family="sans-serif" font-size="14" lengthAdjust="spacing" textLength="252.499" x="1144.24" y="153.0234">inspection, ARIA locators, assertions,</text><text fill="#333333" font-family="sans-serif" font-size="14" lengthAdjust="spacing" textLength="283.7119" x="1144.24" y="169.5117">summaries, viewport sync, capture cache,</text><text fill="#333333" font-family="sans-serif" font-size="14" lengthAdjust="spacing" textLength="220.2061" x="1144.24" y="186">export script, relaunch, fan-out:</text><text fill="#333333" font-family="sans-serif" font-size="14" lengthAdjust="spacing" textLength="291.0537" x="1144.24" y="202.4883">browser_get_text_by / evaluate / snapshot</text><text fill="#333333" font-family="sans-serif" font-size="14" lengthAdjust="spacing" textLength="293.8359" x="1144.24" y="218.9766">browser_expect_url / _text / _selector / _js</text><text fill="#333333" font-family="sans-serif" font-size="14" lengthAdjust="spacing" textLength="372.75" x="1144.24" y="235.4648">browser_console_messages / console_summary / each</text><text fill="#333333" font-family="sans-serif" font-size="14" lengthAdjust="spacing" textLength="322.916" x="1144.24" y="251.9531">browser_network_requests / network_summary</text><text fill="#333333" font-family="sans-serif" font-size="14" lengthAdjust="spacing" textLength="363.2822" x="1144.24" y="268.4414">browser_downloads / downloads_summary / observe</text><text fill="#333333" font-family="sans-serif" font-size="14" lengthAdjust="spacing" textLength="404.0176" x="1144.24" y="284.9297">browser_recording_path / artifact_manifest / tail_recording</text><text fill="#333333" font-family="sans-serif" font-size="14" lengthAdjust="spacing" textLength="271.2637" x="1144.24" y="301.418">browser_resize / viewport_status / sync</text><text fill="#333333" font-family="sans-serif" font-size="14" lengthAdjust="spacing" textLength="263.9697" x="1144.24" y="317.9063">browser_export_script / relaunch_fluid</text><text fill="#333333" font-family="sans-serif" font-size="14" lengthAdjust="spacing" textLength="294.417" x="1144.24" y="334.3945">capture_create / get / lines / list / search /</text><text fill="#333333" font-family="sans-serif" font-size="14" lengthAdjust="spacing" textLength="131.8789" x="1144.24" y="350.8828">summary / cleanup</text></g><!--entity R_MAC--><g class="entity" data-qualified-name="ROW1.P_MAC.R_MAC" data-source-line="39" id="ent0008"><rect fill="#F1F1F1" height="135.418" rx="2.5" ry="2.5" style="stroke:#181818;stroke-width:0.5;" width="323.1943" x="1614.65" y="178.9583"/><text fill="#333333" font-family="sans-serif" font-size="14" lengthAdjust="spacing" textLength="303.1943" x="1624.65" y="202.4934">record &#8594; save &#8594; repair &#8594; replay + artifacts:</text><text fill="#333333" font-family="sans-serif" font-size="14" lengthAdjust="spacing" textLength="212.8848" x="1624.65" y="218.9817">macro_save / list / run / delete</text><text fill="#333333" font-family="sans-serif" font-size="14" lengthAdjust="spacing" textLength="143.3018" x="1624.65" y="235.47">macro_run_sequence</text><text fill="#333333" font-family="sans-serif" font-size="14" lengthAdjust="spacing" textLength="286.3506" x="1624.65" y="251.9583">macro_lint / repair_preview / repair_apply</text><text fill="#333333" font-family="sans-serif" font-size="14" lengthAdjust="spacing" textLength="168.7588" x="1624.65" y="268.4466">macro_compile / explain</text><text fill="#333333" font-family="sans-serif" font-size="14" lengthAdjust="spacing" textLength="209.583" x="1624.65" y="284.9348">macro_artifact_plan / run / list</text><text fill="#333333" font-family="sans-serif" font-size="14" lengthAdjust="spacing" textLength="174.2891" x="1624.65" y="301.4231">macro_digest / export_cli</text></g><!--entity R_SCN--><g class="entity" data-qualified-name="ROW2.P_SCN.R_SCN" data-source-line="45" id="ent0011"><rect fill="#F1F1F1" height="118.9297" rx="2.5" ry="2.5" style="stroke:#181818;stroke-width:0.5;" width="300.4717" x="654.01" y="537.8383"/><text fill="#333333" font-family="sans-serif" font-size="14" lengthAdjust="spacing" textLength="197.0322" x="664.01" y="561.3734">multi-browser orchestration:</text><text fill="#333333" font-family="sans-serif" font-size="14" lengthAdjust="spacing" textLength="280.4717" x="664.01" y="577.8617">scenario_list / plan / start / status / stop</text><text fill="#333333" font-family="sans-serif" font-size="14" lengthAdjust="spacing" textLength="232.8867" x="664.01" y="594.35">scenario_participants / run_macro</text><text fill="#333333" font-family="sans-serif" font-size="14" lengthAdjust="spacing" textLength="249.0742" x="664.01" y="610.8383">scenario_wait_for_sync / run_as_test</text><text fill="#333333" font-family="sans-serif" font-size="14" lengthAdjust="spacing" textLength="231.6836" x="664.01" y="627.3266">scenario_remap_participants / tail</text><text fill="#333333" font-family="sans-serif" font-size="14" lengthAdjust="spacing" textLength="173.79" x="664.01" y="643.8148">scenario_spawn_template</text></g><!--entity R_PERS--><g class="entity" data-qualified-name="ROW2.P_PERS.R_PERS" data-source-line="48" id="ent0013"><rect fill="#F1F1F1" height="85.9531" rx="2.5" ry="2.5" style="stroke:#181818;stroke-width:0.5;" width="255.293" x="1010.6" y="554.3283"/><text fill="#333333" font-family="sans-serif" font-size="14" lengthAdjust="spacing" textLength="222.3115" x="1020.6" y="577.8634">identity + on-disk profile mgmt:</text><text fill="#333333" font-family="sans-serif" font-size="14" lengthAdjust="spacing" textLength="235.293" x="1020.6" y="594.3517">persona_list / get / create / delete</text><text fill="#333333" font-family="sans-serif" font-size="14" lengthAdjust="spacing" textLength="181.7061" x="1020.6" y="610.84">persona_credentials_check</text><text fill="#333333" font-family="sans-serif" font-size="14" lengthAdjust="spacing" textLength="198.4814" x="1020.6" y="627.3283">profile_list / delete / cleanup</text></g><!--entity R_GOLD--><g class="entity" data-qualified-name="ROW2.P_GOLD.R_GOLD" data-source-line="51" id="ent0015"><rect fill="#F1F1F1" height="69.4648" rx="2.5" ry="2.5" style="stroke:#181818;stroke-width:0.5;" width="261.5615" x="1322.47" y="562.5683"/><text fill="#333333" font-family="sans-serif" font-size="14" lengthAdjust="spacing" textLength="241.5615" x="1332.47" y="586.1034">aria-tree snapshot baselines + diff:</text><text fill="#333333" font-family="sans-serif" font-size="14" lengthAdjust="spacing" textLength="177.9531" x="1332.47" y="602.5917">golden_save / list / delete</text><text fill="#333333" font-family="sans-serif" font-size="14" lengthAdjust="spacing" textLength="184.9873" x="1332.47" y="619.08">golden_assert / verify_loop</text></g><!--entity R_TERM--><g class="entity" data-qualified-name="ROW2.P_TERM.R_TERM" data-source-line="54" id="ent0017"><rect fill="#F1F1F1" height="102.4414" rx="2.5" ry="2.5" style="stroke:#181818;stroke-width:0.5;" width="297.7031" x="1640.4" y="546.0783"/><text fill="#333333" font-family="sans-serif" font-size="14" lengthAdjust="spacing" textLength="183.0801" x="1650.4" y="569.6134">optional terminal sessions:</text><text fill="#333333" font-family="sans-serif" font-size="14" lengthAdjust="spacing" textLength="277.7031" x="1650.4" y="586.1017">terminal_launch / send_input / snapshot</text><text fill="#333333" font-family="sans-serif" font-size="14" lengthAdjust="spacing" textLength="251.5215" x="1650.4" y="602.59">terminal_read / wait_for / close / list</text><text fill="#333333" font-family="sans-serif" font-size="14" lengthAdjust="spacing" textLength="252.5605" x="1650.4" y="619.0783">(pip install octowright-terminal, then</text><text fill="#333333" font-family="sans-serif" font-size="14" lengthAdjust="spacing" textLength="230.3779" x="1650.4" y="635.5666">OCTOWRIGHT_PLUGINS=terminal)</text></g><!--entity R_META--><g class="entity" data-qualified-name="ROW3.P_META.R_META" data-source-line="60" id="ent0020"><rect fill="#F1F1F1" height="118.9297" rx="2.5" ry="2.5" style="stroke:#181818;stroke-width:0.5;" width="335.8887" x="1176.3" y="921.4483"/><text fill="#333333" font-family="sans-serif" font-size="14" lengthAdjust="spacing" textLength="196.8477" x="1186.3" y="944.9834">registers under every profile:</text><text fill="#333333" font-family="sans-serif" font-size="14" lengthAdjust="spacing" textLength="237.0566" x="1186.3" y="961.4717">octowright_status / storage_report</text><text fill="#333333" font-family="sans-serif" font-size="14" lengthAdjust="spacing" textLength="297.876" x="1186.3" y="977.96">octowright_dashboard_url / check_takeover</text><text fill="#333333" font-family="sans-serif" font-size="14" lengthAdjust="spacing" textLength="177.29" x="1186.3" y="994.4483">octowright_advisor_status</text><text fill="#333333" font-family="sans-serif" font-size="14" lengthAdjust="spacing" textLength="235.7715" x="1186.3" y="1010.9366">octowright_advisor_set_preference</text><text fill="#333333" font-family="sans-serif" font-size="14" lengthAdjust="spacing" textLength="315.8887" x="1186.3" y="1027.4248">octowright_advisor_record_macro_observation</text></g><!--entity R_ALL--><g class="entity" data-qualified-name="ROW3.P_ALL.R_ALL" data-source-line="63" id="ent0022"><rect fill="#F1F1F1" height="300.3008" rx="2.5" ry="2.5" style="stroke:#181818;stroke-width:0.5;" width="369.5967" x="1568.45" y="830.7683"/><text fill="#333333" font-family="sans-serif" font-size="14" lengthAdjust="spacing" textLength="319.4844" x="1578.45" y="854.3034">registers only when no --profile filter is active:</text><text fill="#333333" font-family="sans-serif" font-size="14" lengthAdjust="spacing" textLength="312.9629" x="1578.45" y="870.7917">frames/tabs/popups (browser_switch_frame /</text><text fill="#333333" font-family="sans-serif" font-size="14" lengthAdjust="spacing" textLength="182.2324" x="1578.45" y="887.28">reset_frame / list_frames /</text><text fill="#333333" font-family="sans-serif" font-size="14" lengthAdjust="spacing" textLength="259.8887" x="1578.45" y="903.7683">page_list / page_switch / page_close),</text><text fill="#333333" font-family="sans-serif" font-size="14" lengthAdjust="spacing" textLength="286.5352" x="1578.45" y="920.2566">network + dialogs (browser_mock_route /</text><text fill="#333333" font-family="sans-serif" font-size="14" lengthAdjust="spacing" textLength="238.7656" x="1578.45" y="936.7448">unmock_route / set_dialog_policy),</text><text fill="#333333" font-family="sans-serif" font-size="14" lengthAdjust="spacing" textLength="349.5967" x="1578.45" y="953.2331">request headers (browser_set_extra_http_headers /</text><text fill="#333333" font-family="sans-serif" font-size="14" lengthAdjust="spacing" textLength="238.3555" x="1578.45" y="969.7214">inject_headers / uninject_headers),</text><text fill="#333333" font-family="sans-serif" font-size="14" lengthAdjust="spacing" textLength="187.79" x="1578.45" y="986.2097">trace (browser_open_trace),</text><text fill="#333333" font-family="sans-serif" font-size="14" lengthAdjust="spacing" textLength="212.96" x="1578.45" y="1002.698">roster (browser_spawn_roster /</text><text fill="#333333" font-family="sans-serif" font-size="14" lengthAdjust="spacing" textLength="242.2451" x="1578.45" y="1019.1863">browser_open_url / navigate_back),</text><text fill="#333333" font-family="sans-serif" font-size="14" lengthAdjust="spacing" textLength="344.5449" x="1578.45" y="1035.6745">interaction extras (hover / drag / a11y_dragdrop /</text><text fill="#333333" font-family="sans-serif" font-size="14" lengthAdjust="spacing" textLength="215.9678" x="1578.45" y="1052.1628">select_option / set_input_files /</text><text fill="#333333" font-family="sans-serif" font-size="14" lengthAdjust="spacing" textLength="134.1348" x="1578.45" y="1068.6511">capture_and_close),</text><text fill="#333333" font-family="sans-serif" font-size="14" lengthAdjust="spacing" textLength="307.6582" x="1578.45" y="1085.1394">macro artifact extras (macro_artifact_status /</text><text fill="#333333" font-family="sans-serif" font-size="14" lengthAdjust="spacing" textLength="280" x="1578.45" y="1101.6277">verify / delete / critical_points_get / set),</text><text fill="#333333" font-family="sans-serif" font-size="14" lengthAdjust="spacing" textLength="236.6602" x="1578.45" y="1118.1159">recordings_cleanup, run_test_suite</text></g><g class="entity" data-qualified-name="LEGEND" data-source-line="21" id="ent0001"><path d="M6,180.4183 L6,312.9027 L470.498,312.9027 L470.498,190.4183 L460.498,180.4183 L6,180.4183" fill="#FEF3C7" style="stroke:#D1D5DB;stroke-width:0.5;"/><path d="M460.498,180.4183 L460.498,190.4183 L470.498,190.4183 L460.498,180.4183" fill="#FEF3C7" style="stroke:#D1D5DB;stroke-width:1;"/><text fill="#333333" font-family="sans-serif" font-size="13" font-weight="700" lengthAdjust="spacing" textLength="154.7559" x="12" y="197.9866">OCTOWRIGHT_PROFILE</text><text fill="#333333" font-family="sans-serif" font-size="13" lengthAdjust="spacing" textLength="284.6289" x="170.8691" y="197.9866">(env var or ``serve --profile=...``) slims the</text><text fill="#333333" font-family="sans-serif" font-size="13" lengthAdjust="spacing" textLength="429.9458" x="12" y="213.2972">LLM-visible tool surface to one or more named profiles. Tools listed</text><text fill="#333333" font-family="sans-serif" font-size="13" lengthAdjust="spacing" textLength="174.3447" x="12" y="228.6077">under ``all-only`` register</text><text fill="#333333" font-family="sans-serif" font-size="13" font-weight="700" lengthAdjust="spacing" textLength="251.6021" x="190.458" y="228.6077">only when no --profile filter is active</text><text fill="#333333" font-family="sans-serif" font-size="13" lengthAdjust="spacing" textLength="4.1133" x="442.0601" y="228.6077">.</text><text fill="#333333" font-family="sans-serif" font-size="13" lengthAdjust="spacing" textLength="424.8169" x="12" y="243.9183">Always-on tools register under every profile (and under no profile).</text><text fill="#333333" font-family="sans-serif" font-size="13" lengthAdjust="spacing" textLength="4.1133" x="12" y="259.2288">&#160;</text><text fill="#333333" font-family="sans-serif" font-size="13" lengthAdjust="spacing" textLength="165.8643" x="12" y="274.5394">Authoritative per-tool list:</text><text fill="#333333" font-family="sans-serif" font-size="13" lengthAdjust="spacing" textLength="434.7002" x="12" y="289.8499">``docs/architecture/mcp-tool-inventory.md`` &#8212; generated against</text><text fill="#333333" font-family="sans-serif" font-size="13" lengthAdjust="spacing" textLength="380.0342" x="12" y="305.1605">``uv run octowright selftest``, which is the source of truth.</text></g><!--link ROW1 to ROW2--><!--link ROW2 to ROW3--></g></svg>